<?xml version="1.0" encoding="UTF-8"?>
<svg width="1082px" height="663px" viewBox="0 0 1082 663" version="1.1" xmlns="http://www.w3.org/2000/svg" xmlns:xlink="http://www.w3.org/1999/xlink">
    <!-- Generator: Sketch 48.1 (47250) - http://www.bohemiancoding.com/sketch -->
    <title>undraw_experts3_3njd</title>
    <desc>Created with Sketch.</desc>
    <defs>
        <linearGradient x1="50%" y1="100%" x2="50%" y2="0%" id="linearGradient-1">
            <stop stop-color="#808080" stop-opacity="0.25" offset="0%"></stop>
            <stop stop-color="#808080" stop-opacity="0.12" offset="54%"></stop>
            <stop stop-color="#808080" stop-opacity="0.1" offset="100%"></stop>
        </linearGradient>
        <linearGradient x1="85383%" y1="30788%" x2="98967%" y2="30788%" id="linearGradient-2">
            <stop stop-color="#808080" stop-opacity="0.25" offset="0%"></stop>
            <stop stop-color="#808080" stop-opacity="0.12" offset="54%"></stop>
            <stop stop-color="#808080" stop-opacity="0.1" offset="100%"></stop>
        </linearGradient>
        <linearGradient x1="21819%" y1="54213%" x2="21819%" y2="11452%" id="linearGradient-3">
            <stop stop-color="#808080" stop-opacity="0.25" offset="0%"></stop>
            <stop stop-color="#808080" stop-opacity="0.12" offset="54%"></stop>
            <stop stop-color="#808080" stop-opacity="0.1" offset="100%"></stop>
        </linearGradient>
        <linearGradient x1="21143%" y1="41437%" x2="36274%" y2="41437%" id="linearGradient-4">
            <stop stop-color="#808080" stop-opacity="0.25" offset="0%"></stop>
            <stop stop-color="#808080" stop-opacity="0.12" offset="54%"></stop>
            <stop stop-color="#808080" stop-opacity="0.1" offset="100%"></stop>
        </linearGradient>
        <linearGradient x1="54314%" y1="66259%" x2="54314%" y2="23498%" id="linearGradient-5">
            <stop stop-color="#808080" stop-opacity="0.25" offset="0%"></stop>
            <stop stop-color="#808080" stop-opacity="0.12" offset="54%"></stop>
            <stop stop-color="#808080" stop-opacity="0.1" offset="100%"></stop>
        </linearGradient>
        <linearGradient x1="52651%" y1="52782%" x2="70170%" y2="52782%" id="linearGradient-6">
            <stop stop-color="#808080" stop-opacity="0.25" offset="0%"></stop>
            <stop stop-color="#808080" stop-opacity="0.12" offset="54%"></stop>
            <stop stop-color="#808080" stop-opacity="0.1" offset="100%"></stop>
        </linearGradient>
    </defs>
    <g id="Page-1" stroke="none" stroke-width="1" fill="none" fill-rule="evenodd">
        <g id="undraw_experts3_3njd" transform="translate(-60.000000, -119.000000)">
            <g id="Group" opacity="0.5" transform="translate(705.000000, 119.000000)" fill="url(#linearGradient-1)" fill-rule="nonzero">
                <rect id="Rectangle-path" x="0.57" y="0" width="436.38" height="427.61"></rect>
            </g>
            <rect id="Rectangle-path" fill="#FFFFFF" fill-rule="nonzero" x="707.76" y="122.29" width="432" height="355.73"></rect>
            <g id="Group" opacity="0.5" transform="translate(751.000000, 157.000000)" fill="#55A8B9" fill-rule="nonzero">
                <rect id="Rectangle-path" x="0.62" y="0.25" width="344.28" height="267.27"></rect>
            </g>
            <g id="Group" opacity="0.5" transform="translate(854.000000, 187.000000)" fill="url(#linearGradient-2)" fill-rule="nonzero">
                <path d="M134.97,154.3 C134.78219,143.757246 130.474884,133.706865 122.97,126.3 C116.21,119.66 107.12,112.04 97.27,107.43 L97.21,107.43 C93.0382366,105.399089 88.5684163,104.04869 83.97,103.43 L83.97,87.07 C87.3301032,84.0601255 90.1065055,80.4565655 92.16,76.44 L92.16,77.75 C92.16,77.75 107.85,61.9 107.49,43.3 C107.72,32.13 102.35,19.84 84.34,9.3 C42.52,-15.1 26.5,20.38 23.45,28.59 C23.2534897,28.9874102 23.105751,29.4071226 23.01,29.84 L22.89,30.22 C22.8385711,30.6049566 22.8385711,30.9950434 22.89,31.38 L22.89,31.5 C22.8767495,31.7064543 22.8767495,31.9135457 22.89,32.12 C22.89,34.86 25.22,37.38 29.17,39.44 C22.8777274,48.8338348 21.2830587,60.6094593 24.8502713,71.3384771 C28.4174839,82.0674948 36.7456211,90.5439582 47.41,94.3 L47.41,104.8 L46.6,103.27 C46.6,103.27 41.01,106.62 33.8,111.76 C21.72,120.37 5.08,134.01 2.58,145.28 C-1.42,163.28 2.58,239.46 2.58,239.46 L136.64,241.46 L134.97,154.3 Z M92.36,76.31 L92.41,76.26 L92.36,76.31 Z M23.24,32.69 L23.24,32.75 L23.24,32.69 Z M23.49,33.28 L23.49,33.36 L23.49,33.28 Z M23.81,33.86 L23.87,33.96 L23.81,33.86 Z M24.2,34.43 L24.28,34.54 L24.2,34.43 Z M24.66,34.99 L24.77,35.11 L24.66,34.99 Z M25.19,35.54 L25.32,35.67 L25.19,35.54 Z M29.73,38.54 L29.87,38.61 L29.73,38.54 Z M25.79,36.05 L25.95,36.19 L25.79,36.05 Z M26.45,36.58 L26.64,36.72 L26.45,36.58 Z M27.18,37.09 L27.4,37.24 L27.18,37.09 Z M27.97,37.59 L28.23,37.74 L27.97,37.59 Z M28.82,38.07 L29.11,38.23 L28.82,38.07 Z" id="Shape"></path>
            </g>
            <rect id="Rectangle-path" fill="#FDA57D" fill-rule="nonzero" x="901.99" y="274.57" width="35.59" height="52.2"></rect>
            <path d="M903.17,282.87 C906.89,284.19 908.49,285.24 912.66,285.24 C921.426019,285.241181 929.88107,281.991705 936.39,276.12 L936.39,275.75 L903.17,275.75 L903.17,282.87 Z" id="Shape" fill="#000000" fill-rule="nonzero" opacity="0.05"></path>
            <circle id="Oval" fill="#FDA57D" fill-rule="nonzero" cx="913.85" cy="248.47" r="35.59"></circle>
            <circle id="Oval" fill="#FFFF00" fill-rule="nonzero" cx="881.87" cy="237.84" r="1"></circle>
            <g id="Group" transform="translate(0.970000, 0.300000)"></g>
            <ellipse id="Oval" fill="#000000" fill-rule="nonzero" cx="909.93" cy="220.34" rx="31.81" ry="12.09"></ellipse>
            <path d="M916.29,224.8 L945.55,242.61 L945.55,264.61 C945.55,264.61 983.72,226.03 937.92,199.32 C892.12,172.61 878.12,219.68 878.12,219.68 C878.12,219.68 890.84,229.89 916.29,224.8 Z" id="Shape" fill="#000000" fill-rule="nonzero"></path>
            <ellipse id="Oval" fill="#FDA57D" fill-rule="nonzero" cx="946.9" cy="248.47" rx="3.56" ry="5.93"></ellipse>
            <g id="Group" opacity="0.05" transform="translate(878.000000, 220.000000)" fill="#000000" fill-rule="nonzero">
                <path d="M67.55,22.61 L48.07,10.76 C42.7796514,11.8981002 37.3813098,12.4580524 31.97,12.43 C14.87,12.43 0.97,7.3 0.2,0.87 L0.2,0.98 C0.1872482,1.17979674 0.1872482,1.38020326 0.2,1.58 C0.2,8.26 14.44,13.67 32.01,13.67 C37.4380158,13.7016812 42.8533192,13.1417086 48.16,12 L67.63,23.85 L67.55,22.61 Z" id="Shape"></path>
                <path d="M67.55,44.65 L67.55,45.92 C67.55,45.92 82.8,30.5 82.45,12.4 C82.09,29.94 67.55,44.65 67.55,44.65 Z" id="Shape"></path>
            </g>
            <path d="M901.19,290.75 C901.19,290.75 862.25,314.11 858.36,331.63 C854.47,349.15 858.36,423.27 858.36,423.27 L988.8,425.22 L987.14,340.4 C986.951455,330.136604 982.75166,320.355031 975.44,313.15 C965.7,303.58 950.97,291.89 936.23,290.75 L918.71,323.85 L901.19,290.75 Z" id="Shape" fill="#4D8AF0" fill-rule="nonzero"></path>
            <path d="M883.21,330.4 C883.21,330.4 873.03,383.83 881.94,400.4" id="Shape" fill="#000000" fill-rule="nonzero" opacity="0.05"></path>
            <path d="M956.97,330.4 C956.97,330.4 967.15,383.83 958.24,400.4" id="Shape" fill="#000000" fill-rule="nonzero" opacity="0.05"></path>
            <polygon id="Shape" fill="#FFFFFF" fill-rule="nonzero" points="901.02 290.95 937.99 290.43 913.75 352.02"></polygon>
            <polygon id="Shape" fill="#FFFFFF" fill-rule="nonzero" opacity="0.1" points="936.64 289.5 943.01 295.86 923.92 321.3"></polygon>
            <g id="Group" opacity="0.5" transform="translate(60.000000, 233.000000)" fill="url(#linearGradient-3)" fill-rule="nonzero">
                <rect id="Rectangle-path" x="0" y="0.52" width="436.38" height="427.61"></rect>
            </g>
            <rect id="Rectangle-path" fill="#FFFFFF" fill-rule="nonzero" x="62.19" y="236.81" width="432" height="355.73"></rect>
            <g id="Group" opacity="0.5" transform="translate(106.000000, 271.000000)" fill="#55A8B9" fill-rule="nonzero">
                <rect id="Rectangle-path" x="0.05" y="0.77" width="344.28" height="267.27"></rect>
            </g>
            <g id="Group" opacity="0.5" transform="translate(212.000000, 289.000000)" fill="url(#linearGradient-4)" fill-rule="nonzero">
                <path d="M146.15,200.15 L151.71,200.15 L149.97,182.35 L149.78,182.35 C150.84,171.47 152.43,123.26 100.6,104.05 L95.97,101 L95.62,101.31 L95.62,88.3 C99.0407874,85.2568204 101.871401,81.6092273 103.97,77.54 L103.97,78.87 C108.529804,73.9527692 112.307189,68.3642627 115.17,62.3 C112.485057,67.3469815 109.149966,72.0201425 105.25,76.2 L105.25,76.08 C111.76,68.65 138.38,34.16 95.96,9.41 C48.18,-18.46 39.16,28.3 39.16,28.3 L42.97,33.4 C42.97,33.4 33.72,51.92 33.72,60.66 C33.7252484,76.3908601 43.6402999,90.412145 58.47,95.66 L58.47,106.76 C55.02,108.02 7.07,126.57 7.07,182.34 L0.39,200.14 L2.62,201.14 L2.62,250.75 L111.62,250.75 C111.62,250.75 118.3,197.9 116.07,180.1 L122.75,184.55 L122.75,200.13 L124.23,200.13 L124.23,200.52 L123.8,200.52 L124.23,201.96 L124.23,249.64 L146.11,249.64 L146.11,201.98 L146.36,200.54 L146.11,200.54 L146.15,200.15 Z M22.49,204.23 L22.65,200.15 L22.49,204.23 Z" id="Shape"></path>
            </g>
            <rect id="Rectangle-path" fill="#FDA57D" fill-rule="nonzero" x="271.21" y="378.53" width="35.59" height="52.2"></rect>
            <path d="M272.4,386.83 C276.12,388.15 277.72,389.2 281.89,389.2 C290.656196,389.202133 299.111576,385.95253 305.62,380.08 L305.62,379.71 L272.4,379.71 L272.4,386.83 Z" id="Shape" fill="#000000" fill-rule="nonzero" opacity="0.05"></path>
            <circle id="Oval" fill="#FDA57D" fill-rule="nonzero" cx="283.08" cy="352.43" r="35.59"></circle>
            <circle id="Oval" fill="#FFFF00" fill-rule="nonzero" cx="251.1" cy="341.8" r="1"></circle>
            <g id="Group" transform="translate(0.970000, 0.300000)"></g>
            <path d="M285.51,335.12 L314.77,346.57 L314.77,368.57 C314.77,368.57 352.97,330.04 307.14,303.3 C265.96,279.3 258.5,308.21 253.32,313.77 C253.076219,314.0307 252.946519,314.377885 252.95966,314.734565 C252.9728,315.091246 253.127697,315.427945 253.39,315.67 C258.48,320.46 262.83,339.66 285.51,335.12 Z" id="Shape" fill="#4D4545" fill-rule="nonzero"></path>
            <rect id="Rectangle-path" fill="#FDA57D" fill-rule="nonzero" x="334.27" y="486.13" width="20.97" height="52.25"></rect>
            <polygon id="Shape" fill="#FFFFFF" fill-rule="nonzero" points="332.85 471.2 332.85 486.13 360.57 486.13 358.88 469.07"></polygon>
            <polygon id="Shape" fill="#FDA57D" fill-rule="nonzero" points="217.68 486.13 217.68 539.45 234.74 539.45 236.72 490.04"></polygon>
            <path d="M283.79,411.49 L271.41,396.56 C271.41,396.56 221.97,413.62 221.97,469.07 L236.9,486.13 L234.77,539.45 L322.21,539.45 C322.21,539.45 328.61,484 326.48,466.94 L332.88,471.21 L358.47,471.21 C358.47,471.21 368.31,411.49 306.47,392.3 L283.79,411.49 Z" id="Shape" fill="#235067" fill-rule="nonzero"></path>
            <polygon id="Shape" fill="#FFFFFF" fill-rule="nonzero" points="221.94 469.07 215.55 486.13 236.49 495.73 236.87 486.13"></polygon>
            <polygon id="Shape" fill="#000000" fill-rule="nonzero" opacity="0.05" points="262.62 402.54 271 421.29 282.97 411.45 271.41 397.83"></polygon>
            <polygon id="Shape" fill="#FFFFFF" fill-rule="nonzero" points="262.62 401.27 271 420.01 282.97 410.18 271.41 396.56"></polygon>
            <polygon id="Shape" fill="#000000" fill-rule="nonzero" opacity="0.05" points="307.14 392.37 314.77 397.46 293.15 417.81 285.58 411.24"></polygon>
            <polygon id="Shape" fill="#FFFFFF" fill-rule="nonzero" points="307.14 391.1 314.77 396.18 293.15 416.54 285.58 409.97"></polygon>
            <path d="M238.439851,481.42 C238.416728,464.899447 243.777332,448.821223 253.71,435.62" id="Shape" fill="#000000" fill-rule="nonzero" opacity="0.05"></path>
            <polygon id="Shape" fill="#000000" fill-rule="nonzero" opacity="0.05" points="323.68 468.7 323.68 461.06 331.31 466.15 326.22 464.88"></polygon>
            <polygon id="Shape" fill="#000000" fill-rule="nonzero" opacity="0.05" points="333.86 486.51 334.27 487.88 355.24 487.88 355.48 486.51"></polygon>
            <polygon id="Shape" fill="#000000" fill-rule="nonzero" opacity="0.05" points="217.68 487.11 217.68 488.57 236.38 496.6 235.9 495.41"></polygon>
            <path d="M325.55,354.01 C322.978787,358.845926 319.784929,363.324052 316.05,367.33 L316.05,345.3 L286.79,333.85 C264.86,338.24 261.4,320.6 255.25,314.95 C254.702159,314.45038 253.853903,314.486096 253.35,315.03 C253.106219,315.2907 252.976519,315.637885 252.98966,315.994565 C253.0028,316.351246 253.157697,316.687945 253.42,316.93 C258.52,321.71 262.86,340.93 285.55,336.37 L314.81,347.82 L314.81,369.82 C319.176173,365.12923 322.798164,359.797416 325.55,354.01 Z" id="Shape" fill="#000000" fill-rule="nonzero" opacity="0.05"></path>
            <ellipse id="Oval" fill="#FDA57D" fill-rule="nonzero" cx="316.12" cy="352.43" rx="3.56" ry="5.93"></ellipse>
            <g id="Group" opacity="0.5" transform="translate(384.000000, 353.000000)" fill="url(#linearGradient-5)" fill-rule="nonzero">
                <rect id="Rectangle-path" x="0.95" y="0.98" width="436.38" height="427.61"></rect>
            </g>
            <rect id="Rectangle-path" fill="#FFFFFF" fill-rule="nonzero" x="387.14" y="357.27" width="432" height="355.73"></rect>
            <g id="Group" opacity="0.5" transform="translate(431.000000, 392.000000)" fill="#55A8B9" fill-rule="nonzero">
                <rect id="Rectangle-path" x="0" y="0.24" width="344.28" height="267.27"></rect>
            </g>
            <g id="Group" opacity="0.5" transform="translate(527.000000, 394.000000)" fill="url(#linearGradient-6)" fill-rule="nonzero">
                <path d="M106.48,165.08 L107.48,164.33 L108.91,163.27 L175.67,113.68 L152.72,21.89 C152.72,21.89 152.72,21.78 152.72,21.59 C152.91,18.79 153.98,-2.88 142.27,1.03 C130.83,4.84 135.07,20.85 135.89,23.57 L136.02,23.97 L150.62,101.16 L104.22,128.22 L97.78,127.5 C105.118937,117.433038 109.015152,105.26745 108.89,92.81 C108.89,64.01 89.28,40.66 65.08,40.66 C40.88,40.66 21.27,64.01 21.27,92.81 C21.27,114.38 32.27,132.9 47.96,140.81 L31.35,149.12 L31.35,149.21 C26.59,148.21 8.53,148.51 15.85,214.79 C17.6466968,230.847103 13.8268961,247.030902 5.04,260.59 L0.46,266.96 L114.81,267.66 L115.16,267.66 C115.16,267.66 98.97,241.71 106.48,165.08 Z" id="Shape"></path>
            </g>
            <path d="M560.37,543.67 C560.37,543.67 536.77,533.48 543.65,603.51 C545.518291,622.180308 540.979667,640.930787 530.78,656.68 L529.33,658.91 L551.27,658.91 L567.79,641.41 L560.37,543.67 Z" id="Shape" fill="#3AD29F" fill-rule="nonzero"></path>
            <path d="M678.22,418.52 C678.22,418.52 678.22,418.42 678.22,418.23 L661.72,420.17 L661.84,420.57 L676.15,496.23 L627.07,524.86 L629.07,561.67 L700.64,508.5 L678.22,418.52 Z" id="Shape" fill="#3AD29F" fill-rule="nonzero"></path>
            <ellipse id="Oval" fill="#FFFF00" fill-rule="nonzero" cx="592.34" cy="488.04" rx="42.94" ry="51.12"></ellipse>
            <rect id="Rectangle-path" fill="#FDA57D" fill-rule="nonzero" x="583.14" y="505.42" width="30.67" height="44.99"></rect>
            <path d="M592.34,543.3 L584.16,531.03 L559.62,543.3 L559.62,563.6 C559.62,563.6 550.71,579.3 557.97,597.38 C555.97,623.96 550.55,658.8 550.55,658.8 L641.46,659.47 C641.46,659.47 625.1,633.24 633.28,555.54 L631.28,522.82 L612.88,520.82 L592.34,543.3 Z" id="Shape" fill="#3AD29F" fill-rule="nonzero"></path>
            <polygon id="Shape" fill="#000000" fill-rule="nonzero" opacity="0.05" points="631.19 522.81 633.24 524.85 635.28 557.1 632.9 558.87"></polygon>
            <path d="M584.16,512.58 C587.36,513.71 588.75,514.58 592.34,514.58 C599.894517,514.581257 607.181044,511.780665 612.79,506.72 L612.79,506.4 L584.16,506.4 L584.16,512.58 Z" id="Shape" fill="#000000" fill-rule="nonzero" opacity="0.05"></path>
            <circle id="Oval" fill="#FDA57D" fill-rule="nonzero" cx="593.36" cy="482.93" r="30.67"></circle>
            <ellipse id="Oval" fill="#FDA57D" fill-rule="nonzero" cx="624.04" cy="482.93" rx="3.07" ry="5.11"></ellipse>
            <circle id="Oval" fill="#FFFF00" fill-rule="nonzero" cx="565.81" cy="473.78" r="1"></circle>
            <g id="Group" transform="translate(0.970000, 0.300000)"></g>
            <polygon id="Shape" fill="#000000" fill-rule="nonzero" opacity="0.05" points="566.58 473.33 566.58 474.77 619.23 474.77 619.23 476.21 565.86 476.21"></polygon>
            <rect id="Rectangle-path" fill="#FFFF00" fill-rule="nonzero" x="565.76" y="449.19" width="53.17" height="26.58"></rect>
            <path d="M667.97,398.07 C656.76,401.81 660.91,417.5 661.71,420.17 L678.21,418.23 C678.43,415.48 679.48,394.24 667.97,398.07 Z" id="Shape" fill="#FDA57D" fill-rule="nonzero"></path>
            <g id="Group" opacity="0.05" transform="translate(550.000000, 520.000000)" fill="#000000" fill-rule="nonzero">
                <path d="M2.36,138.8 C2.36,138.8 7.74,103.96 9.78,77.38 C2.57,59.38 11.47,43.6 11.47,43.6 L11.47,23.3 L34.36,11.85 L33.81,11.03 L9.28,23.3 L9.28,43.6 C9.28,43.6 0.38,59.35 7.59,77.38 C5.59,103.96 0.17,138.8 0.17,138.8 L91.08,139.47 L2.36,138.8 Z" id="Shape"></path>
                <polygon id="Shape" points="44.19 23.25 64.44 0.98 62.45 0.76 43.26 21.86"></polygon>
            </g>
            <polygon id="Shape" fill="#000000" fill-rule="nonzero" opacity="0.05" points="576.46 535.99 592.17 572.17 620.97 522.76 613.01 521.74 593.27 541.47 584.5 531.61"></polygon>
            <polygon id="Shape" fill="#FFFFFF" fill-rule="nonzero" points="576.46 534.89 592.17 571.08 620.97 521.67 613.01 520.64 593.27 540.38 584.5 530.51"></polygon>
            <text id="90-€" font-family="Avenir-Heavy, Avenir" font-size="52" font-weight="600" fill="#30AABC">
                <tspan x="543" y="763">90 €</tspan>
            </text>
            <text id="99-€" font-family="Avenir-Heavy, Avenir" font-size="52" font-weight="600" fill="#30AABC">
                <tspan x="896" y="534">99 €</tspan>
            </text>
            <text id="95-€" font-family="Avenir-Heavy, Avenir" font-size="52" font-weight="600" fill="#30AABC">
                <tspan x="215" y="644">95 €</tspan>
            </text>
        </g>
    </g>
</svg>