<?xml version="1.0" encoding="UTF-8"?>
<svg width="1011px" height="852px" viewBox="0 0 1011 852" version="1.1" xmlns="http://www.w3.org/2000/svg" xmlns:xlink="http://www.w3.org/1999/xlink">
    <!-- Generator: Sketch 48.1 (47250) - http://www.bohemiancoding.com/sketch -->
    <title>undraw_add_to_cart_vkjp</title>
    <desc>Created with Sketch.</desc>
    <defs>
        <linearGradient x1="49.9994744%" y1="100%" x2="49.9994744%" y2="0%" id="linearGradient-1">
            <stop stop-color="#808080" stop-opacity="0.25" offset="0%"></stop>
            <stop stop-color="#808080" stop-opacity="0.12" offset="54%"></stop>
            <stop stop-color="#808080" stop-opacity="0.1" offset="100%"></stop>
        </linearGradient>
        <rect id="path-2" x="528" y="156" width="186" height="188"></rect>
        <linearGradient x1="47565%" y1="86171%" x2="47565%" y2="22328%" id="linearGradient-3">
            <stop stop-color="#808080" stop-opacity="0.25" offset="0%"></stop>
            <stop stop-color="#808080" stop-opacity="0.12" offset="54%"></stop>
            <stop stop-color="#808080" stop-opacity="0.1" offset="100%"></stop>
        </linearGradient>
    </defs>
    <g id="Page-1" stroke="none" stroke-width="1" fill="none" fill-rule="evenodd">
        <g id="undraw_add_to_cart_vkjp">
            <path d="M983.16,582.74 C982.16,583.47 981.24,584.18 980.26,584.87 C976.644161,587.427234 972.85878,589.735882 968.93,591.78 C948.35,602.63 922.98,607.93 898.27,611.53 C842.85,619.61 786.27,621.18 729.93,622.72 C577.7,626.9 425.1,631.07 273.24,621.44 C213.24,617.64 151.92,611.28 97.55,591.78 C89.7566667,588.993333 82.1166667,585.92 74.63,582.56 C59.48,575.75 44.93,567.46 32.83,557.56 C21.46,548.28 12.24,537.62 6.73,525.5 C-4.76,500.26 1.32,471.91 14.44,447.17 C19.8890026,437.161355 26.034117,427.547709 32.83,418.4 C42.96,404.47 54.13,390.94 64.32,377.02 C100.58,327.54 124.24,264.94 90.77,214.19 C81.15,199.61 67.25,186.81 59.41,171.59 C49.41,152.12 50.18,130.5 53.36,109.5 C53.7733333,106.833333 54.21,104.193333 54.67,101.58 C60.1,70.44 70.32,36.89 101.83,17.45 C134.56,-2.75 181.04,-1.73 221.66,5.45 C284.83,16.73 343.1,40.21 401.99,61.41 C460.88,82.61 522.49,101.98 587.21,104.06 C644.36,105.9 711.02,92.13 748.95,56.34 C785.79,21.58 855.04,18.93 904.95,39.93 C939.21,54.34 964.77,80.3 975.55,109.5 C977.733283,115.362335 979.304962,121.434581 980.24,127.62 C981.104054,133.272915 981.385529,138.999598 981.08,144.71 C980.93,147.53 980.64,150.32 980.24,153.08 C971.9,210.7 911.87,256.15 875.38,307.62 C857.55,332.76 844.96,362.96 857.22,390.07 C875.92,431.38 940.95,446.07 980.22,476.81 C987.610014,482.404626 994.116175,489.079341 999.52,496.61 C1018.57,523.97 1011.54,560.92 983.16,582.74 Z" id="Shape" fill="#30AABC" fill-rule="nonzero" opacity="0.1"></path>
            <ellipse id="Oval" fill="#30AABC" fill-rule="nonzero" opacity="0.1" cx="302.16" cy="837.18" rx="111.53" ry="14.52"></ellipse>
            <g id="1cf578eb-5ffb-4cd7-95b8-45aaaddab7e0" transform="translate(30.000000, 95.000000)" fill-rule="nonzero">
                <path d="M952.1,489.67 L952.1,0.54 L0.75,0.54 L0.75,461.61 C12.9,471.75 27.51,480.28 42.75,487.29 C50.2566667,490.75 57.9233333,493.913333 65.75,496.78 L940.75,496.78 L952.1,489.67 Z" id="Shape" fill="url(#linearGradient-1)"></path>
                <path d="M950.26,489.87 L950.26,14.54 L2.83,14.54 L2.83,462.64 C14.93,472.5 29.48,480.79 44.63,487.64 C52.11,490.973333 59.75,494.046667 67.55,496.86 L938.93,496.86 L950.26,489.87 Z" id="Shape" fill="#FFFFFF"></path>
                <rect id="Rectangle-path" fill="#5A5773" x="2.84" y="1.93" width="947.42" height="25.14"></rect>
            </g>
            <g id="no-coice">
                <use fill="#D8D8D8" fill-rule="evenodd" xlink:href="#path-2"></use>
                <rect stroke="#979797" stroke-width="0.5" x="528.25" y="156.25" width="185.5" height="187.5"></rect>
            </g>
            <rect id="choice" fill="#30AABC" x="296" y="156" width="186" height="188"></rect>
            <g id="6703b009-63cb-4af0-a0d7-9948e224c180" transform="translate(45.000000, 103.000000)" fill="#FFFFFF" fill-rule="nonzero">
                <circle id="Oval" cx="6.76" cy="6.5" r="6.5"></circle>
                <circle id="Oval" cx="24.26" cy="6.5" r="6.5"></circle>
                <circle id="Oval" cx="41.76" cy="6.5" r="6.5"></circle>
            </g>
            <g id="2796dd85-6618-42ad-b8a0-d6b4cc80ab2d" transform="translate(238.000000, 201.000000)" fill-rule="nonzero">
                <path d="M165.47,222.74 C165.47,222.74 137.36,171.36 142.1,163 C146.84,154.64 150.33,142.54 150.33,142.54 C150.33,142.54 160.71,135.44 160.71,132.54 C160.71,129.64 168.93,122.93 173.26,120.01 C177.59,117.09 175.42,103.3 173.26,101.63 C171.1,99.96 167.67,94.11 167.67,94.11 C167.67,94.11 170.67,85.76 167.67,83.25 C164.67,80.74 168.11,78.25 167.67,75.73 C167.23,73.21 167.67,64.04 167.67,64.04 C164.16,59.16 160.27,56.88 156.61,56.04 L156.29,54.72 L154.44,46.93 C154.44,46.93 163.44,29.68 148.84,20.65 C147.807287,20.0034846 146.727601,19.4352284 145.61,18.95 C145.61,18.95 145.61,18.53 145.53,17.82 C145.33,15.24 144.72,8.82 143.41,4.61 C142.65,2.19 141.66,0.56 140.41,0.93 C140.103042,1.0189042 139.821858,1.18007083 139.59,1.4 C138.995033,1.93911283 138.473861,2.55443149 138.04,3.23 C138.04,3.23 138.04,3.23 138.04,3.23 C138.022684,3.2701658 137.999051,3.30730193 137.97,3.34 C136.312329,6.31540182 135.150446,9.54098 134.53,12.89 C134.086562,14.8700845 133.752721,16.8731292 133.53,18.89 C132.897557,20.0911415 132.339831,21.3301623 131.86,22.6 C130.09,27.19 128.02,35.14 131.79,41.02 C134.99,46.02 139.3,52.89 142.43,57.89 L142.53,58.05 L142.72,58.36 L142.39,58.57 L142.39,59.34 L142.68,63.55 L145.1,99.93 C144.372521,99.7191282 143.63052,99.5620379 142.88,99.46 C141.810698,99.3035835 140.730554,99.2333574 139.65,99.25 C137.54,90.96 131.75,83.25 130.65,74.59 C130.54359,73.7239554 130.486831,72.8525306 130.48,71.98 C130.57,66.53 131.93,61.06 131.82,55.62 C131.82,54.62 131.82,53.62 131.72,52.62 C131.72,52.35 131.67,52.07 131.64,51.79 C130.528876,43.7549126 125.526636,36.7847007 118.27,33.16 C115.76,31.91 113.04,31.08 110.6,29.71 C104.96,26.55 101.35,20.85 96.23,16.94 C92.42,14.03 86.73,12.47 82.48,13.94 C80.2268522,14.2796177 77.9936208,14.7402842 75.79,15.32 C70.4183918,16.7256115 65.2664598,18.8658001 60.48,21.68 C59.83,22.07 59.18,22.47 58.56,22.93 C57.2062646,23.8134124 56.1339596,25.06617 55.47,26.54 C55.040189,27.7889386 54.87668,29.1140427 54.99,30.43 C54.99,31.38 54.99,32.35 55.05,33.3 C54.77,49.3 37.53,61.68 36.11,77.3 C36.11,77.67 36.05,78.04 36.03,78.41 C36.03,78.52 36.03,78.63 36.03,78.75 C36.03,79.2 36.03,79.66 36.03,80.12 C36.03,80.33 36.03,80.53 36.03,80.74 C36.03,80.95 36.03,81.16 36.03,81.37 C36.28,88.22 39.84,94.6 40.49,101.42 C40.55,102.03 40.58,102.63 40.59,103.24 C40.4794463,106.373253 39.8823116,109.470256 38.82,112.42 C36.6529459,112.99755 34.566723,113.844134 32.61,114.94 C27.37,118.31 17.91,124.13 14.46,135.26 C13.5728736,138.149553 13.1311392,141.157393 13.15,144.18 C13.0916717,154.860751 12.1147376,165.516693 10.23,176.03 C9.79389244,178.678497 9.17915631,181.294467 8.39,183.86 C8.31575111,184.109532 8.29530066,184.371979 8.33,184.63 L6.25,211.63 L5.88,216.38 L5.36,223.14 C5.36,223.14 5.51,223.55 5.73,224.24 C6.05594278,225.265457 6.32962817,226.306797 6.55,227.36 C7.13147427,229.648352 7.22347888,232.033657 6.82,234.36 C6.61449066,235.348427 6.10380476,236.247375 5.36,236.93 C5.29603045,236.986399 5.23896628,237.050177 5.19,237.12 C4.6,237.95 4.07,240.42 3.61,244 C3.43,245.4 3.26,247 3.09,248.66 C2.09,259.31 1.47,275.25 1.09,288.43 C0.73,301.43 0.6,311.7 0.6,311.7 C2.28383415,312.786561 4.08531537,313.678915 5.97,314.36 C5.83,314.71 5.68,315.07 5.54,315.45 C3.83986821,319.862396 2.7432955,324.484148 2.28,329.19 C1.44,339.02 4.19,349.94 17.9,355.56 C18.7759526,355.924187 19.6744847,356.231491 20.59,356.48 C23.59,357.28 25.8,357.06 27.43,356.06 C27.43,356.65 27.5,357.22 27.53,357.79 C27.67,360.23 27.79,362.46 27.85,364.33 C28.28,376.03 31.18,396.49 31.18,396.49 C31.18,396.49 32.18,404.85 31.31,407.35 C30.44,409.85 31.31,419.88 31.31,419.88 C31.31,419.88 34.31,424.88 31.31,427.4 C28.31,429.92 27.42,442.4 28.31,444.11 C28.3377331,444.169892 28.3546602,444.234215 28.36,444.3 C29.02,448.45 25.29,510.11 25.29,510.11 C25.29,510.11 21.76,519.55 18.95,529.35 C16.21,538.89 14.15,548.77 16.69,550.62 C17.95,551.54 20.88,552.23 24.6,552.76 C24.6,553.17 24.54,553.58 24.5,554 C24.14,558.41 23.57,563.16 22.75,564.36 C21.56,566.06 20.31,579.24 19.7,586.36 L19.64,587.15 C18.358969,590.187808 17.2832194,593.30815 16.42,596.49 C16.42,596.49 6.85,620.49 10.09,626.72 C10.3917426,627.279777 10.7953204,627.778315 11.28,628.19 C11.3759474,628.291199 11.4795908,628.384812 11.59,628.47 C16.2,632.16 27.75,632.93 31.94,633.1 L31.78,639.04 L31.78,639.26 L37.23,639.26 L37.23,639.11 C37.23,638.36 37.35,634.92 37.53,630.32 C37.53,629.5 37.59,628.64 37.63,627.76 C37.63,627.07 37.7,626.37 37.73,625.65 C39.3355731,621.383973 40.1390613,616.857995 40.1,612.3 C40.105755,607.069386 40.8120335,601.863104 42.2,596.82 C42.8854486,594.222326 43.8128368,591.694608 44.97,589.27 C44.97,589.27 46.67,580.27 44.3,573.9 C43.8481571,572.635163 43.1705094,571.462833 42.3,570.44 C42.3,570.23 42.3,570.02 42.3,569.8 C42.3,569.58 42.3,569.32 42.3,569.07 C42.3,568.82 42.3,568.66 42.3,568.44 C42.2466559,564.132279 42.6759993,559.832136 43.58,555.62 C43.5752993,555.553416 43.5752993,555.486584 43.58,555.42 C43.66,555.07 43.75,554.74 43.84,554.42 L43.9,554.2 L45.67,554.26 C51.1,554.41 55.09,554.41 55.09,554.41 C55.09,554.41 59.42,532.27 58.99,522.67 C58.99,522.25 58.99,521.81 58.99,521.37 C58.84,511.83 61.61,498.86 61.61,498.86 L65.1,465.01 C65.1,465.01 63.37,459.15 65.1,455.01 C66.17,452.43 68.38,447.64 69.92,444.34 C70.64,442.81 71.21,441.61 71.45,441.09 L71.59,440.81 C71.044655,440.623088 70.5267368,440.364129 70.05,440.04 C68.64,439.1 67.38,437.26 71.6,434.55 C78.09,430.37 75.93,419.93 75.93,419.93 C75.93,419.93 74.02,416.17 76.27,412.83 C78.52,409.49 76.27,396.96 76.27,396.96 C78.1236364,393.647523 79.6123503,390.143681 80.71,386.51 C82.32,381.51 86.39,357.06 88.31,345.27 C88.94,341.4 89.31,338.9 89.31,338.9 L89.37,339.51 L89.43,340.17 L89.97,345.74 L90.04,346.48 L91.04,357.01 C91.04,357.01 93.04,384.69 91.79,395.54 C91.79,395.61 91.79,395.68 91.79,395.74 C91.692496,396.864011 91.4470425,397.970233 91.06,399.03 C88.76,404.23 89.18,424.89 89.3,429.46 C89.3,429.83 89.3,430.13 89.3,430.38 C89.3,430.63 87.67,434.46 88.08,437.44 C88.1630717,438.195171 88.4347375,438.91732 88.87,439.54 C89.468895,440.512586 89.7388715,441.652097 89.64,442.79 L89.64,442.89 C89.6294298,443.371999 89.5893548,443.852899 89.52,444.33 C89.2166877,446.265486 88.7071198,448.162957 88,449.99 C88,449.99 85.68,456.09 86.56,459.28 C86.56,459.28 86.56,459.28 86.56,459.28 C86.665711,459.693581 86.8602173,460.079181 87.13,460.41 C87.3329904,460.778421 87.4460618,461.18959 87.46,461.61 C87.4552907,461.646515 87.4552907,461.683485 87.46,461.72 C88.27,468.45 86.18,498.16 84.94,514.42 C84.44,520.84 84.08,525.16 84.08,525.16 L80.65,560.66 L80.99,560.9 C81.38,561.18 82.11,561.66 83.09,562.24 C83.09,562.24 83.09,562.24 83.09,562.32 L82.94,563.39 C82.45,566.81 81.79,570.79 81.07,573.83 C81.01,574.06 80.96,574.28 80.9,574.49 C79.587686,574.71922 78.3376841,575.219902 77.23,575.96 C69.95,588.89 73.17,599.14 77.23,602.12 C78.38,602.96 79.16,605.31 79.68,608.23 L80.68,621.12 C80.68,621.64 80.68,622.12 80.68,622.6 C80.6813575,623.000839 80.7454672,623.398994 80.87,623.78 L81.18,627.69 L81.6,633.13 L84.92,633.13 L84.92,626.54 L85.1,626.54 C90.34,626.72 98.79,626.94 102.47,626.65 L102.57,626.65 C102.96,626.65 103.29,626.58 103.57,626.54 C103.769049,626.510115 103.963781,626.456396 104.15,626.38 C106.1,625.44 110.96,611.66 106.58,608.53 C102.2,605.4 101.23,596.53 101.23,596.53 C100.85,595.37 100.47,594.27 100.08,593.22 C100.08,592.99 100.08,592.77 100.08,592.54 C99.96,588.25 100.01,583.6 100.6,581.08 C101.26,578.31 101.6,572.49 101.74,567.39 C101.74,567 101.74,566.62 101.74,566.24 L101.74,566.12 C102.499198,565.928105 103.244291,565.684195 103.97,565.39 L104.13,565.32 C105.469497,564.759262 106.724781,564.015515 107.86,563.11 L120.1,508.87 L121.39,502.56 L128.74,466.67 C128.74,466.67 126.15,454.14 128.74,452.06 C129.69,451.3 129.95,448.06 129.89,444.31 C129.79,437.75 128.74,429.5 128.74,429.5 C128.74,429.5 132.2,424.07 133.94,420.73 C135.68,417.39 133.94,408.62 133.94,408.62 L137.35,388.54 C137.35,388.54 141.25,364.73 150.76,344.68 C157.76,329.93 153.3,290.1 148.76,268.9 C148.64,268.35 148.52,267.81 148.4,267.29 L148.4,267.21 C150.54,266.15 153.16,264.87 155.96,263.53 L157.02,263.03 C160.57,261.36 164.33,259.64 167.7,258.21 L167.92,258.12 C170.345593,257.062175 172.825768,256.134196 175.35,255.34 C176.093682,255.112581 176.857007,254.955229 177.63,254.87 C183.64,254.48 165.47,222.74 165.47,222.74 Z M30.16,290.69 L31.96,290.69 C31.75,291.08 31.55,291.48 31.35,291.88 C31.23,292.12 31.11,292.35 31,292.59 C30.34,293.96 29.73,295.36 29.23,296.73 C29.43,295.25 29.68,293.64 29.96,291.92 C30.03,291.54 30.1,291.09 30.16,290.69 Z M25.3,316.76 C25.3044243,316.713438 25.3044243,316.666562 25.3,316.62 L25.15,316.15 C25.04,315.83 24.94,315.51 24.84,315.15 C25.46,314.963333 26.09,314.753333 26.73,314.52 L26.86,314.52 C26.86,314.63 26.86,314.74 26.86,314.85 C26.81,315.32 26.75,315.79 26.69,316.25 C26.695411,316.309878 26.695411,316.370122 26.69,316.43 C26.69,316.81 26.6,317.17 26.56,317.53 C26.47,318.25 26.38,318.95 26.3,319.62 C26.11,318.99 25.92,318.37 25.72,317.76 C25.52,317.43 25.41,317.09 25.3,316.76 Z" id="Shape" fill="url(#linearGradient-3)"></path>
                <path d="M155.1,62.46 L144.3,66.28 L140.38,59.78 C137.38,54.78 133.22,47.94 130.15,42.97 C124.73,34.23 131.82,20.91 131.82,20.91 C131.82,20.91 133.1,7.54 137.66,3.42 C142.22,-0.7 143.49,20.91 143.49,20.91 C161.8,29.23 151.99,48.8 151.99,48.8 L153.77,56.56 L155.1,62.46 Z" id="Shape" fill="#EFB7B9"></path>
                <path d="M155.1,62.46 L144.3,66.28 L140.38,59.78 L140.38,59.21 C140.38,59.21 146.57,54.96 153.79,56.56 L155.1,62.46 Z" id="Shape" fill="#000000" opacity="0.1"></path>
                <path d="M137.66,106.26 L143.07,101.68 L140.36,60.46 C140.36,60.46 154.36,50.88 164.72,65.87 C164.72,65.87 164.3,75.03 164.72,77.53 C165.14,80.03 161.81,82.53 164.72,85.02 C167.63,87.51 164.72,95.85 164.72,95.85 C164.72,95.85 168.01,101.68 170.09,103.34 C172.17,105 174.26,118.75 170.09,121.66 C165.92,124.57 158.1,131.24 158.1,134.15 C158.1,137.06 148.1,144.15 148.1,144.15 L139.32,132.54 L137.66,106.26 Z" id="Shape" fill="#FF6484"></path>
                <path d="M20.66,356.48 C0.48,347.92 4.96,327.01 8.76,316.48 C9.51939535,314.34651 10.4111267,312.262464 11.43,310.24 L22.75,303.37 C22.75,303.37 25.06,309.26 27.53,317.16 C33.26,335.54 39.85,364.63 20.66,356.48 Z" id="Shape" fill="#EFB7B9"></path>
                <path d="M48.4,547.27 C47.0338185,549.932416 46.0251037,552.763542 45.4,555.69 C44.4010754,560.398385 43.9646879,565.208718 44.1,570.02 C44.18,573.35 44.46,575.53 44.46,575.53 L21.98,590.99 C21.98,590.99 22.11,589.18 22.33,586.52 C22.91,579.44 24.12,566.3 25.26,564.6 C26.05,563.42 26.6,558.68 26.95,554.28 C27.3,549.88 27.44,546.02 27.44,546.02 C27.44,546.02 54.49,535.88 48.4,547.27 Z" id="Shape" fill="#EFB7B9"></path>
                <path d="M101.49,558.36 C101.49,558.36 101.49,562.66 101.33,567.66 C101.17,572.66 100.87,578.56 100.24,581.31 C99.66,583.83 99.62,588.46 99.73,592.73 C99.88,597.73 100.24,602.23 100.24,602.23 C100.24,602.23 77.29,580.53 79.63,578.81 C80.26,578.35 80.88,576.5 81.45,574.04 C82.15,571.04 82.78,567.04 83.25,563.64 C83.81,559.59 84.16,556.33 84.16,556.33 L101.49,558.36 Z" id="Shape" fill="#EFB7B9"></path>
                <path d="M48.4,547.27 C47.0338185,549.932416 46.0251037,552.763542 45.4,555.69 C39.2469194,555.528526 33.1058411,555.057932 27,554.28 C27.34,549.98 27.49,546.02 27.49,546.02 C27.49,546.02 54.49,535.88 48.4,547.27 Z" id="Shape" fill="#000000" opacity="0.1"></path>
                <path d="M101.49,558.36 C101.49,558.36 101.49,562.66 101.33,567.66 C94.17,569.49 86.81,565.83 83.25,563.66 C83.81,559.61 84.16,556.35 84.16,556.35 L101.49,558.36 Z" id="Shape" fill="#000000" opacity="0.1"></path>
                <path d="M148.48,345.66 C139.32,365.66 135.57,389.38 135.57,389.38 L132.24,409.38 C132.24,409.38 133.91,418.12 132.24,421.45 C130.57,424.78 127.24,430.2 127.24,430.2 C127.24,430.2 129.74,450.6 127.24,452.68 C124.74,454.76 127.24,467.25 127.24,467.25 L118.91,509.25 L107.25,563.37 C96.01,572.54 81.05,560.88 81.05,560.88 L84.35,525.49 C84.35,525.49 89.35,463.49 87.27,460.95 C85.19,458.41 88.1,450.54 88.1,450.54 C88.1,450.54 91.02,443.04 88.94,440.13 C86.86,437.22 89.35,430.97 89.35,430.97 C89.35,430.97 88.52,405.57 91.02,399.74 C93.52,393.91 91.02,357.85 91.02,357.85 L90.02,346.62 L89.44,340.4 L89.39,339.79 C89.39,339.79 89.01,342.28 88.39,346.14 C86.55,357.89 82.63,382.24 81.08,387.25 C80.0263189,390.860369 78.5950812,394.349639 76.81,397.66 C76.81,397.66 78.97,410.15 76.81,413.48 C74.65,416.81 76.48,420.56 76.48,420.56 C76.48,420.56 78.56,430.97 72.31,435.13 C66.06,439.29 72.31,441.38 72.31,441.38 C72.31,441.38 67.73,451.38 66.07,455.53 C64.41,459.68 66.07,465.53 66.07,465.53 L62.74,499.25 C62.74,499.25 59.82,513.4 60.24,522.98 C60.66,532.56 56.49,554.62 56.49,554.62 C56.49,554.62 24.43,554.62 19.49,550.87 C14.55,547.12 27.74,510.54 27.74,510.54 C27.74,510.54 31.49,446.42 30.65,444.76 C29.81,443.1 30.65,430.6 33.57,428.11 C36.49,425.62 33.57,420.61 33.57,420.61 C33.57,420.61 32.74,410.61 33.57,408.12 C34.4,405.63 33.44,397.29 33.44,397.29 C33.44,397.29 30.65,376.89 30.24,365.23 C29.83,353.57 27.74,327.35 27.74,327.35 C27.74,327.35 29.92,311.13 30.25,303.41 C30.37,300.57 31.64,297.02 33.25,293.68 C35.052053,289.908807 37.1241093,286.272682 39.45,282.8 C39.45,282.8 138.1,253.64 142.24,256.54 C143.34,257.31 144.94,262.54 146.52,270.11 C150.92,291.26 155.22,330.96 148.48,345.66 Z" id="Shape" fill="#444053"></path>
                <circle id="Oval" fill="#A1616A" cx="87.7" cy="62.46" r="28.73"></circle>
                <path d="M146.52,270.13 C143.21,271.83 140.99,273 140.99,273 C140.99,273 94.36,295.07 81.1,293.82 C70.84,292.82 44.65,293.39 33.24,293.67 C35.042053,289.898807 37.1141093,286.262682 39.44,282.79 C39.44,282.79 138.1,253.64 142.24,256.54 C143.34,257.33 144.94,262.54 146.52,270.13 Z" id="Shape" fill="#000000" opacity="0.1"></path>
                <path d="M67.71,108.34 C67.71,108.34 41.1,112.54 34.82,116.66 C28.54,120.78 16.1,128.74 16.1,145.81 C16.1,162.88 13.19,180.37 11.52,185.36 C9.85,190.35 37.75,230.74 37.75,230.74 L27.75,291.95 C27.75,291.95 67.75,290.7 81.07,291.95 C94.39,293.2 141,271.13 141,271.13 C141,271.13 168.48,256.56 174.31,256.13 C180.14,255.7 162.65,224.07 162.65,224.07 C162.65,224.07 135.58,172.87 140.16,164.54 C144.74,156.21 148.1,144.14 148.1,144.14 L143.1,101.68 C143.1,101.68 135.61,99.18 129.36,103.76 C123.11,108.34 101.88,105.84 101.88,105.84 L67.71,108.34 Z" id="Shape" fill="#FF6484"></path>
                <path d="M22.54,182.45 L12.1,185.36 L9.21,224.54 C9.21,224.54 12.96,234.95 9.21,238.28 C5.46,241.61 4.63,312.81 4.63,312.81 C4.63,312.81 16.71,321.55 30.86,314.89 C30.86,314.89 28.78,306.98 35.03,278.25 C41.28,249.52 41.27,234.95 41.27,234.95 C41.27,234.95 41.27,199.14 44.19,193.31 C47.11,187.48 44.19,172.91 44.19,172.91 C44.19,172.91 38.36,165 38.77,162.09 C39.18,159.18 22.54,182.45 22.54,182.45 Z" id="Shape" fill="#000000" opacity="0.1"></path>
                <path d="M27.53,317.19 C21.3989343,319.254209 14.7256247,319.012449 8.76,316.51 C9.51939535,314.37651 10.4111267,312.292464 11.43,310.27 L22.75,303.4 C22.75,303.4 25.1,309.29 27.53,317.19 Z" id="Shape" fill="#000000" opacity="0.1"></path>
                <path d="M21.91,182.45 L11.5,185.36 L8.59,224.54 C8.59,224.54 12.34,234.95 8.59,238.28 C4.84,241.61 4.01,312.81 4.01,312.81 C4.01,312.81 16.1,321.54 30.24,314.85 C30.24,314.85 28.16,306.94 34.4,278.21 C40.64,249.48 40.65,234.91 40.65,234.91 C40.65,234.91 40.65,199.1 43.56,193.27 C46.47,187.44 43.56,172.87 43.56,172.87 C43.56,172.87 37.73,164.96 38.15,162.05 C38.57,159.14 21.91,182.45 21.91,182.45 Z" id="Shape" fill="#FF6484"></path>
                <path d="M128.5,188.69 C128.5,188.69 123.09,235.32 107.26,244.07 C107.26,244.07 142.65,234.08 128.5,188.69 Z" id="Shape" fill="#000000" opacity="0.1"></path>
                <path d="M48.98,192.86 C48.98,192.86 68.54,202.43 63.98,209.09 C59.42,215.75 48.98,192.86 48.98,192.86 Z" id="Shape" fill="#000000" opacity="0.1"></path>
                <path d="M48.98,212.01 C48.98,212.01 61.47,224.92 58.98,229.5 C56.49,234.08 48.98,212.01 48.98,212.01 Z" id="Shape" fill="#000000" opacity="0.1"></path>
                <path d="M149.73,105.01 C149.73,105.01 154.63,113.33 155.1,118.75 C155.57,124.17 149.73,105.01 149.73,105.01 Z" id="Shape" fill="#000000" opacity="0.1"></path>
                <path d="M149.73,93.77 C149.73,93.77 152.19,91.68 158.47,93.77 C164.75,95.86 149.73,93.77 149.73,93.77 Z" id="Shape" fill="#000000" opacity="0.1"></path>
                <path d="M125.69,337.12 C115.373979,338.583473 104.854202,337.236113 95.24,333.22 L89.99,346.66 L89.41,340.44 C90.27,335.22 91.94,329.63 95.24,328.22 C95.24,328.22 106.8,337.43 125.69,337.12 Z" id="Shape" fill="#000000" opacity="0.1"></path>
                <path d="M40.28,354.61 C40.28,354.61 65.89,359.92 73.07,358.98 L40.28,354.61 Z" id="Shape" fill="#000000" opacity="0.1"></path>
                <path d="M42.94,361.32 C42.94,361.32 53.87,360.85 59.33,363.04 L42.94,361.32 Z" id="Shape" fill="#000000" opacity="0.1"></path>
                <path d="M44.19,365.85 C49.1769608,366.909466 54.2389931,367.578163 59.33,367.85 L44.19,365.85 Z" id="Shape" fill="#000000" opacity="0.1"></path>
                <path d="M43.56,423.15 C44.03,422.84 65.42,417.84 68.08,421.43 L43.56,423.15 Z" id="Shape" fill="#000000" opacity="0.1"></path>
                <path d="M43.56,429.71 C43.56,429.71 62.14,427.52 62.61,429.71 C63.08,431.9 43.56,429.71 43.56,429.71 Z" id="Shape" fill="#000000" opacity="0.1"></path>
                <path d="M43.56,435.64 C43.56,435.64 63.39,431.54 65.73,432.54 C68.07,433.54 43.56,435.64 43.56,435.64 Z" id="Shape" fill="#000000" opacity="0.1"></path>
                <path d="M44.5,575.54 L22.02,591 C22.02,591 22.15,589.19 22.37,586.53 C27.37,574.23 33.88,567.74 33.88,567.74 C38.95,566.42 42.15,567.64 44.14,570.03 C44.22,573.35 44.5,575.54 44.5,575.54 Z" id="Shape" fill="#000000" opacity="0.1"></path>
                <path d="M46.69,589.43 C43.5132544,596.677308 41.91454,604.517486 42,612.43 C42.1266118,618.918118 40.4808659,625.317857 37.24,630.94 C36.7711141,631.732122 36.2429385,632.487614 35.66,633.2 C35.66,633.2 20.04,633.07 14.57,628.54 C13.9553924,628.053572 13.4538213,627.439403 13.1,626.74 C9.97,620.5 19.19,596.61 19.19,596.61 C24.03,578.19 33.86,568.35 33.86,568.35 C51.37,563.82 46.69,589.43 46.69,589.43 Z" id="Shape" fill="#444053"></path>
                <path d="M37.24,630.89 C36.7711141,631.682122 36.2429385,632.437614 35.66,633.15 C35.66,633.15 20.04,633.02 14.57,628.49 C17.26,619.59 25.84,592.66 29.86,597.24 C33.64,601.54 36.27,622.23 37.24,630.89 Z" id="Shape" fill="#000000" opacity="0.1"></path>
                <path d="M35.1,598.91 L34.01,639.25 L39.25,639.25 C39.25,639.25 40.1,603.86 42.44,598.91 C44.78,593.96 35.1,598.91 35.1,598.91 Z" id="Shape" fill="#444053"></path>
                <path d="M100.24,602.23 C100.24,602.23 77.29,580.53 79.63,578.81 C80.26,578.35 80.88,576.5 81.45,574.04 C85.86,573.27 93.45,575.11 99.73,592.73 C99.88,597.73 100.24,602.23 100.24,602.23 Z" id="Shape" fill="#000000" opacity="0.1"></path>
                <path d="M103.67,626.43 C103.493945,626.505751 103.309216,626.55949 103.12,626.59 C100.42,627.06 90.47,626.79 84.9,626.59 C82.7788024,626.519977 81.0942312,624.782349 81.09,622.66 C81.09,621.16 81.09,619.33 80.97,617.38 C80.71,611.22 79.97,603.89 77.76,602.24 C73.85,599.24 70.76,589.06 77.76,576.17 C77.76,576.17 91.18,565.92 100.86,596.73 C100.86,596.73 101.8,605.52 106.01,608.64 C110.22,611.76 105.55,625.54 103.67,626.43 Z" id="Shape" fill="#444053"></path>
                <path d="M103.1,626.59 C100.4,627.06 90.45,626.79 84.88,626.59 C82.7588024,626.519977 81.0742312,624.782349 81.07,622.66 C81.07,621.16 81.07,619.33 80.95,617.38 C82.64,609.92 85.07,602.24 88.2,600.49 C88.22,600.48 97.69,599.41 103.1,626.59 Z" id="Shape" fill="#000000" opacity="0.1"></path>
                <polygon id="Shape" fill="#444053" points="79.46 599.58 81.98 633.15 85.18 633.15 85.18 596.72"></polygon>
                <path d="M87.28,16.68 C78.2086628,17.3552551 69.4275466,20.176043 61.66,24.91 C59.66,26.12 57.66,27.59 56.83,29.76 C56.11,31.64 56.41,33.76 56.44,35.76 C56.71,52.98 37.51,66.01 38.11,83.22 C38.35,90.05 41.78,96.41 42.41,103.22 C43.46,114.58 36.74,125.03 30.3,134.44 C36.9347985,134.843778 43.470298,132.677215 48.55,128.39 C55.3453713,151.040265 56.2232927,175.053999 51.1,198.14 L60.31,198.14 C61.2196024,198.073713 62.1333925,198.185813 63,198.47 C63.8082274,198.853817 64.5322202,199.394263 65.13,200.06 C73.74,208.63 79.51,221.3 76.22,233 L95.82,225.65 C100.51,223.89 105.27,222.1 109.35,219.2 C113.43,216.3 116.85,212.09 117.71,207.15 C118.24,204.15 118.07,200.57 120.54,198.83 C121.756876,198.182745 123.055138,197.701783 124.4,197.4 C129.78,195.5 132.16,189.28 133.26,183.68 C134.599435,176.809435 135.019782,169.791323 134.51,162.81 C133.64,151.11 130.18,139.23 133.03,127.81 C134.64,121.4 138.22,115.43 138.51,108.81 C138.98,97.9 130.45,88.5 129.18,77.65 C128.29,70.09 131.02,62.44 130.13,54.88 C129.127143,46.9607822 124.323134,40.0291233 117.26,36.31 C114.85,35.07 112.26,34.24 109.88,32.87 C104.45,29.72 100.98,24.05 96.05,20.15 C91.12,16.25 82.91,14.78 79.2,19.85 L87.28,16.68 Z" id="Shape" fill="#000000" opacity="0.1"></path>
                <path d="M87.28,15.43 C78.2086628,16.1052551 69.4275466,18.926043 61.66,23.66 C59.66,24.87 57.66,26.34 56.83,28.51 C56.11,30.39 56.41,32.51 56.44,34.51 C56.71,51.73 37.51,64.76 38.11,81.98 C38.35,88.8 41.78,95.16 42.41,101.98 C43.46,113.34 36.74,123.79 30.3,133.21 C36.9329048,133.599316 43.4631774,131.434486 48.55,127.16 C55.3441219,149.803632 56.2220477,173.810598 51.1,196.89 L60.31,196.89 C61.2202562,196.826932 62.1340622,196.942431 63,197.23 C63.8098765,197.606644 64.534594,198.144228 65.13,198.81 C73.74,207.39 79.51,220.05 76.22,231.75 L95.82,224.4 C100.51,222.64 105.27,220.85 109.35,217.95 C113.43,215.05 116.85,210.84 117.71,205.9 C118.24,202.9 118.07,199.32 120.54,197.58 C121.756876,196.932745 123.055138,196.451783 124.4,196.15 C129.78,194.25 132.16,188.03 133.26,182.43 C134.611246,175.554251 135.041689,168.529285 134.54,161.54 C133.67,149.84 130.21,137.96 133.06,126.54 C134.67,120.13 138.25,114.16 138.54,107.54 C139.01,96.63 130.48,87.23 129.21,76.38 C128.32,68.82 131.05,61.18 130.16,53.61 C129.153879,45.6920335 124.350816,38.7617401 117.29,35.04 C114.88,33.8 112.29,32.97 109.91,31.61 C104.48,28.45 101.01,22.78 96.08,18.88 C91.15,14.98 82.94,13.51 79.23,18.58 L87.28,15.43 Z" id="Shape" fill="#925978"></path>
                <g id="Group" opacity="0.1" transform="translate(30.000000, 30.000000)" fill="#000000">
                    <path d="M26.4199982,0.35 C26.3798032,0.735357349 26.3597759,1.1225521 26.3599964,1.51 C26.3899982,1.13 26.4099982,0.74 26.4199982,0.35 Z" id="Shape"></path>
                    <path d="M99.1,40.38 C99.46,35.08 100.64,29.76 100.2,24.48 C99.87,29.78 98.69,35.1 99.1,40.38 Z" id="Shape"></path>
                    <path d="M12.41,66.73 C11.83,60.53 8.94,54.73 8.26,48.54 C8.12436753,49.6746303 8.07422623,50.8178518 8.11,51.96 C8.35,58.71 11.7,65.02 12.38,71.74 C12.5452549,70.0745392 12.5552982,68.3973204 12.41,66.73 Z" id="Shape"></path>
                    <path d="M103.1,91.36 C102.16373,95.4292291 101.826841,99.6133933 102.1,103.78 C102.199683,101.35001 102.534581,98.9353945 103.1,96.57 C104.71,90.16 108.29,84.19 108.58,77.57 C108.627249,76.3942506 108.57372,75.2166145 108.42,74.05 C107.64,80 104.53,85.54 103.1,91.36 Z" id="Shape"></path>
                    <path d="M18.55,91.9 C14.3791409,95.3953624 9.21666838,97.4939284 3.79,97.9 C2.65,99.68 1.47,101.42 0.3,103.14 C6.93290479,103.529316 13.4631774,101.364486 18.55,97.09 C22.2031012,109.246262 24.161566,121.848411 24.37,134.54 C24.6666773,120.110062 22.7029112,105.722607 18.55,91.9 Z" id="Shape"></path>
                    <path d="M103.29,147.19 C102.19,152.79 99.81,159.01 94.43,160.9 C93.0832261,161.200178 91.784311,161.684748 90.57,162.34 C88.1,164.08 88.27,167.68 87.74,170.66 C86.88,175.6 83.47,179.8 79.38,182.66 C75.29,185.52 70.54,187.36 65.85,189.12 L47.15,196.12 C47.0530001,197.997254 46.7512099,199.858294 46.25,201.67 L65.85,194.32 C70.54,192.56 75.3,190.77 79.38,187.87 C83.46,184.97 86.88,180.76 87.74,175.82 C88.27,172.82 88.1,169.24 90.57,167.5 C91.7868764,166.852745 93.085138,166.371783 94.43,166.07 C99.81,164.17 102.19,157.95 103.29,152.35 C104.428585,146.522408 104.901617,140.584354 104.7,134.65 C104.568144,138.861127 104.096613,143.054743 103.29,147.19 Z" id="Shape"></path>
                    <path d="M35.16,163.54 C34.564985,162.871243 33.8403366,162.330308 33.03,161.95 C32.1632263,161.666132 31.250145,161.550724 30.34,161.61 L22.17,161.61 C21.85,163.35 21.51,165.09 21.17,166.82 L30.38,166.82 C31.2902562,166.756932 32.2040622,166.872431 33.07,167.16 C33.8798765,167.536644 34.604594,168.074228 35.2,168.74 C41.5,175.02 46.27,183.48 47.09,192.16 C48.1,181.78 42.72,171.1 35.16,163.54 Z" id="Shape"></path>
                </g>
                <path d="M19.47,227.62 C19.47,227.62 26.91,224.5 28.57,227.62 C30.23,230.74 19.47,227.62 19.47,227.62 Z" id="Shape" fill="#000000" opacity="0.1"></path>
                <path d="M22.1,232.97 C22.1,232.97 29.54,229.85 31.21,232.97 C32.88,236.09 22.1,232.97 22.1,232.97 Z" id="Shape" fill="#000000" opacity="0.1"></path>
            </g>
        </g>
    </g>
</svg>