<?xml version="1.0" encoding="UTF-8"?>
<svg width="567px" height="786px" viewBox="0 0 567 786" version="1.1" xmlns="http://www.w3.org/2000/svg" xmlns:xlink="http://www.w3.org/1999/xlink">
    <!-- Generator: Sketch 48.1 (47250) - http://www.bohemiancoding.com/sketch -->
    <title>choose</title>
    <desc>Created with Sketch.</desc>
    <defs>
        <linearGradient x1="0.00312712552%" y1="50.0050553%" x2="99.99922%" y2="50.0050553%" id="linearGradient-1">
            <stop stop-color="#808080" stop-opacity="0.25" offset="0%"></stop>
            <stop stop-color="#808080" stop-opacity="0.12" offset="54%"></stop>
            <stop stop-color="#808080" stop-opacity="0.1" offset="100%"></stop>
        </linearGradient>
    </defs>
    <g id="Page-1" stroke="none" stroke-width="1" fill="none" fill-rule="evenodd">
        <g id="choose">
            <polygon id="Shape" fill="#F5F5F5" fill-rule="nonzero" points="528.76 115.47 474.5 99.07 471.16 173.27 528.26 190.48"></polygon>
            <polygon id="Shape" fill="#F5F5F5" fill-rule="nonzero" points="146.81 0 146.81 75.5 471.16 173.27 474.5 99.07"></polygon>
            <polygon id="Shape" fill="#000000" fill-rule="nonzero" opacity="0.1" points="528.76 115.47 474.5 99.07 471.16 173.27 528.26 190.48"></polygon>
            <polygon id="Shape" fill="#30AABC" fill-rule="nonzero" points="528.76 257.59 474.5 241.19 471.16 315.39 528.26 332.6"></polygon>
            <polygon id="Shape" fill="#30AABC" fill-rule="nonzero" points="146.81 142.12 146.81 217.62 471.16 315.39 474.5 241.19"></polygon>
            <polygon id="Shape" fill="#000000" fill-rule="nonzero" opacity="0.1" points="528.76 257.59 474.5 241.19 471.16 315.39 528.26 332.6"></polygon>
            <polyline id="Shape" stroke="#FFFFFF" stroke-width="7" stroke-linecap="round" points="488.29 283.75 497.17 297.07 514.94 274.86"></polyline>
            <g id="Group" opacity="0.4" transform="translate(488.000000, 128.000000)" stroke="#FFFFFF" stroke-linecap="round" stroke-width="7">
                <path d="M0.78,0.3 L18.55,31.39" id="Shape"></path>
                <path d="M22.99,4.74 L0.78,26.95" id="Shape"></path>
            </g>
            <polygon id="Shape" fill="#F5F5F5" fill-rule="nonzero" points="528.76 390.83 474.5 374.43 471.16 448.63 528.26 465.84"></polygon>
            <polygon id="Shape" fill="#F5F5F5" fill-rule="nonzero" points="146.81 275.36 146.81 350.86 471.16 448.63 474.5 374.43"></polygon>
            <polygon id="Shape" fill="#000000" fill-rule="nonzero" opacity="0.1" points="528.76 390.83 474.5 374.43 471.16 448.63 528.26 465.84"></polygon>
            <g id="Group" opacity="0.4" transform="translate(488.000000, 403.000000)" stroke="#FFFFFF" stroke-linecap="round" stroke-width="7">
                <path d="M0.78,0.66 L18.55,31.75" id="Shape"></path>
                <path d="M22.99,5.1 L0.78,27.31" id="Shape"></path>
            </g>
            <ellipse id="Oval" fill="#000000" fill-rule="nonzero" opacity="0.3" cx="371.09" cy="243.78" rx="11.1" ry="22.21"></ellipse>
            <ellipse id="Oval" fill="#6C63FF" fill-rule="nonzero" opacity="0.1" cx="371.09" cy="243.78" rx="93.27" ry="186.53"></ellipse>
            <ellipse id="Oval" fill="#FFFFFF" fill-rule="nonzero" opacity="0.1" cx="371.09" cy="243.78" rx="51.07" ry="102.15"></ellipse>
            <g id="Group" opacity="0.5" transform="translate(62.000000, 118.000000)" fill="url(#linearGradient-1)" fill-rule="nonzero">
                <path d="M319.44,128.79 C314.88,115.11 287.77,133.6 287.77,133.6 L285.54,136.6 L237.35,201.74 L119.28,135.74 L119.28,106.23 C130.517699,104.985844 140.742817,99.1562894 147.537837,90.1196136 C154.332856,81.0829377 157.09456,69.6413587 155.17,58.5 C161.11,56.21 165.95,51.27 170.41,46.5 C174.52,42.13 178.92,36.83 178.5,31.01 C178.567192,30.0803139 178.513409,29.1458385 178.34,28.23 C177.4,23.32 172.96,19.74 168.26,18.03 C163.56,16.32 158.48,16.03 153.57,15.03 C141.87,12.74 131.3,6.63 119.89,3.17 C114.7075,1.6109172 109.3744,0.605304483 103.98,0.17 C100.11,-0.15 96.08,-0.15 92.54,1.44 C88.66,3.19 85.85,6.61 82.73,9.52 C78.9585555,13.0313299 74.6076288,15.8631539 69.87,17.89 C62.8,20.89 54.87,22.12 48.5,26.36 C46.7313172,27.4254182 45.2513164,28.9088529 44.19,30.68 C43.2592009,32.5852533 42.8617988,34.7070349 43.04,36.82 C43.011554,38.6822216 43.1521303,40.5431836 43.46,42.38 C44.58,50.22 45.87,58.25 49.84,65.1 C53.08,70.7 57.93,75.16 62.69,79.54 L73.4,89.36 C75.57,91.36 77.97,93.82 80.77,94.81 C80.59,93.51 81.33,92.14 82.43,90.81 L78.96,115.07 C72.4932036,113.063726 65.7703577,112.002755 59,111.92 C49.88,111.81 40.65,113.46 36.66,119.67 C36.4266178,120.047058 36.2226791,120.441562 36.05,120.85 C23.48,135.77 -5.33,184.09 11.61,301.45 C10.16,315.81 9.29,324.9 9.29,324.9 L9.39,326.34 L9.29,327.43 L9.49,327.59 L18.92,457.16 L0.68,584.86 L4.73,584.86 L4.73,599.05 L0.17,599.05 L0.17,621.85 C0.17,621.85 63.51,617.8 73.17,603.61 C81.17,591.84 41.35,596.46 27.56,598.38 L27.56,589.65 L27.81,589.65 L27.81,584.84 L32.62,584.84 L50.86,498.19 C69.61,465.78 60,384.65 60,384.65 L82.8,398.33 L101,493.65 L87.34,635.03 L91.39,635.03 L91.39,644.91 L86.07,644.91 L86.07,667.71 C86.07,667.71 149.41,663.66 159.07,649.47 C167.07,637.7 127.27,642.32 113.48,644.24 L111.95,635.03 L114.74,635.03 L133,507.33 C142,472.73 129.73,371.21 128.11,358.21 L150.69,208.85 L150.37,208.42 L150.69,206.31 L241.9,238.25 C241.9,238.25 251.02,247.37 260.4,220.25 C269.16,194.91 293.19,160.94 296.3,156.61 L296.63,156.15 C296.63,156.15 324,142.47 319.44,128.79 Z" id="Shape"></path>
            </g>
            <polygon id="Shape" fill="#FDA57D" fill-rule="nonzero" points="70.81 691.85 70.81 714.05 93.02 714.05 93.02 682.97"></polygon>
            <polygon id="Shape" fill="#FDA57D" fill-rule="nonzero" points="155.2 736.26 155.2 762.91 177.4 758.47 172.96 731.82"></polygon>
            <path d="M106.59,239.08 C106.59,239.08 53.59,278.8 79.7,434.25 L106.59,239.08 Z" id="Shape" fill="#F55F44" fill-rule="nonzero"></path>
            <path d="M106.59,239.08 C106.59,239.08 53.59,278.8 79.7,434.25 L106.59,239.08 Z" id="Shape" fill="#000000" fill-rule="nonzero" opacity="0.05"></path>
            <polygon id="Shape" fill="#000000" fill-rule="nonzero" opacity="0.05" points="175.43 749.83 173.21 736.51 155.44 740.95 155.44 749.83"></polygon>
            <polygon id="Shape" fill="#000000" fill-rule="nonzero" opacity="0.05" points="71.06 700.98 93.27 700.98 93.27 687.65 71.06 696.54"></polygon>
            <polygon id="Shape" fill="#FDA57D" fill-rule="nonzero" points="146.81 212.69 142.37 243.78 182.34 265.98 182.34 221.57"></polygon>
            <path d="M66.87,696.29 L84.64,571.93 L75.26,443.13 L190.73,474.22 C190.73,474.22 205,584.76 195.66,620.78 L177.9,745.14 L151.25,745.14 L164.57,607.46 L146.81,514.65 L124.6,501.36 C124.6,501.36 133.98,580.36 115.72,611.9 L98,696.29 L66.87,696.29 Z" id="Shape" fill="#6C63FF" fill-rule="nonzero"></path>
            <path d="M377.26,252.16 C372.82,238.84 346.42,256.85 346.42,256.85 L344.25,259.79 L354.73,279.26 L355.06,278.81 C355.06,278.81 381.7,265.48 377.26,252.16 Z" id="Shape" fill="#FDA57D" fill-rule="nonzero"></path>
            <path d="M146.31,241.3 C146.31,241.3 110.78,231.92 101.9,245.74 C93.02,259.56 75.25,445.65 75.25,445.65 C75.25,445.65 128.05,490.06 190.72,476.74 L212.93,330.18 L146.31,241.3 Z" id="Shape" fill="#000000" fill-rule="nonzero" opacity="0.05"></path>
            <path d="M297.32,323.22 L156.94,244.78 C146.766201,239.053974 135.323091,235.960313 123.65,235.78 C114.77,235.67 105.78,237.28 101.9,243.32 C93.02,257.14 75.25,443.18 75.25,443.18 C75.25,443.18 128.05,487.59 190.72,474.27 L212.93,327.65 L301.76,358.74 C301.76,358.74 310.64,367.62 319.76,341.22 C328.29,316.54 351.69,283.47 354.76,279.22 L344.28,259.75 L297.32,323.22 Z" id="Shape" fill="#F55F44" fill-rule="nonzero"></path>
            <path d="M146.21,219.58 C153.777451,229.246064 165.374048,234.889446 177.65,234.88 C179.133469,234.878308 180.615718,234.794848 182.09,234.63 L182.09,226 L146.56,217.12 L146.21,219.58 Z" id="Shape" fill="#000000" fill-rule="nonzero" opacity="0.05"></path>
            <circle id="Oval" fill="#FDA57D" fill-rule="nonzero" cx="177.9" cy="190.48" r="39.97"></circle>
            <path d="M66.37,710.1 L66.37,732.31 C66.37,732.31 128.05,728.36 137.43,714.54 C146.81,700.72 88.58,710.1 88.58,710.1 L66.37,710.1 Z" id="Shape" fill="#333333" fill-rule="nonzero"></path>
            <path d="M150,754.76 L150,776.97 C150,776.97 211.68,773.02 221.06,759.2 C230.44,745.38 172.21,754.76 172.21,754.76 L150,754.76 Z" id="Shape" fill="#333333" fill-rule="nonzero"></path>
            <path d="M152.55,208.8 L168.17,186.45 C170.48,183.14 172.85,179.77 176.09,177.35 C179.33,174.93 183.63,173.58 187.47,174.82 C189.79,175.57 191.72,177.17 193.69,178.6 C199.52,182.84 206.69,185.99 213.82,184.71 C221.25,183.37 226.96,177.57 232.13,172.07 C236.42,167.51 241.03,161.91 239.85,155.76 C238.93,150.98 234.61,147.5 230.03,145.83 C225.45,144.16 220.51,143.89 215.73,142.95 C204.34,140.72 194.04,134.77 182.93,131.4 C177.883973,129.854636 172.688225,128.849008 167.43,128.4 C163.66,128.09 159.73,128.09 156.29,129.64 C152.51,131.34 149.77,134.64 146.74,137.51 C143.067466,140.925231 138.831641,143.679194 134.22,145.65 C127.34,148.59 119.65,149.77 113.41,153.9 C111.689873,154.939325 110.251122,156.384944 109.22,158.11 C107.62,161.11 108.03,164.69 108.51,168.03 C109.6,175.66 110.85,183.48 114.72,190.15 C117.88,195.6 122.59,199.95 127.24,204.21 L137.67,213.78 C139.78,215.72 142.12,218.12 144.85,219.09 C144.36,215.65 150.58,211.65 152.55,208.8 Z" id="Shape" fill="#000000" fill-rule="nonzero" opacity="0.05"></path>
            <path d="M152.55,207.32 L168.17,184.97 C170.48,181.66 172.85,178.29 176.09,175.87 C179.33,173.45 183.63,172.1 187.47,173.34 C189.79,174.09 191.72,175.69 193.69,177.12 C199.52,181.36 206.69,184.51 213.82,183.23 C221.25,181.89 226.96,176.09 232.13,170.59 C236.42,166.03 241.03,160.43 239.85,154.28 C238.93,149.5 234.61,146.02 230.03,144.35 C225.45,142.68 220.51,142.41 215.73,141.47 C204.34,139.24 194.04,133.29 182.93,129.92 C177.883973,128.374636 172.688225,127.369008 167.43,126.92 C163.66,126.61 159.73,126.61 156.29,128.16 C152.51,129.86 149.77,133.16 146.74,136.03 C143.06824,139.448792 138.832369,142.206168 134.22,144.18 C127.34,147.12 119.65,148.3 113.41,152.43 C111.689873,153.469325 110.251122,154.914944 109.22,156.64 C107.62,159.64 108.03,163.22 108.51,166.56 C109.6,174.19 110.85,182.01 114.72,188.68 C117.88,194.13 122.59,198.48 127.24,202.74 L137.67,212.31 C139.78,214.25 142.12,216.65 144.85,217.62 C144.36,214.18 150.58,210.13 152.55,207.32 Z" id="Shape" fill="#333333" fill-rule="nonzero"></path>
            <g id="Group" opacity="0.5" transform="translate(0.000000, 110.000000)" fill="#47E6B1" fill-rule="nonzero">
                <rect id="Rectangle-path" x="3.45" y="0.29" width="1.48" height="8.39"></rect>
                <rect id="Rectangle-path" transform="translate(4.195000, 4.480000) rotate(90.000000) translate(-4.195000, -4.480000) " x="3.455" y="0.285" width="1.48" height="8.39"></rect>
            </g>
            <g id="Group" opacity="0.5" transform="translate(525.000000, 519.000000)" fill="#47E6B1" fill-rule="nonzero">
                <rect id="Rectangle-path" x="3.45" y="0.29" width="1.48" height="8.39"></rect>
                <rect id="Rectangle-path" transform="translate(4.195000, 4.480000) rotate(90.000000) translate(-4.195000, -4.480000) " x="3.455" y="0.285" width="1.48" height="8.39"></rect>
            </g>
            <g id="Group" opacity="0.5" transform="translate(488.000000, 341.000000)" fill="#47E6B1" fill-rule="nonzero">
                <rect id="Rectangle-path" x="3.99" y="0.24" width="1.48" height="8.39"></rect>
                <rect id="Rectangle-path" transform="translate(4.735000, 4.430000) rotate(90.000000) translate(-4.735000, -4.430000) " x="3.995" y="0.235" width="1.48" height="8.39"></rect>
            </g>
            <g id="Group" opacity="0.5" transform="translate(425.000000, 511.000000)" fill="#47E6B1" fill-rule="nonzero">
                <rect id="Rectangle-path" x="3.83" y="0.98" width="1.48" height="8.39"></rect>
                <rect id="Rectangle-path" transform="translate(4.575000, 5.170000) rotate(90.000000) translate(-4.575000, -5.170000) " x="3.835" y="0.975" width="1.48" height="8.39"></rect>
            </g>
            <g id="Group" opacity="0.5" transform="translate(380.000000, 619.000000)" fill="#47E6B1" fill-rule="nonzero">
                <rect id="Rectangle-path" x="4.42" y="0.06" width="1.48" height="8.39"></rect>
                <rect id="Rectangle-path" transform="translate(5.155000, 4.260000) rotate(90.000000) translate(-5.155000, -4.260000) " x="4.415" y="0.065" width="1.48" height="8.39"></rect>
            </g>
            <g id="Group" opacity="0.5" transform="translate(63.000000, 240.000000)" fill="#47E6B1" fill-rule="nonzero">
                <rect id="Rectangle-path" x="3.62" y="0.07" width="1.48" height="8.39"></rect>
                <rect id="Rectangle-path" transform="translate(4.355000, 4.270000) rotate(90.000000) translate(-4.355000, -4.270000) " x="3.615" y="0.075" width="1.48" height="8.39"></rect>
            </g>
            <path d="M89.66,109.45 C88.8191182,109.079639 88.3891475,108.138003 88.66,107.26 C88.6676883,107.193555 88.6676883,107.126445 88.66,107.06 C88.6796455,106.662608 88.4388437,106.298529 88.065459,106.161086 C87.6920744,106.023644 87.2726912,106.144711 87.03,106.46 C86.9896587,106.51583 86.9560903,106.576253 86.93,106.64 C86.5596386,107.480882 85.6180027,107.910853 84.74,107.64 L84.54,107.64 C84.1426078,107.620354 83.7785285,107.861156 83.6410863,108.234541 C83.5036441,108.607926 83.6247105,109.027309 83.94,109.27 C83.9958299,109.310341 84.056253,109.34391 84.12,109.37 C84.9608818,109.740361 85.3908525,110.681997 85.12,111.56 C85.1123117,111.626445 85.1123117,111.693555 85.12,111.76 C85.1003545,112.157392 85.3411563,112.521471 85.714541,112.658914 C86.0879256,112.796356 86.5073088,112.675289 86.75,112.36 C86.7903413,112.30417 86.8239097,112.243747 86.85,112.18 C87.2203614,111.339118 88.1619973,110.909147 89.04,111.18 L89.24,111.18 C89.6373922,111.199646 90.0014715,110.958844 90.1389137,110.585459 C90.2763559,110.212074 90.1552895,109.792691 89.84,109.55 C89.7841701,109.509659 89.723747,109.47609 89.66,109.45 Z" id="Shape" fill="#4D8AF0" fill-rule="nonzero" opacity="0.5"></path>
            <path d="M422.85,35.26 C422.009118,34.8896386 421.579147,33.9480027 421.85,33.07 C421.857688,33.003555 421.857688,32.936445 421.85,32.87 C421.869646,32.4726078 421.628844,32.1085285 421.255459,31.9710863 C420.882074,31.8336441 420.462691,31.9547105 420.22,32.27 C420.179659,32.3258299 420.14609,32.386253 420.12,32.45 C419.749639,33.2908818 418.808003,33.7208525 417.93,33.45 L417.73,33.45 C417.332608,33.4303545 416.968529,33.6711563 416.831086,34.044541 C416.693644,34.4179256 416.814711,34.8373088 417.13,35.08 C417.18583,35.1203413 417.246253,35.1539097 417.31,35.18 C418.150882,35.5503614 418.580853,36.4919973 418.31,37.37 C418.302312,37.436445 418.302312,37.503555 418.31,37.57 C418.290354,37.9673922 418.531156,38.3314715 418.904541,38.4689137 C419.277926,38.6063559 419.697309,38.4852895 419.94,38.17 C419.980341,38.1141701 420.01391,38.053747 420.04,37.99 C420.410361,37.1491182 421.351997,36.7191475 422.23,36.99 L422.43,36.99 C422.827392,37.0096455 423.191471,36.7688437 423.328914,36.395459 C423.466356,36.0220744 423.345289,35.6026912 423.03,35.36 C422.97417,35.3196587 422.913747,35.2860903 422.85,35.26 Z" id="Shape" fill="#4D8AF0" fill-rule="nonzero" opacity="0.5"></path>
            <path d="M13.27,299.27 C12.4291182,298.899639 11.9991475,297.958003 12.27,297.08 C12.2776883,297.013555 12.2776883,296.946445 12.27,296.88 C12.2896455,296.482608 12.0488437,296.118529 11.675459,295.981086 C11.3020744,295.843644 10.8826912,295.964711 10.64,296.28 C10.5996587,296.33583 10.5660903,296.396253 10.54,296.46 C10.1696386,297.300882 9.22800271,297.730853 8.35,297.46 L8.15,297.46 C7.75260784,297.440354 7.38852851,297.681156 7.2510863,298.054541 C7.11364409,298.427926 7.23471055,298.847309 7.55,299.09 C7.60582985,299.130341 7.66625296,299.16391 7.73,299.19 C8.57088184,299.560361 9.00085255,300.501997 8.73,301.38 C8.72231169,301.446445 8.72231169,301.513555 8.73,301.58 C8.71035445,301.977392 8.9511563,302.341471 9.32454097,302.478914 C9.69792564,302.616356 10.1173088,302.495289 10.36,302.18 C10.4003413,302.12417 10.4339097,302.063747 10.46,302 C10.8303614,301.159118 11.7719973,300.729147 12.65,301 L12.85,301 C13.2473922,301.019646 13.6114715,300.778844 13.7489137,300.405459 C13.8863559,300.032074 13.7652895,299.612691 13.45,299.37 C13.3941701,299.329659 13.333747,299.29609 13.27,299.27 Z" id="Shape" fill="#4D8AF0" fill-rule="nonzero" opacity="0.5"></path>
            <path d="M26.59,485.8 C25.7491182,485.429639 25.3191475,484.488003 25.59,483.61 C25.5976883,483.543555 25.5976883,483.476445 25.59,483.41 C25.6096455,483.012608 25.3688437,482.648529 24.995459,482.511086 C24.6220744,482.373644 24.2026912,482.494711 23.96,482.81 C23.9196587,482.86583 23.8860903,482.926253 23.86,482.99 C23.4896386,483.830882 22.5480027,484.260853 21.67,483.99 L21.47,483.99 C21.0726078,483.970354 20.7085285,484.211156 20.5710863,484.584541 C20.4336441,484.957926 20.5547105,485.377309 20.87,485.62 C20.9258299,485.660341 20.986253,485.69391 21.05,485.72 C21.8908818,486.090361 22.3208525,487.031997 22.05,487.91 C22.0423117,487.976445 22.0423117,488.043555 22.05,488.11 C22.0303545,488.507392 22.2711563,488.871471 22.644541,489.008914 C23.0179256,489.146356 23.4373088,489.025289 23.68,488.71 C23.7203413,488.65417 23.7539097,488.593747 23.78,488.53 C24.1503614,487.689118 25.0919973,487.259147 25.97,487.53 L26.17,487.53 C26.5673922,487.549646 26.9314715,487.308844 27.0689137,486.935459 C27.2063559,486.562074 27.0852895,486.142691 26.77,485.9 C26.7141701,485.859659 26.653747,485.82609 26.59,485.8 Z" id="Shape" fill="#4D8AF0" fill-rule="nonzero" opacity="0.5"></path>
            <circle id="Oval" fill="#F55F44" fill-rule="nonzero" opacity="0.5" cx="248.71" cy="134.47" r="2.96"></circle>
            <circle id="Oval" fill="#4D8AF0" fill-rule="nonzero" opacity="0.5" cx="328.65" cy="520.86" r="2.96"></circle>
            <circle id="Oval" fill="#4D8AF0" fill-rule="nonzero" opacity="0.5" cx="510.74" cy="214.41" r="2.96"></circle>
            <circle id="Oval" fill="#47E6B1" fill-rule="nonzero" opacity="0.5" cx="564.04" cy="347.65" r="2.96"></circle>
            <circle id="Oval" fill="#F55F44" fill-rule="nonzero" opacity="0.5" cx="365.66" cy="16.6" r="2.96"></circle>
        </g>
    </g>
</svg>