<?xml version="1.0" encoding="UTF-8"?>
<svg width="1044px" height="749px" viewBox="0 0 1044 749" version="1.1" xmlns="http://www.w3.org/2000/svg" xmlns:xlink="http://www.w3.org/1999/xlink">
    <!-- Generator: Sketch 48.1 (47250) - http://www.bohemiancoding.com/sketch -->
    <title>undraw_server_status_5pbv</title>
    <desc>Created with Sketch.</desc>
    <defs>
        <linearGradient x1="50.0011621%" y1="100.00118%" x2="50.0011621%" y2="-0.0158321861%" id="linearGradient-1">
            <stop stop-color="#808080" stop-opacity="0.25" offset="0%"></stop>
            <stop stop-color="#808080" stop-opacity="0.12" offset="54%"></stop>
            <stop stop-color="#808080" stop-opacity="0.1" offset="100%"></stop>
        </linearGradient>
    </defs>
    <g id="Page-1" stroke="none" stroke-width="1" fill="none" fill-rule="evenodd">
        <g id="undraw_server_status_5pbv" fill-rule="nonzero">
            <path d="M332.29,465.98 C367.2,452.25 422,449.45 471.88,450.55 C628.56,453.98 769.99,487.35 892.32,525.1 C936.61,538.77 980.21,553.5 1008.96,572.32 C1067.48,610.63 1050.12,663.7 968.75,695.26 C941.06,706 907.5,714.26 873.04,721.52 C811.76,734.5 745.68,744.91 676.14,747.91 C626.56,750.02 576.36,748.3 527.07,745.35 C389.34,737.08 254.16,718.91 140.85,687.68 C91.15,674.01 44.31,657.01 23.85,634.88 C3.39,612.75 16.47,584.73 67.22,571.63 C88.22,566.22 113.3,563.77 137.87,561.48 C174.03,558.1 210.77,554.76 243.4,547.89 C277.11,540.79 317.02,527.06 310.35,511.35 C303.16,494.49 297.42,479.69 332.29,465.98 Z" id="Shape" fill="#30AABC" opacity="0.1"></path>
            <path d="M491.38,5.13 L487.57,226.13 C487.57,226.13 625.49,226.13 742.83,264.23 L745.12,40.91 C745.12,40.91 556.91,-4.01 491.38,5.13 Z" id="Shape" fill="#000000" opacity="0.1"></path>
            <path d="M489.38,2.13 L485.57,223.13 C485.57,223.13 623.49,223.13 740.83,261.23 L743.12,37.91 C743.12,37.91 554.91,-7.01 489.38,2.13 Z" id="Shape" fill="#F5F5FB"></path>
            <path d="M432.64,4.96 L436.45,225.96 C436.45,225.96 298.53,225.96 181.19,264.06 L178.9,40.8 C178.9,40.8 367.11,-4.18 432.64,4.96 Z" id="Shape" fill="#000000" opacity="0.1"></path>
            <path d="M434.64,1.96 L438.45,222.96 C438.45,222.96 300.53,222.96 183.19,261.06 L180.9,37.8 C180.9,37.8 369.11,-7.18 434.64,1.96 Z" id="Shape" fill="#F5F5FB"></path>
            <path d="M778.41,72.42 L778.41,291.11 C778.41,291.11 823.41,285.78 917.85,402.36 L926.24,183.67 C926.24,183.67 827.94,77.76 778.41,72.42 Z" id="Shape" fill="#000000" opacity="0.1"></path>
            <path d="M776.41,70.42 L776.41,289.11 C776.41,289.11 821.41,283.78 915.85,400.36 L924.24,181.67 C924.24,181.67 825.94,75.76 776.41,70.42 Z" id="Shape" fill="#F5F5FB"></path>
            <path d="M148.06,78.91 L148.06,297.61 C148.06,297.61 103.06,292.28 8.62,408.86 L0.24,190.17 C0.24,190.17 98.53,84.26 148.06,78.91 Z" id="Shape" fill="#000000" opacity="0.1"></path>
            <path d="M150.06,75.91 L150.06,294.61 C150.06,294.61 105.06,289.28 10.62,405.86 L2.24,187.17 C2.24,187.17 100.53,81.26 150.06,75.91 Z" id="Shape" fill="#F5F5FB"></path>
            <path d="M656.06,444.68 C656.06,452.13 608.75,495.18 501.06,495.18 C393.37,495.18 335.06,453.63 335.06,446.18 C335.06,438.73 395.37,457.18 503.06,457.18 C610.75,457.18 656.06,437.22 656.06,444.68 Z" id="Shape" fill="#F7F7FD"></path>
            <g id="Group" opacity="0.1" transform="translate(342.000000, 146.000000)" fill="#000000">
                <ellipse id="Oval" cx="154.8" cy="68.5" rx="152.12" ry="67.89"></ellipse>
                <path d="M309.56,92.77 C302.83,128.17 236.33,155.96 155.27,155.96 C73.5,155.96 6.54,127.68 0.8,91.85 L0.23,91.85 L0.23,149.54 C26.97,177.48 86.17,196.91 154.89,196.91 C223.61,196.91 282.81,177.48 309.56,149.54 L309.56,92.77 Z" id="Shape"></path>
                <path d="M309.56,162.97 C302.83,198.36 236.33,226.16 155.27,226.16 C73.5,226.16 6.54,197.88 0.8,162.04 L0.23,162.04 L0.23,219.74 C26.97,247.68 86.17,267.1 154.89,267.1 C223.61,267.1 282.81,247.68 309.56,219.74 L309.56,162.97 Z" id="Shape"></path>
                <path d="M309.56,240.18 C302.83,275.58 236.33,303.37 155.27,303.37 C73.5,303.37 6.54,275.1 0.8,239.26 L0.229982871,239.26 L0.23,301.48 C0.224938511,304.160347 1.3418305,306.720496 3.31,308.54 C31.31,334.25 88.7,344.32 154.89,344.32 C221.08,344.32 278.44,334.25 306.48,308.54 C308.44817,306.720496 309.565061,304.160347 309.56,301.48 L309.56,240.18 Z" id="Shape"></path>
            </g>
            <ellipse id="Oval" fill="#30AABC" cx="496.8" cy="210.5" rx="152.12" ry="67.89"></ellipse>
            <path d="M651.56,234.77 C644.83,270.17 578.33,297.96 497.27,297.96 C415.5,297.96 348.54,269.68 342.8,233.85 L342.23,233.85 L342.23,291.54 C368.97,319.48 428.17,338.91 496.89,338.91 C565.61,338.91 624.81,319.48 651.56,291.54 L651.56,234.77 Z" id="Shape" fill="#30AABC"></path>
            <path d="M651.56,304.97 C644.83,340.36 578.33,368.16 497.27,368.16 C415.5,368.16 348.54,339.88 342.8,304.04 L342.23,304.04 L342.23,361.74 C368.97,389.68 428.17,409.1 496.89,409.1 C565.61,409.1 624.81,389.68 651.56,361.74 L651.56,304.97 Z" id="Shape" fill="#30AABC"></path>
            <path d="M651.56,382.18 C644.83,417.58 578.33,445.37 497.27,445.37 C415.5,445.37 348.54,417.1 342.8,381.26 L342.229983,381.26 L342.23,443.48 C342.224939,446.160347 343.34183,448.720496 345.31,450.54 C373.31,476.25 430.7,486.32 496.89,486.32 C563.08,486.32 620.44,476.25 648.48,450.54 C650.44817,448.720496 651.565061,446.160347 651.56,443.48 L651.56,382.18 Z" id="Shape" fill="#30AABC"></path>
            <ellipse id="Oval" fill="#30AABC" opacity="0.1" cx="721.03" cy="546.25" rx="57" ry="10.26"></ellipse>
            <path d="M689.03,415.52 C691.91,417.22 696.43,418.33 702.12,414.67 L702.07,422.78 C702.47,428.34 709.35,448.61 709.35,448.61 L714.2,465.28 C717.680986,477.06096 719.475482,489.275648 719.53,501.56 C719.53,505.62 719.91,509.82 721.08,512.98 C723.67,519.98 720.08,528.98 718.51,532.3 C715.884062,533.187921 713.213803,533.938932 710.51,534.55 C710.268895,534.608156 710.031746,534.681639 709.8,534.77 L709.8,534.72 C709.8,534.72 702.52,537.61 699.28,537.21 C696.87,536.92 695.36,539.93 697.28,542.14 C695.712906,542.618351 694.077566,542.834594 692.44,542.78 C689.2,542.38 687.58,547.94 693.65,549.53 C699.72,551.12 734.11,549.53 734.11,549.53 C736.096511,548.535114 737.15787,546.321894 736.69,544.15 L740.99,543.97 C740.99,543.97 747.06,541.19 740.99,533.64 L740.66,533.88 L739.37,530.06 L739.37,524.91 C739.37,524.91 747.06,487.91 744.63,483.58 C742.2,479.25 740.91,456.91 740.91,456.91 L741.76,432.71 C743.95,428.19 745.07,421.09 745.64,415.54 C746.468255,412.895371 746.988366,410.163949 747.19,407.4 C747.29,406.09 747.37,404.73 747.42,403.31 C747.453561,400.19454 746.952983,397.096368 745.94,394.15 C748.685058,390.078229 751.751509,386.232625 755.11,382.65 C757.945359,380.012462 759.308939,376.153345 758.76,372.32 L756.76,358.81 L751.9,335.81 C752.51,329.42 751.18,325.74 749.7,323.66 C750.05,321.59 750.38,319.53 750.63,317.45 C751.699805,308.434874 751.219545,299.303175 749.21,290.45 C748.51,287.37 747.55,284.2 745.38,281.86 C742.93,279.2 738.95,277.59 738.03,274.12 C737.900216,273.23547 737.713156,272.360297 737.47,271.5 C736.58,269.23 733.78,268.4 731.32,268.1 C726.94,267.57 720.61,267.17 716.4,268.89 C712.7053,270.523627 709.663724,273.346942 707.76,276.91 C706.812207,278.373975 706.454847,280.142905 706.76,281.86 C706.909732,282.456027 707.141975,283.028221 707.45,283.56 C704.533501,291.466809 708.518797,300.248727 716.39,303.26 C716.49,303.57 716.58,303.87 716.65,304.16 C716.835016,304.872846 716.968692,305.598038 717.05,306.33 C716.97,307.73 716.88,309.14 716.82,310.55 L716.67,311.12 C713.188706,312.661243 709.793704,314.390457 706.5,316.3 C708.92,319.88 706.09,334.98 706.09,334.98 C700.02,338.55 693.96,347.69 700.43,357.23 C706.9,366.77 703.26,377.09 703.26,377.09 L702.26,392.63 L702.06,395.74 L702.13,395.74 L702.06,396.92 L702.23,396.92 L702.23,398.19 C699.39,399.24 695.23,401.34 692.76,405.24 C691.589685,407.152262 690.166866,408.89799 688.53,410.43 C687.755968,411.092544 687.354199,412.091288 687.453805,413.105275 C687.55341,414.119261 688.141842,415.020736 689.03,415.52 Z M737.88,374.24 C737.636129,371.550709 738.134179,368.846023 739.32,366.42 L742.18,366.42 C742.264301,367.052262 742.381123,367.67976 742.53,368.3 C743.35,371.85 740.07,373.52 737.88,374.24 Z" id="Shape" fill="url(#linearGradient-1)"></path>
            <path d="M738.68,528.24 L740.24,532.91 L735.18,537.97 L718.44,541.91 L706.37,540.74 L707.15,536.46 C707.618652,534.582524 709.096528,533.123942 710.98,532.68 C715.98,531.52 725.4,528.86 727.39,525.17 L738.68,528.24 Z" id="Shape" fill="#DB8B8B"></path>
            <path d="M738.68,528.24 L740.24,532.91 L735.18,537.97 L718.44,541.91 L706.37,540.74 L707.15,536.46 C707.618652,534.582524 709.096528,533.123942 710.98,532.68 C715.98,531.52 725.4,528.86 727.39,525.17 L738.68,528.24 Z" id="Shape" fill="#000000" opacity="0.1"></path>
            <path d="M710.26,539.53 L712.6,536.42 L710.26,532.81 C710.26,532.81 703.26,535.64 700.14,535.25 C697.02,534.86 695.47,540.31 701.31,541.87 C707.15,543.43 740.24,541.87 740.24,541.87 C740.24,541.87 746.08,539.14 740.24,531.74 L735.18,535.64 C735.18,535.64 726.61,540.31 722.33,539.53 L710.26,539.53 Z" id="Shape" fill="#C17174"></path>
            <path d="M699.76,546.15 L711.83,547.32 L728.57,543.42 L733.63,538.36 L733.22,537.13 L732.64,535.39 L732.07,533.69 L720.76,530.58 C720.186167,531.511845 719.401845,532.296167 718.47,532.87 C714.8,535.38 708.22,537.19 704.35,538.09 C704.186879,538.129403 704.026532,538.179511 703.87,538.24 C703.117093,538.479643 702.431697,538.894307 701.87,539.45 C701.194328,540.112965 700.7165,540.950896 700.49,541.87 L699.76,546.15 Z" id="Shape" fill="#DB8B8B"></path>
            <path d="M699.76,546.15 L711.83,547.32 L728.57,543.42 L733.63,538.36 L733.22,537.13 L728.57,540.7 C728.57,540.7 720,545.37 715.72,544.59 L703.64,544.59 L705.98,541.48 L703.88,538.24 C703.127093,538.479643 702.441697,538.894307 701.88,539.45 C701.204328,540.112965 700.7265,540.950896 700.5,541.87 L699.76,546.15 Z" id="Shape" fill="#000000" opacity="0.1"></path>
            <path d="M703.64,544.98 L705.98,541.87 L703.64,538.26 C703.64,538.26 696.64,541.09 693.52,540.7 C690.4,540.31 688.85,545.76 694.69,547.32 C700.53,548.88 733.62,547.32 733.62,547.32 C733.62,547.32 739.46,544.59 733.62,537.2 L728.56,541.09 C728.56,541.09 719.99,545.76 715.71,544.98 L703.64,544.98 Z" id="Shape" fill="#C17174"></path>
            <path d="M713.37,319.18 C713.37,319.18 732.06,321.18 729.37,313.34 C728.601532,311.131856 728.402053,308.765632 728.79,306.46 C729.271137,303.605814 730.400038,300.899872 732.09,298.55 L714.57,301.27 C715.623085,303.025944 716.424249,304.921133 716.95,306.9 C719,315.16 713.37,319.18 713.37,319.18 Z" id="Shape" fill="#DB8B8B"></path>
            <path d="M745.3,407.91 C745.3,407.91 744.91,424.65 741.02,432.83 L740.24,456.58 C740.24,456.58 741.4,478.38 743.74,482.66 C746.08,486.94 738.68,523.15 738.68,523.15 L738.68,529.38 C738.68,529.38 726.22,534.05 722.68,528.6 L726.18,482.27 L724.62,418.04 L745.3,407.91 Z" id="Shape" fill="#474463"></path>
            <path d="M745.3,407.91 C745.3,407.91 744.91,424.65 741.02,432.83 L740.24,456.58 C740.24,456.58 741.4,478.38 743.74,482.66 C746.08,486.94 738.68,523.15 738.68,523.15 L738.68,529.38 C738.68,529.38 726.22,534.05 722.68,528.6 L726.18,482.27 L724.62,418.04 L745.3,407.91 Z" id="Shape" fill="#000000" opacity="0.1"></path>
            <path d="M753.08,354.22 L755.42,360.45 L757.42,373.68 C757.948403,377.424768 756.642047,381.194964 753.91,383.81 C749.24,388.48 743.01,398.21 743.01,398.21 L735.62,376.02 C735.62,376.02 743.01,374.85 741.84,369.79 C740.67,364.73 741.07,355.39 741.07,355.39 L753.08,354.22 Z" id="Shape" fill="#FF748E"></path>
            <path d="M753.17,354.13 L755.5,360.36 L757.5,373.6 C758.036048,377.340607 756.73247,381.10981 754,383.72 C749.32,388.39 743.1,398.13 743.1,398.13 L735.65,375.91 C735.65,375.91 743.05,374.74 741.88,369.68 C740.71,364.62 741.1,355.27 741.1,355.27 L753.17,354.13 Z" id="Shape" fill="#000000" opacity="0.05"></path>
            <path d="M718.48,532.91 C723.48,540.77 731.25,536.31 732.63,535.43 L732.06,533.73 L720.76,530.58 C720.193961,531.525278 719.412779,532.323592 718.48,532.91 Z" id="Shape" fill="#000000" opacity="0.1"></path>
            <path d="M702.86,423.13 C703.25,428.58 709.86,448.43 709.86,448.43 L714.53,464.77 C717.87086,476.323387 719.597227,488.283439 719.66,500.31 C719.54272,504.096316 720.046041,507.876297 721.15,511.5 C724.27,520.07 718.04,531.74 718.04,531.74 C723.49,541.48 732.83,534.86 732.83,534.86 L732.83,528.63 C732.83,528.63 740.23,494.76 738.28,488.14 C736.33,481.52 735.56,463.62 735.56,463.62 L735.56,431.3 C741.793749,425.086129 745.58449,416.837364 746.24,408.06 C746.33,406.78 746.41,405.44 746.46,404.06 C746.77,395.28 740.76,384.98 738.46,381.31 C737.9,380.42 737.54,379.92 737.54,379.92 L703.17,393.56 L703.09,393.56 L703.09,394.91 L703.09,397.85 L702.86,423.13 Z" id="Shape" fill="#474463"></path>
            <path d="M714.54,301.27 C715.593085,303.025944 716.394249,304.921133 716.92,306.9 C720.764093,308.358573 725.034768,308.199866 728.76,306.46 C729.241137,303.605814 730.370038,300.899872 732.06,298.55 L714.54,301.27 Z" id="Shape" fill="#000000" opacity="0.1"></path>
            <circle id="Oval" fill="#DB8B8B" cx="722.33" cy="291.93" r="15.18"></circle>
            <path d="M702.86,397.82 L703.03,397.82 C719.35,401.18 739.85,384.17 739.85,384.17 C739.300452,383.242551 738.825618,382.272821 738.43,381.27 C737.87,380.38 737.51,379.88 737.51,379.88 L703.14,393.52 L703.05,394.88 L702.86,397.82 Z" id="Shape" fill="#000000" opacity="0.1"></path>
            <path d="M707.15,318.79 C707.15,318.79 728.95,305.55 735.95,311 L745.69,323.46 C745.69,323.46 751.92,325.41 750.76,337.91 L755.43,360.49 L741.43,363.99 C741.43,363.99 733.26,371.78 739.88,383.07 C739.88,383.07 719.24,400.2 702.88,396.69 L704.05,378.4 C704.05,378.4 707.55,368.27 701.33,358.93 C695.11,349.59 700.94,340.63 706.78,337.13 C706.76,337.09 709.48,322.29 707.15,318.79 Z" id="Shape" fill="#FF748E"></path>
            <path d="M705.98,398.21 C705.98,398.21 697.8,399.77 693.91,406 C692.784953,407.872332 691.41259,409.584422 689.83,411.09 C689.109446,411.745731 688.741623,412.703716 688.838175,413.67318 C688.934727,414.642643 689.484269,415.509264 690.32,416.01 C693.41,417.87 698.44,419.01 704.81,413.78 C715.76,404.83 705.98,398.21 705.98,398.21 Z" id="Shape" fill="#DB8B8B"></path>
            <path d="M718.05,326.19 C718.05,326.19 725.83,325.41 727.78,345.65 C729.73,365.89 732.84,370.57 732.84,370.57 C732.84,370.57 734.79,381.08 730.11,387.31 C725.43,393.54 716.49,406.78 716.49,406.78 C716.49,406.78 706.76,409.5 704.81,399.78 L716.88,377.2 C716.88,377.2 718.82,369.41 714.15,363.96 C709.48,358.51 705.98,322.29 718.05,326.19 Z" id="Shape" fill="#000000" opacity="0.1"></path>
            <path d="M717.27,325.02 C717.27,325.02 725.05,324.24 727,344.49 C728.95,364.74 732.06,369.4 732.06,369.4 C732.06,369.4 734.06,379.91 729.34,386.14 C724.62,392.37 715.76,405.61 715.76,405.61 C715.76,405.61 706.03,408.33 704.08,398.61 L716.15,376.03 C716.15,376.03 718.1,368.24 713.42,362.79 C708.74,357.34 705.2,321.13 717.27,325.02 Z" id="Shape" fill="#FF748E"></path>
            <path d="M710.84,339.62 C710.84,339.62 710.07,351.69 713.57,358.31 C717.07,364.93 717.07,373.49 713.57,378.16" id="Shape" fill="#000000" opacity="0.1"></path>
            <path d="M708.9,324.82 C708.9,324.82 712.01,321.71 720.97,321.32 C729.93,320.93 733.81,318.21 733.81,318.21" id="Shape" fill="#000000" opacity="0.1"></path>
            <path d="M730.55,272.31 C732.92,272.6 735.62,273.41 736.47,275.63 C736.704063,276.47502 736.88772,277.333198 737.02,278.2 C737.9,281.6 741.73,283.2 744.09,285.78 C746.17,288.08 747.09,291.18 747.77,294.21 C749.708649,302.88719 750.171795,311.828954 749.14,320.66 C748.38,327.11 746.82,333.47 746.39,339.95 C745.96,346.43 746.75,353.26 750.29,358.71 C751.82,361.05 753.83,363.11 754.91,365.71 C752.68,367.52 749.6,367.78 746.72,367.88 C743.386667,367.993333 740.036667,367.993333 736.67,367.88 C734.907694,367.95032 733.155439,367.58269 731.57,366.81 C730.448237,366.095483 729.526129,365.108001 728.89,363.94 C726.97,360.69 726.49,356.78 726.57,353.01 C726.65,349.24 727.25,345.49 727.32,341.71 C727.518718,339.647887 727.060188,337.575751 726.01,335.79 C725.043577,334.666741 723.94953,333.659949 722.75,332.79 C718.58,329.09 717.15,323.17 717.01,317.6 C716.87,312.03 717.79,306.46 717.32,300.91 C717.14,298.74 716.32,296.13 714.19,295.71 C713.516952,295.682696 712.847658,295.595688 712.19,295.45 C710.48,294.79 710.65,292.38 710.19,290.61 C709.64,288.61 707.94,287.08 707.46,285.08 C706.34,280.37 712.34,274.74 716.27,273.08 C720.2,271.42 726.34,271.79 730.55,272.31 Z" id="Shape" fill="#000000" opacity="0.1"></path>
            <path d="M730.94,271.53 C733.31,271.82 736.01,272.63 736.86,274.86 C737.095078,275.70139 737.27875,276.556303 737.41,277.42 C738.29,280.82 742.12,282.42 744.48,285 C746.56,287.3 747.48,290.4 748.16,293.43 C750.098693,302.117453 750.558473,311.069641 749.52,319.91 C748.77,326.36 747.21,332.72 746.78,339.21 C746.35,345.7 747.14,352.51 750.68,357.96 C752.21,360.31 754.22,362.36 755.3,364.96 C753.07,366.78 749.99,367.03 747.11,367.13 C743.776667,367.236667 740.426667,367.236667 737.06,367.13 C735.298501,367.203845 733.546187,366.839639 731.96,366.07 C730.837823,365.351686 729.91583,364.360887 729.28,363.19 C727.36,359.94 726.88,356.03 726.96,352.26 C727.04,348.49 727.64,344.74 727.71,340.97 C727.71,338.91 727.59,336.73 726.4,335.05 C725.435844,333.924551 724.341524,332.917508 723.14,332.05 C718.97,328.35 717.54,322.43 717.4,316.86 C717.26,311.29 718.18,305.72 717.71,300.17 C717.53,298 716.71,295.39 714.58,294.97 C713.906952,294.942696 713.237658,294.855688 712.58,294.71 C710.87,294.05 711.04,291.64 710.58,289.87 C710.03,287.87 708.33,286.35 707.85,284.34 C706.73,279.63 712.73,274 716.66,272.34 C720.59,270.68 726.76,271.01 730.94,271.53 Z" id="Shape" fill="#464353"></path>
            <path d="M304.45,100.97 C292.85202,100.97 283.45,110.37202 283.45,121.97 C283.45,133.56798 292.85202,142.97 304.45,142.97 C316.04798,142.97 325.45,133.56798 325.45,121.97 C325.45,110.37202 316.04798,100.97 304.45,100.97 Z M304.45,105.04 C313.838841,105.04 321.45,112.651159 321.45,122.04 C321.45,131.428841 313.838841,139.04 304.45,139.04 C295.061159,139.04 287.45,131.428841 287.45,122.04 C287.45,112.651159 295.061159,105.04 304.45,105.04 Z M316.34,116.09 L314.43,114.16 C314.241517,113.964448 313.9816,113.853974 313.71,113.853974 C313.4384,113.853974 313.178483,113.964448 312.99,114.16 L300.99,126.05 L295.93,120.91 C295.741517,120.714448 295.4816,120.603974 295.21,120.603974 C294.9384,120.603974 294.678483,120.714448 294.49,120.91 L292.57,122.82 C292.374448,123.008483 292.263974,123.2684 292.263974,123.54 C292.263974,123.8116 292.374448,124.071517 292.57,124.26 L300.27,132.02 C300.458483,132.215552 300.7184,132.326026 300.99,132.326026 C301.2616,132.326026 301.521517,132.215552 301.71,132.02 L316.34,117.5 C316.535552,117.311517 316.646026,117.0516 316.646026,116.78 C316.646026,116.5084 316.535552,116.248483 316.34,116.06 L316.34,116.09 Z" id="Shape" fill="#3ACC6C" opacity="0.7"></path>
            <path d="M71.97,207.29 C60.6801385,209.91256 53.6497264,221.18599 56.2619338,232.478251 C58.8741413,243.770512 70.1411206,250.811258 81.4357722,248.209405 C92.7304238,245.607552 99.7814963,234.347032 97.19,223.05 C95.9424745,217.611699 92.5820169,212.893426 87.850353,209.936605 C83.1186891,206.979784 77.4048486,206.027521 71.97,207.29 Z M72.89,211.29 C79.5930969,209.725762 86.5779406,212.357935 90.5816392,217.956931 C94.5853377,223.555926 94.8176676,231.01665 91.1700983,236.853909 C87.5225291,242.691167 80.714994,245.752841 73.9275572,244.608703 C67.1401204,243.464565 61.7124414,238.340438 60.18,231.63 C58.0967172,222.507472 63.7774517,213.416509 72.89,211.29 Z M86.96,219.39 L84.66,217.91 C84.4330816,217.762531 84.1560821,217.713329 83.8922587,217.773632 C83.6284353,217.833934 83.4003177,217.998591 83.26,218.23 L74.26,232.51 L68.17,228.66 C67.9430816,228.512531 67.6660821,228.463329 67.4022587,228.523632 C67.1384353,228.583934 66.9103177,228.748591 66.77,228.98 L65.32,231.28 C65.1725307,231.506918 65.1233293,231.783918 65.1836318,232.047741 C65.2439343,232.311565 65.408591,232.539682 65.64,232.68 L74.88,238.51 C75.1076812,238.660756 75.3871093,238.711848 75.6534055,238.651412 C75.9197018,238.590976 76.1497006,238.42427 76.29,238.19 L87.29,220.76 C87.4383521,220.534312 87.4891073,220.258213 87.4307181,219.99452 C87.3723288,219.730826 87.2097606,219.501963 86.98,219.36 L86.96,219.39 Z" id="Shape" fill="#3ACC6C" opacity="0.7"></path>
            <path d="M610.52,104.01 C598.92202,104.01 589.52,113.41202 589.52,125.01 C589.52,136.60798 598.92202,146.01 610.52,146.01 C622.11798,146.01 631.52,136.60798 631.52,125.01 C631.52,113.41202 622.11798,104.01 610.52,104.01 Z M610.52,108.08 C619.908841,108.08 627.52,115.691159 627.52,125.08 C627.52,134.468841 619.908841,142.08 610.52,142.08 C601.131159,142.08 593.52,134.468841 593.52,125.08 C593.52,115.691159 601.131159,108.08 610.52,108.08 Z M622.41,119.13 L620.5,117.2 C620.311517,117.004448 620.0516,116.893974 619.78,116.893974 C619.5084,116.893974 619.248483,117.004448 619.06,117.2 L607.06,129.09 L601.99,123.98 C601.801517,123.784448 601.5416,123.673974 601.27,123.673974 C600.9984,123.673974 600.738483,123.784448 600.55,123.98 L598.64,125.91 C598.444448,126.098483 598.333974,126.3584 598.333974,126.63 C598.333974,126.9016 598.444448,127.161517 598.64,127.35 L606.34,135.11 C606.528483,135.305552 606.7884,135.416026 607.06,135.416026 C607.3316,135.416026 607.591517,135.305552 607.78,135.11 L622.41,120.59 C622.605552,120.401517 622.716026,120.1416 622.716026,119.87 C622.716026,119.5984 622.605552,119.338483 622.41,119.15 L622.41,119.13 Z" id="Shape" fill="#3ACC6C" opacity="0.7"></path>
            <path d="M851.45,207.72 C839.890448,206.822907 829.791105,215.463681 828.888839,227.02283 C827.986572,238.58198 836.622826,248.685189 848.18157,249.592628 C859.740314,250.500068 869.847387,241.868337 870.76,230.31 C871.198775,224.752864 869.410058,219.24929 865.787985,215.011971 C862.165911,210.774652 857.00772,208.151314 851.45,207.72 Z M851.13,211.77 C857.993658,212.285766 863.868998,216.88939 866.011544,223.430438 C868.15409,229.971487 866.140984,237.159003 860.912584,241.635569 C855.684184,246.112136 848.272379,246.994248 842.139354,243.869855 C836.00633,240.745461 832.362515,234.231201 832.91,227.37 C833.254677,222.884105 835.368685,218.719287 838.786258,215.793155 C842.20383,212.867022 846.644543,211.419676 851.13,211.77 Z M862.13,223.71 L860.37,221.64 C860.198564,221.430946 859.949787,221.300216 859.680376,221.277608 C859.410964,221.255 859.143879,221.342441 858.94,221.52 L846.07,232.45 L841.41,226.96 C841.23838,226.747881 840.987538,226.615101 840.71563,226.592442 C840.443721,226.569782 840.174362,226.659213 839.97,226.84 L837.9,228.6 C837.692395,228.772876 837.563571,229.022395 837.54285,229.291758 C837.52213,229.561121 837.611278,229.827407 837.79,230.03 L844.86,238.36 C845.031436,238.569054 845.280213,238.699784 845.549624,238.722392 C845.819036,238.745 846.086121,238.657559 846.29,238.48 L862.01,225.14 C862.219054,224.968564 862.349784,224.719787 862.372392,224.450376 C862.395,224.180964 862.307559,223.913879 862.13,223.71 Z" id="Shape" fill="#3ACC6C" opacity="0.7"></path>
        </g>
    </g>
</svg>