<?xml version="1.0" encoding="UTF-8"?>
<svg width="1130px" height="869px" viewBox="0 0 1130 869" version="1.1" xmlns="http://www.w3.org/2000/svg" xmlns:xlink="http://www.w3.org/1999/xlink">
    <!-- Generator: Sketch 48.1 (47250) - http://www.bohemiancoding.com/sketch -->
    <title>dashboard</title>
    <desc>Created with Sketch.</desc>
    <defs></defs>
    <g id="Page-1" stroke="none" stroke-width="1" fill="none" fill-rule="evenodd">
        <g id="dashboard" fill-rule="nonzero">
            <path d="M1108.14,197.66 C1096.59191,175.221698 1081.44831,154.825295 1063.31,137.28 L441.45,132.1 L953.45,71.31 C919.948858,60.1007244 884.895116,54.22244 849.57,53.89 C800.28,20.24 736.93,0.05 667.83,0.05 C605.83,0.05 548.5,16.34 501.76,43.98 C462.04,26.68 416.76,16.87 368.65,16.87 C230.48,16.87 115.35,97.77 89.52,205.06 L1108.14,197.66 Z" id="Shape" fill="#30AABC" opacity="0.1"></path>
            <path d="M1130,287.64 C1129.95719,258.241886 1123.33535,229.226052 1110.62,202.72 L32.86,298.36 C21.9205812,315.036744 13.4181304,333.189898 7.61,352.27 L341.36,394.33 L0,424.99 C10.27,546.45 133.43,642.35 283.88,642.35 C359.61,642.35 428.42,618.05 479.41,578.42 C530.56,618.8 600.03,643.63 676.58,643.63 C790.15,643.63 888.18,588.96 933.83,509.92 C1025.41,485.34 1096.55,423.64 1120.9,346.45 L698.83,291.11 L1130,291.11 C1130,289.95 1130,288.8 1130,287.64 Z" id="Shape" fill="#30AABC" opacity="0.1"></path>
            <ellipse id="Oval" fill="#30AABC" opacity="0.1" cx="499.98" cy="855.15" rx="289.98" ry="12.94"></ellipse>
            <path d="M672.09,832.39 L672.09,840.21 L440.84,840.21 L440.84,833.86 C469.681311,823.174648 489.238884,796.159268 490.384057,765.423514 C491.52923,734.687761 474.036206,706.291925 446.07,693.49 L670.52,693.49 C643.2081,705.995083 625.82419,733.413563 626.163698,763.450236 C626.503205,793.48691 644.502421,820.505451 672.09,832.39 Z" id="Shape" fill="#C8CAD7"></path>
            <path d="M670.52,693.49 C649.628538,703.08191 634.191701,721.602439 628.52,743.88 L488.08,743.88 C482.405666,721.603784 466.969665,703.084258 446.08,693.49 L670.52,693.49 Z" id="Shape" fill="#000000" opacity="0.1"></path>
            <path d="M176,653.65 L176,697.55 C176,721.79 193.74,741.44 215.63,741.44 L896.05,741.44 C917.94,741.44 935.68,721.79 935.68,697.55 L935.68,653.65 L176,653.65 Z" id="Shape" fill="#C8CAD7"></path>
            <path d="M672.09,832.39 L672.09,840.21 L440.84,840.21 L440.84,833.86 C447.17962,831.500917 453.17592,828.306029 458.67,824.36 L657.91,824.36 C662.336831,827.534608 667.090539,830.226587 672.09,832.39 Z" id="Shape" fill="#000000" opacity="0.1"></path>
            <rect id="Rectangle-path" fill="#C8CAD7" x="364.42" y="826.8" width="384.09" height="23.17" rx="9.5"></rect>
            <path d="M935.68,172.62 C935.652406,150.754102 917.915915,133.044464 896.05,133.05 L215.66,133.05 C193.782374,133.027895 176.027598,150.742381 176,172.62 L176,662.19 L935.68,662.19 L935.68,172.62 Z" id="Shape" fill="#474157"></path>
            <path d="M915,190.3 L915,610.97 C915.002655,616.145187 912.947995,621.109174 909.288585,624.768585 C905.629174,628.427995 900.665187,630.482655 895.49,630.48 L216.27,630.48 C211.094813,630.482655 206.130826,628.427995 202.471415,624.768585 C198.812005,621.109174 196.757345,616.145187 196.76,610.97 L196.76,190.3 C196.76,179.524925 205.494925,170.79 216.27,170.79 L895.44,170.79 C900.623031,170.776717 905.598331,172.826363 909.267987,176.486639 C912.937643,180.146914 915.000017,185.116952 915,190.3 Z" id="Shape" fill="#4C4C78"></path>
            <circle id="Oval" fill="#FFFFFF" cx="555.85" cy="151.89" r="9.15"></circle>
            <circle id="Oval" fill="#FFFFFF" cx="555.85" cy="699.38" r="22.56"></circle>
            <path d="M348.53,180.55 L348.53,630.480003 L216.27,630.48 C211.094813,630.482655 206.130826,628.427995 202.471415,624.768585 C198.812005,621.109174 196.757345,616.145187 196.76,610.97 L196.76,190.3 L197.47,187.65 L199.37,180.55 L348.53,180.55 Z" id="Shape" fill="#FFFFFF"></path>
            <polygon id="Shape" fill="#4C4C78" points="365.5 187.65 365.5 228.15 196.76 228.15 196.76 190.3 197.47 187.65"></polygon>
            <path d="M915,190.3 L196.76,190.3 C196.759999,185.126545 198.81583,180.165128 202.474953,176.507881 C206.134075,172.850634 211.096546,170.797347 216.27,170.8 L895.44,170.8 C900.622109,170.784055 905.597439,172.831472 909.267385,176.490161 C912.937332,180.14885 915.000025,185.117866 915,190.3 Z" id="Shape" fill="#C8CAD7"></path>
            <circle id="Oval" fill="#EDEDF4" cx="216.27" cy="180.55" r="4.88"></circle>
            <circle id="Oval" fill="#EDEDF4" cx="230.9" cy="180.55" r="4.88"></circle>
            <circle id="Oval" fill="#EDEDF4" cx="245.53" cy="180.55" r="4.88"></circle>
            <rect id="Rectangle-path" fill="#30AABC" x="221.98" y="205.48" width="101.33" height="9.33"></rect>
            <rect id="Rectangle-path" fill="#30AABC" opacity="0.5" x="221.98" y="250.98" width="101.33" height="9.33"></rect>
            <rect id="Rectangle-path" fill="#30AABC" opacity="0.5" x="221.98" y="283.15" width="101.33" height="9.33"></rect>
            <rect id="Rectangle-path" fill="#30AABC" opacity="0.5" x="221.98" y="315.32" width="101.33" height="9.33"></rect>
            <rect id="Rectangle-path" fill="#30AABC" opacity="0.5" x="221.98" y="347.48" width="101.33" height="9.33"></rect>
            <rect id="Rectangle-path" fill="#30AABC" opacity="0.5" x="221.98" y="379.65" width="101.33" height="9.33"></rect>
            <rect id="Rectangle-path" fill="#30AABC" opacity="0.5" x="221.98" y="411.82" width="101.33" height="9.33"></rect>
            <rect id="Rectangle-path" fill="#30AABC" opacity="0.5" x="221.98" y="443.98" width="101.33" height="9.33"></rect>
            <rect id="Rectangle-path" fill="#DCE0ED" opacity="0.5" x="431.49" y="239.79" width="449.01" height="1.5"></rect>
            <rect id="Rectangle-path" fill="#DCE0ED" opacity="0.5" x="431.49" y="274.62" width="449.01" height="1.5"></rect>
            <rect id="Rectangle-path" fill="#DCE0ED" opacity="0.5" x="431.49" y="309.46" width="449.01" height="1.5"></rect>
            <rect id="Rectangle-path" fill="#DCE0ED" opacity="0.5" x="431.49" y="344.29" width="449.01" height="1.5"></rect>
            <rect id="Rectangle-path" fill="#DCE0ED" opacity="0.5" x="431.49" y="379.12" width="449.01" height="1.5"></rect>
            <polygon id="Shape" fill="#30AABC" opacity="0.5" points="880.51 380.61 430.94 380.61 430.94 312.11 472.17 332.43 514.84 338.21 552.28 326.92 597.45 291.89 620.17 278.77 636.78 275.57 652.67 276.42 678.81 289.33 714.33 311.96 742.21 315.55 764.32 307.93 811.17 269.55 835.09 261.02 860.12 264.89 880.51 276.66"></polygon>
            <path d="M509.3,338.23 C468.82,338.23 431.4,313.47 430.94,313.15 L432.05,311.49 C432.63,311.88 490.21,349.98 539.14,330.89 C557,323.94 569.68,313.11 582,302.65 C594.83,291.72 606.95,281.39 623.46,276.91 C642.46,271.78 663.11,276.43 678.84,289.35 C692.28,300.4 719.06,318.15 747.35,312.84 C761.77,310.14 773.93,299.6 786.8,288.45 C811.44,267.05 837,244.96 881.09,276.68 L879.92,278.3 C837.07,247.51 812.16,269.09 788.08,289.96 C775,301.3 762.64,311.96 747.69,314.81 C718.59,320.26 691.25,302.17 677.54,290.9 C662.31,278.38 642.28,273.9 623.96,278.85 C607.87,283.21 595.96,293.39 583.27,304.17 C570.86,314.74 558.02,325.68 539.87,332.76 C530.109304,336.470243 519.741647,338.325365 509.3,338.23 Z" id="Shape" fill="#30AABC"></path>
            <path d="M358.13,724.99 C358.13,724.99 352.67,728.4 352.49,730.35 C352.31,732.3 355.31,728.93 355.31,728.93 L358.13,724.99 Z" id="Shape" fill="#000000" opacity="0.1"></path>
            <path d="M360.28,751.13 C358.385211,752.712045 356.025598,753.632013 353.56,753.75 C349.48,753.93 349.82,759.25 352.49,757.65 C355.16,756.05 360.28,751.13 360.28,751.13 Z" id="Shape" fill="#000000" opacity="0.1"></path>
            <path d="M361.32,754.54 C361.32,754.54 358.7,767.4 356.57,764.92" id="Shape" fill="#000000" opacity="0.1"></path>
            <g id="Group" opacity="0.5" transform="translate(471.000000, 458.000000)" fill="#DCE0ED">
                <rect id="Rectangle-path" x="0.17" y="0.65" width="66" height="14"></rect>
                <rect id="Rectangle-path" x="151.72" y="0.65" width="66" height="14"></rect>
                <rect id="Rectangle-path" x="303.27" y="0.65" width="66" height="14"></rect>
            </g>
            <ellipse id="Oval" fill="#30AABC" opacity="0.1" cx="952.73" cy="801.29" rx="26.93" ry="4.55"></ellipse>
            <ellipse id="Oval" fill="#30AABC" opacity="0.1" cx="115.22" cy="858.74" rx="26.93" ry="4.55"></ellipse>
            <path d="M466.5,556.42 C466.5,535.98 483.13,520.28 503.58,520.28 L503.87,520.28 L503.87,510.98 L503.58,510.98 C478,510.98 457.2,530.85 457.2,556.42 C457.198511,569.804257 462.993984,582.533145 473.09,591.32 L479.68,584.73 C471.324572,577.700418 466.50079,567.339166 466.5,556.42 Z" id="Shape" fill="#30AABC"></path>
            <path d="M504.8,510.99 L504.8,520.29 C521.1658,520.399225 535.523358,531.227805 540.126289,546.933357 C544.72922,562.638909 538.488165,579.504462 524.770385,588.430482 C511.052605,597.356502 493.104631,596.230503 480.61,585.66 L474,592.25 C489.482744,605.787284 512.033445,607.506012 529.388955,596.471535 C546.744465,585.437058 554.755632,564.28737 549.065956,544.523741 C543.37628,524.760113 525.345983,511.107402 504.78,510.99 L504.8,510.99 Z" id="Shape" fill="#30AABC" opacity="0.5"></path>
            <path d="M808.8,519.81 C829.24,519.81 844.94,536.44 844.94,556.89 C844.94,556.98 844.94,557.08 844.94,557.18 L854.24,557.18 C854.24,557.08 854.24,556.98 854.24,556.89 C854.24,531.32 834.37,510.51 808.8,510.51 C795.415171,510.505874 782.685241,516.301822 773.9,526.4 L780.49,532.99 C787.519582,524.634572 797.880834,519.81079 808.8,519.81 Z" id="Shape" fill="#30AABC" opacity="0.5"></path>
            <path d="M854.23,558.11 L844.93,558.11 C844.820775,574.4758 833.992195,588.833358 818.286643,593.436289 C802.581091,598.03922 785.715538,591.798165 776.789518,578.080385 C767.863498,564.362605 768.989497,546.414631 779.56,533.92 L773,527.33 C759.462716,542.812744 757.743988,565.363445 768.778465,582.718955 C779.812942,600.074465 800.96263,608.085632 820.726259,602.395956 C840.489887,596.70628 854.142598,578.675983 854.26,558.11 L854.23,558.11 Z" id="Shape" fill="#30AABC"></path>
            <path d="M674,513.71 L672.15,522.97 C685.76,528.46 694.46,541.8 694.46,557.35 C694.465609,575.861442 680.814244,591.539635 662.477995,594.080399 C644.141746,596.621162 626.741678,585.245612 621.713641,567.430103 C616.685604,549.614595 625.570966,530.820558 642.53,523.4 L638.41,515.05 C617.360716,524.525472 606.489343,548.043238 612.908661,570.216404 C619.327979,592.38957 641.082029,606.462002 663.937859,603.226575 C686.793688,599.991147 703.787156,580.433691 703.8,557.35 C703.8,537.28 691.92,520.16 674,513.71 Z" id="Shape" fill="#30AABC" opacity="0.5"></path>
            <path d="M658.59,519.74 C663.031596,519.73844 667.426022,520.650683 671.5,522.42 L673.35,513.17 C668.640545,511.357239 663.636286,510.431654 658.59,510.44 C652.038208,510.439785 645.561397,511.834004 639.59,514.53 L643.75,522.86 C648.425426,520.797934 653.480039,519.735239 658.59,519.74 Z" id="Shape" fill="#30AABC"></path>
        </g>
    </g>
</svg>