<?xml version="1.0" encoding="UTF-8"?>
<svg width="1151px" height="756px" viewBox="0 0 1151 756" version="1.1" xmlns="http://www.w3.org/2000/svg" xmlns:xlink="http://www.w3.org/1999/xlink">
    <!-- Generator: Sketch 48.1 (47250) - http://www.bohemiancoding.com/sketch -->
    <title>no_win</title>
    <desc>Created with Sketch.</desc>
    <defs>
        <linearGradient x1="50.0144645%" y1="100.013623%" x2="50.0144645%" y2="-0.0116140481%" id="linearGradient-1">
            <stop stop-color="#808080" stop-opacity="0.25" offset="0%"></stop>
            <stop stop-color="#808080" stop-opacity="0.12" offset="54%"></stop>
            <stop stop-color="#808080" stop-opacity="0.1" offset="100%"></stop>
        </linearGradient>
    </defs>
    <g id="Page-1" stroke="none" stroke-width="1" fill="none" fill-rule="evenodd">
        <g id="no_win" fill-rule="nonzero">
            <path d="M1066.62,619.94 C1063.03333,623.093333 1059.36667,626.156667 1055.62,629.13 C1054.99,629.64 1054.34,630.13 1053.7,630.65 C1040.33617,641.015931 1026.30598,650.492993 1011.7,659.02 L1008.97,660.61 C1008.31,661.01 1007.66,661.38 1006.97,661.75 C991.71,670.56 975.88,678.67 959.86,686.35 L959.69,686.44 L958.48,687.01 C945.56,693.203333 932.446667,699.13 919.14,704.79 L918.82,704.91 C912.82,707.436667 906.82,709.896667 900.82,712.29 C898.37,713.29 895.91,714.22 893.45,715.17 C888.82,716.94 884.18,718.68 879.5,720.35 L878.92,720.57 L877.92,720.92 L876.67,721.38 C864.463333,725.74 852.093333,729.766667 839.56,733.46 L839.34,733.52 C830.6,736.066667 821.803333,738.423333 812.95,740.59 L811.74,740.89 C798.74,744.03 785.53,746.73 772.24,748.89 L769.18,749.38 C759.46,750.906667 749.673333,752.153333 739.82,753.12 C684.43,758.47 628.38,754.12 573.33,746.66 C462.17,731.58 352.48,703.31 252.44,659 C233.24,650.5 214.413333,641.4 195.96,631.7 C195.81,631.62 195.68,631.54 195.53,631.47 C184.483333,625.663333 173.586667,619.613333 162.84,613.32 C159.69,611.5 156.56,609.64 153.45,607.77 C149.623333,605.463333 145.813333,603.13 142.02,600.77 C137.02,597.65 132.02,594.45 127.02,591.18 L124.68,589.62 L123.78,589.01 C122.51,588.16 121.26,587.31 120,586.45 C73,554.45 31.09,515.67 11.29,467.14 C-11.59,411.14 3.05,340.14 59.72,307.04 C79.2,295.64 101.84,289.45 124.72,284.34 L127.06,283.82 C130.93,282.97 134.8,282.15 138.65,281.33 C152.14,278.47 165.7,275.63 179.13,272.46 C186.13,270.81 193.06,269.08 199.95,267.21 L202.77,266.43 C219.386469,261.972148 235.637284,256.248759 251.38,249.31 L251.48,249.31 C253.17,248.56 254.84,247.78 256.48,246.98 C257.54,246.48 258.6,245.98 259.66,245.43 C276.66,236.97 294.66,225.24 308.51,211.26 C309.62,210.14 310.7,209 311.75,207.86 C312.56,206.97 313.36,206.07 314.13,205.17 C323.84,193.85 330.56,181.28 331.84,167.94 C332.270986,163.457352 332.069005,158.936356 331.24,154.51 C329.67,146.12 328.15,137.91 327.03,129.9 C324.94,114.85 324.23,100.46 327.13,86.59 C330.08,72.45 336.77,58.84 349.54,45.64 C351.466667,43.64 353.543333,41.64 355.77,39.64 C366.097351,30.579579 377.782905,23.1963879 390.4,17.76 C391.96,17.0933333 393.53,16.4266667 395.11,15.76 C430.19,1.56 472.34,-1.4 511.72,0.56 C548.511424,2.4533783 585.068838,7.5391616 620.98,15.76 C623.83,16.4 626.68,17.07 629.51,17.76 C660.058435,25.1600885 690.116566,34.454731 719.51,45.59 C795.89,74.32 867.98,114.21 935.33,158.23 C935.99,158.66 936.65,159.09 937.33,159.53 C940.143333,161.363333 942.94,163.203333 945.72,165.05 C951.1,168.616667 956.433333,172.206667 961.72,175.82 L965.29,178.25 C967.05,179.45 968.8,180.653333 970.54,181.86 L975.9,185.57 C976.15243,185.721728 976.39311,185.892208 976.62,186.08 L981.18,189.24 C983.82,191.08 986.44,192.93 989.07,194.79 L994.71,198.79 C995.88,199.63 997.06,200.46 998.23,201.31 L1004.23,205.69 L1005.57,206.69 C1005.85,206.89 1006.13,207.09 1006.4,207.31 L1006.57,207.42 C1022.83,219.35 1038.7,231.72 1053.57,244.83 L1055.49,246.53 L1055.69,246.71 C1057.31,248.15 1058.93,249.61 1060.52,251.08 C1079.94,268.76 1097.34,287.76 1111.56,308.76 C1176.88,405.76 1157.49,540.07 1066.62,619.94 Z" id="Shape" fill="#6C63FF" opacity="0.1"></path>
            <path d="M1109.43,340.7 C1110.07,338.96 1105.29,329.3 1105.29,328.82 C1105.29,328.34 1100.29,322.97 1100.29,319.95 C1100.29,316.93 1093.76,310.45 1093.76,310.45 C1093.76,310.45 1084.98,306.8 1084.02,298.89 C1083.06,290.98 1073.86,290.81 1073.5,290.8 C1073.5,290.8 1073.5,290.08 1073.56,288.98 C1073.56,286.52 1073.49,282.13 1072.38,279.72 C1071.24719,277.5325 1069.30093,275.877105 1066.96,275.11 C1066.96,275.11 1065.96,268.94 1064.08,267.04 C1061.9084,264.763176 1061.06866,261.525249 1061.86,258.48 C1062.39,256.8 1061.93,253.69 1060.61,251.09 C1059.61,249.02 1057.99,247.25 1055.95,246.76 L1055.78,246.76 C1051.2,245.65 1046.07,243.95 1046.07,243.95 C1046.07,243.95 1045.55,244.05 1044.78,244.16 L1044.14,243.95 C1043.03588,244.15548 1041.92062,244.295723 1040.8,244.37 C1039.81988,244.402845 1038.8598,244.087542 1038.09,243.48 C1036.49,241.73 1023.57,238.41 1021.18,238.41 C1018.79,238.41 1011.92,235.24 1011.92,235.24 L1005.07,230.01 C1003.15,228.55 999.59,222.61 999.07,221.73 L998.99,221.62 C998.49099,220.486727 998.07001,219.320677 997.73,218.13 C997.66,217.91 997.61,217.69 997.54,217.45 C998.93159,215.993053 1000.20557,214.428158 1001.35,212.77 L1001.35,212.72 C1001.66,212.29 1001.95,211.82 1002.24,211.37 C1002.66,210.703333 1003.06,210.013333 1003.44,209.3 C1003.6,208.99 1003.75,208.67 1003.91,208.37 C1004.2492,208.355999 1004.58523,208.298873 1004.91,208.2 L1005.34,208.04 C1005.73473,207.858099 1006.10442,207.626198 1006.44,207.35 L1006.76,207.06 C1007.66068,206.209738 1008.34621,205.157449 1008.76,203.99 C1008.87,203.65 1008.97,203.3 1009.05,202.99 C1009.05,202.87 1009.11,202.74 1009.14,202.63 C1009.17,202.52 1009.25,202.15 1009.29,201.9 L1009.35,201.5 C1009.35,201.25 1009.43,201.02 1009.47,200.79 C1009.51,200.56 1009.47,200.51 1009.47,200.38 C1009.47,200.09 1009.55,199.78 1009.58,199.48 C1009.72,198.35 1009.84,197.24 1010.08,196.14 C1010.08472,196.123668 1010.08472,196.106332 1010.08,196.09 C1010.60371,193.970839 1011.39684,191.92753 1012.44,190.01 C1013.44,188.08 1014.54,186.18 1015.44,184.19 C1015.7,183.62 1015.95,183.04 1016.17,182.46 C1016.39,181.88 1016.61,181.18 1016.81,180.53 C1016.81,180.34 1016.9,180.14 1016.95,179.94 C1017.08147,179.469224 1017.18828,178.991908 1017.27,178.51 C1017.32333,178.303333 1017.36333,178.093333 1017.39,177.88 C1017.51,177.22 1017.59,176.56 1017.65,175.88 C1017.97259,172.093059 1017.41118,168.282945 1016.01,164.75 C1014.82,161.75 1013.01,159.1 1011.82,156.13 C1009.99,151.62 1009.51,146.52 1007.27,142.22 C1003.52,135.02 994.67,131.42 987.4,134.13 C983.94,135.41 980.93,137.92 977.4,139.05 C972.7,140.56 967.65,139.42 962.77,138.74 C957.89,138.06 952.49,138.01 948.57,141.19 C944.06,144.86 942.82,151.76 938.57,155.78 C937.537873,156.712305 936.423307,157.549067 935.24,158.28 C934.38,158.87 933.51,159.45 932.7,160.12 C931.378076,161.166908 930.359667,162.547802 929.75,164.12 C929.707364,164.231314 929.670646,164.344806 929.64,164.46 C929.594038,164.594002 929.557286,164.730988 929.53,164.87 C929.53,165.02 929.48,165.18 929.46,165.34 C929.44,165.5 929.46,165.56 929.46,165.67 C929.445011,165.909766 929.445011,166.150234 929.46,166.39 C929.46,166.39 929.46,166.47 929.46,166.51 C929.46,166.77 929.54,167.04 929.59,167.31 C929.59,167.38 929.59,167.45 929.59,167.53 C929.59,167.61 929.71,167.98 929.79,168.19 C929.795657,168.233149 929.795657,168.276851 929.79,168.32 C929.873686,168.565026 929.970493,168.805374 930.08,169.04 C930.08,169.15 930.17,169.28 930.22,169.4 C930.278536,169.49402 930.325541,169.594744 930.36,169.7 C930.980194,170.868268 931.476237,172.098321 931.84,173.37 C932.035498,174.180001 931.983241,175.030045 931.69,175.81 C931.535428,176.19868 931.319333,176.559962 931.05,176.88 C930.702965,177.316348 930.328897,177.730495 929.93,178.12 C926.755259,181.423439 924.300216,185.349464 922.72,189.65 C922.54,190.14 922.37,190.65 922.21,191.14 L922.42,191.2 L922.63,191.25 C923.018664,191.367693 923.416833,191.451342 923.82,191.5 C924.084794,191.544794 924.351872,191.57484 924.62,191.59 C925.713381,191.647757 926.809595,191.560329 927.88,191.33 C928.058711,191.299637 928.235639,191.259578 928.41,191.21 C928.465473,191.201169 928.519369,191.184327 928.57,191.16 L928.67,191.16 C929.566255,190.927192 930.442397,190.622884 931.29,190.25 C931.49,190.16 931.7,190.08 931.9,189.98 C931.9,190.3 931.9,190.63 931.9,190.98 C931.9,191.33 931.9,191.34 931.9,191.52 C931.9,191.95 931.9,192.36 931.9,192.79 C931.9,193.22 931.9,193.39 931.9,193.7 C932.660411,206.49424 939.880603,218.021676 951.06,224.29 C951.63,224.62 952.19,224.93 952.77,225.22 C952.82,225.56 952.87,225.91 952.91,226.22 C952.95,226.53 952.99,226.79 953.02,227.08 L952.58,226.67 C952.204617,226.507231 951.799128,226.425452 951.39,226.43 C950.724806,226.425115 950.069866,226.59402 949.49,226.92 C948.468721,227.507536 947.612267,228.343353 947,229.35 C944.3,233.48 939.18,235.35 939.18,235.35 C939.18,235.35 910.18,239.94 909.04,243.74 L895.48,244.54 C895.48,244.54 890.69,245.17 890.22,255.15 L890.22,255.26 C890.22,255.31 890.22,255.34 890.22,255.38 C890.15,256.57 890.06,257.63 889.95,258.58 C889.95,258.58 889.95,258.68 889.95,258.72 C889.11,265.37 887.21,266.08 887.21,266.08 C887.21,266.08 881.62,275.9 882.1,280.97 C882.10502,281.009843 882.10502,281.050157 882.1,281.09 C882.165088,281.775912 882.121212,282.467804 881.97,283.14 C881.337831,285.415514 879.836561,287.351362 877.79,288.53 L877.16,297.53 C877.16,297.53 871.9,296.74 870.46,302.92 C869.02,309.1 866.46,311.92 866.46,311.92 C866.46,311.92 857.69,319.21 857.21,325.38 L851.78,328.71 C851.78,328.71 839.19,325.86 836.31,320.79 C836.31,320.79 835.97,320.45 835.43,319.96 L835.35,319.84 C835.347851,319.859942 835.347851,319.880058 835.35,319.9 C833.47,318.12 829.46,314.4 830.08,315.25 C830.452249,316.049769 830.543853,316.95172 830.34,317.81 L829.4,316.81 L826.89,314.01 C826.89,314.01 823.3,310.65 818.25,306.64 C817.096667,305.72 815.88,304.78 814.6,303.82 C808.14,299.03 800.37,294.17 794.6,293.44 C794.48,293.2 794,291.39 792.87,291.39 C792.394753,291.430483 791.952115,291.648232 791.63,292 C788.220951,295.133465 786.271695,299.545686 786.250821,304.175998 C786.229946,308.806309 788.139341,313.235926 791.52,316.4 L792.83,317.62 L796.89,321.42 L810.59,334.22 C810.76,334.34 810.92,334.47 811.09,334.58 L811.9,335.58 L812.53,336.39 L813.62,337.78 L815.19,339.78 C815.11,339.99 815.02,340.19 814.95,340.39 C814.36,341.83 813.85,343.23 813.43,344.51 C813.43,344.51 813.43,344.61 813.43,344.65 C813.33,344.97 813.23,345.27 813.14,345.57 C813.14,345.67 813.07,345.78 813.04,345.88 C812.94,346.18 812.86,346.48 812.77,346.75 C812.68,347.02 812.67,347.1 812.63,347.27 C812.59,347.44 812.56,347.48 812.53,347.58 C812.08,349.17 811.8,350.39 811.65,351.07 L810.59,350.74 L811.59,351.19 C811.593545,351.246611 811.593545,351.303389 811.59,351.36 L811.53,351.68 C811.84,351.83 812.17,351.97 812.53,352.11 L812.76,352.21 L816.68,353.94 C817.47,354.29 818.33,354.66 819.25,355.08 C820.17,355.5 820.88,355.81 821.77,356.19 C832.01,360.75 846.36,367.3 847.38,368.61 C848.97,370.68 859.5,376.69 869.08,371.61 C878.66,366.53 880.71,358.77 880.71,358.77 C880.71,358.77 889.97,345.95 890.29,344.05 C890.53,342.59 894.81,340.94 896.79,340.25 L896.98,340.19 L897.78,339.93 C897.78,339.93 897.78,340.33 897.78,341.02 L897.78,341.07 C897.78,341.42 897.78,341.86 897.78,342.35 C897.78,346.81 897.72,356.51 896.32,363.56 C896.315321,363.579726 896.315321,363.600274 896.32,363.62 C896.00465,365.444081 895.470807,367.223556 894.73,368.92 C891.06,376.68 884.21,411.06 884.21,411.06 L884.37,411.06 C884.765709,410.988077 885.16909,410.967908 885.57,411 C885.43,411.64 885.34,412.14 885.27,412.48 C885.2,412.82 885.17,412.99 885.17,412.99 L885.29,412.99 C885.672153,412.917722 886.061929,412.894201 886.45,412.92 C886.581133,412.926148 886.711557,412.942869 886.84,412.97 C886.84,413.17 886.78,413.41 886.74,413.69 C886.74,413.69 886.74,413.79 886.74,413.84 C886.74,413.89 886.74,413.9 886.74,413.94 C886.74,413.98 886.68,414.25 886.66,414.42 C885.83,420.14 883.43,435.03 883.43,435.03 C883.43,435.03 882.43,443.26 880.87,446.11 C880.2,447.32 879.79,450.67 879.53,454.11 C879.53,454.61 879.46,455.11 879.42,455.63 C879.16,459.87 879.12,463.84 879.12,463.84 L879.05,464.1 L876.7,474.76 C876.738297,474.858846 876.781689,474.955643 876.83,475.05 C877,475.37 877.27,475.92 877.66,476.6 L877.78,476.86 C879.194227,479.74158 881.06503,482.375563 883.32,484.66 C883.842634,485.178898 884.40428,485.656965 885,486.09 C885,486.21 884.95,486.34 884.93,486.44 C884.91,486.54 884.87,486.82 884.84,487 C884.636766,488.376348 884.25697,489.720758 883.71,491 C883.082774,492.377811 882.69392,493.852074 882.56,495.36 C882.439318,496.435534 882.405876,497.519071 882.46,498.6 L882.33,499.19 C881.98,500.82 880.98,505.6 880.44,509.49 C880.31,510.38 880.19,511.24 880.12,512.04 C880.05297,512.781822 880.05297,513.528178 880.12,514.27 C880.181348,515.520226 880.114331,516.773447 879.92,518.01 C879.92,518.37 879.84,518.74 879.79,519.11 C879.25,522.63 878.36,526.32 878.36,526.32 L875.49,553.87 L875.49,554.36 C875.49,554.47 875.49,554.67 875.49,554.93 C875.49,555.19 875.49,555.29 875.49,555.5 C875.49,555.71 875.49,555.95 875.43,556.22 C875.43,556.87 875.33,557.64 875.26,558.54 C875.26,558.86 875.24,559.193333 875.2,559.54 C875.2,559.84 875.2,560.16 875.14,560.49 C875.14,560.66 875.14,560.83 875.14,561.01 C875.14,561.19 875.14,561.53 875.09,561.8 C875.04,562.07 875.09,562.31 875.09,562.56 C875.09,562.81 875.09,563.03 875.09,563.27 C875,564.74 874.9,566.33 874.83,567.94 C874.83,568.2 874.83,568.46 874.83,568.72 L874.83,569.48 C874.83,569.99 874.83,570.48 874.76,571.02 C874.76,571.36 874.76,571.71 874.76,572.02 C874.76,572.33 874.76,572.96 874.76,573.42 L874.76,573.76 C874.76,574.06 874.76,574.36 874.76,574.64 C874.76,575.31 874.76,575.96 874.76,576.59 C874.76,576.87 874.76,577.16 874.76,577.44 C874.76,578.346667 874.76,579.206667 874.76,580.02 C874.76,580.43 874.76,580.82 874.76,581.2 C874.781834,582.263589 874.861954,583.325182 875,584.38 C875.11,585.16 875.19,585.98 875.23,586.82 C875.23,587.21 875.23,587.6 875.23,587.98 C875.240001,588.173204 875.240001,588.366796 875.23,588.56 C875.23,588.75 875.23,588.96 875.23,589.15 C875.23,589.34 875.23,589.69 875.23,589.95 C875.23,590.37 875.23,590.78 875.23,591.19 C875.23,591.36 875.23,591.52 875.23,591.68 C875.23,591.84 875.23,592.27 875.23,592.56 L875.23,593.04 C874.98,596.48 874.51,599.27 874.44,599.71 C874.44,599.71 874.44,599.71 874.44,599.71 C874.44,599.71 874.44,599.8 874.44,599.97 C874.44,600.14 874.44,600.12 874.44,600.21 C874.44,600.3 874.44,600.38 874.44,600.48 C874.44,600.58 874.44,600.59 874.44,600.65 C874.44,600.9 874.5,601.22 874.53,601.57 C874.53,601.73 874.53,601.89 874.53,602.07 C874.53,602.25 874.53,602.45 874.59,602.65 C874.65,602.85 874.59,602.84 874.59,602.95 C874.59,603.31 874.65,603.68 874.69,604.07 C874.73,604.46 874.78,604.88 874.81,605.3 L874.87,606.09 C874.87,606.47 874.95,606.87 874.98,607.26 L874.98,607.66 C874.98,607.93 875.04,608.19 875.06,608.47 L875.15,609.7 C875.15,609.97 875.21,610.25 875.23,610.52 C875.25,610.79 875.23,610.8 875.23,610.94 L875.36,612.56 C875.36,612.83 875.36,613.09 875.41,613.36 C875.41,613.78 875.47,614.21 875.51,614.61 C875.55,615.01 875.51,615.53 875.58,615.95 C875.65,616.37 875.63,616.79 875.64,617.17 C875.753688,618.29714 875.753688,619.43286 875.64,620.56 C875.38,621.7 874.54,624.89 874.06,628.35 C874.06,628.66 873.97,628.97 873.94,629.29 C873.91,629.61 873.94,629.66 873.94,629.85 L873.88,630.6 C873.88,631.2 873.81,631.81 873.81,632.4 C873.764698,633.748122 873.916294,635.095642 874.26,636.4 C874.488989,637.267046 874.656076,638.149268 874.76,639.04 C874.76,639.18 874.76,639.33 874.81,639.48 C874.81,639.8 874.88,640.13 874.91,640.48 C874.94,640.83 874.96,641.16 874.98,641.48 C874.98,642.18 875.04,642.9 875.07,643.63 C875.07,644.11 875.07,644.63 875.07,645.08 C875.14,649.3 874.94,653.43 874.88,654.49 L874.88,654.57 C874.88,654.69 874.88,654.75 874.88,654.75 C874.88,654.75 875.88,672.5 876.95,678.19 C877.09,678.94 877.19,679.7 877.26,680.48 C877.26,680.77 877.26,681.06 877.31,681.35 C877.447674,684.645051 877.219614,687.945209 876.63,691.19 C876.63,691.19 875.51,703.38 875.04,703.38 C874.81,703.38 873.77,705.26 873.61,708.1 L873.61,708.18 C873.47,711.35 874.44,715.71 878.86,720.02 L879.34,720.49 L879.92,720.27 C884.6,718.6 889.24,716.86 893.87,715.09 C896.33,714.14 898.79,713.19 901.24,712.21 C907.293333,709.816667 913.293333,707.356667 919.24,704.83 C918.957463,704.680524 918.750659,704.419297 918.67,704.11 C917.75,701.66 919.12,694.11 919.4,692.95 C919.68,691.79 922.27,667.12 922.27,667.12 C922.27,667.12 921.27,659.37 922.59,656.05 C923.91,652.73 920.99,639.88 920.99,639.88 C920.99,639.88 919.99,638.3 921.79,636.4 C923.59,634.5 922.91,617.55 922.91,617.55 C922.91,617.55 922.75,608.99 922.75,606.77 C922.75,604.55 924.67,596.47 926.41,593.77 C928.15,591.07 927.06,582.67 927.06,582.67 L927.16,582.03 C927.16,581.79 927.24,581.49 927.3,581.14 L927.45,580.29 C928.207297,575.648771 929.242492,571.057181 930.55,566.54 C932.63,559.89 935.02,548.17 935.02,548.17 L948.97,510.76 L949.43,509.6 L949.6,509.14 C949.6,509.14 956.45,521.82 956.45,533.54 C956.45,533.54 958.21,547.64 957.74,551.44 C957.27,555.24 959.17,573.14 959.17,573.14 C959.17,573.14 961.23,598.81 961.23,599.91 C961.23,601.01 963.79,620.76 965.39,623.76 C966.99,626.76 963.79,635.96 962.84,636.91 C961.89,637.86 963.16,661.15 963.16,661.15 C963.16,661.15 960.75,679.52 960.28,683.32 C960.19,684.01 960.05,685.05 959.9,686.32 C975.9,678.64 991.75,670.53 1007.01,661.72 C1007.67,661.35 1008.32,660.98 1009.01,660.58 L1009.12,637.85 C1009.12,637.85 1010.24,627.24 1008.96,622.95 C1007.68,618.66 1006.41,610.45 1008.17,608.23 C1009.93,606.01 1008.33,595.72 1008.33,595.72 C1008.33,595.72 1008.33,574.01 1010.72,568.63 C1013.11,563.25 1012.32,529.19 1012.32,529.19 L1012.95,506.85 C1012.95,506.85 1018.04,502.03 1016.95,477.06 C1016.95,476.79 1016.95,476.5 1016.95,476.21 C1022.51,475.86 1028.78,475.66 1029.73,476.44 C1031.25,477.66 1039.81,483.2 1046.44,481.82 C1047.53636,481.611189 1048.57798,481.178881 1049.5,480.55 C1050.94,479.91 1057.5,474.37 1057.5,474.37 L1054.96,431.64 L1054.69,426.89 C1055.17,427.62 1055.59,428.27 1055.95,428.89 C1056.95,430.41 1057.5,431.34 1057.5,431.34 C1057.5,424.69 1076.33,403.15 1076.33,403.15 C1076.33,403.15 1093.88,380.5 1097.7,377.8 C1101.52,375.1 1109.03,360.85 1109.03,360.85 C1110.13709,358.131306 1111.41635,355.485943 1112.86,352.93 C1114.56,350.05 1108.79,342.44 1109.43,340.7 Z M1053.28,371.11 C1052.93055,372.684366 1052.20292,374.149933 1051.16,375.38 C1051.08,374.38 1051,373.45 1050.92,372.45 C1050.92,372.37 1050.92,372.27 1050.92,372.19 C1049.8,358.25 1048.6,341.39 1049.15,339.74 C1049.6,338.42 1049.76,334.92 1049.81,331.56 C1049.88,327.73 1049.81,324.08 1049.81,324.08 L1049.99,323.83 C1053.21,333.83 1063.2,345.49 1063.2,345.49 C1063.2,345.49 1064.96,350.56 1067.03,350.72 C1069.1,350.88 1068.3,357.37 1068.3,357.37 C1067.3372,357.52432 1066.41348,357.863925 1065.58,358.37 C1064.59565,358.93859 1063.65324,359.576887 1062.76,360.28 C1058.18,363.76 1053.39,369.49 1053.28,371.11 Z" id="Shape" fill="url(#linearGradient-1)"></path>
            <path d="M812.56,353.76 C812.56,353.76 818.38,323.26 837.08,323.1 L850.76,351.24 L841.56,357.49 C841.56,357.49 821.8,358.12 812.56,353.76 Z" id="Shape" fill="#65617D"></path>
            <path d="M850.72,351.2 L841.56,357.49 C841.56,357.49 827.62,357.93 817.66,355.49 C815.907137,355.082831 814.198827,354.503345 812.56,353.76 C812.56,353.76 812.56,353.59 812.66,353.27 C812.656565,353.230074 812.656565,353.189926 812.66,353.15 C813.52142,349.323349 814.70566,345.576603 816.2,341.95 C816.77,340.58 817.43,339.17 818.13,337.76 C820.87,332.49 824.72,327.32 829.99,324.76 C831.936853,323.805743 834.055263,323.251487 836.22,323.13 L836.78,323.13 L837.05,323.13 L837.36,323.75 L841.98,333.26 L850.72,351.2 Z" id="Shape" fill="#000000" opacity="0.1"></path>
            <path d="M1006.04,477.91 C1006.04,477.91 1025.69,476.03 1027.42,477.44 C1029.15,478.85 1040.31,486.09 1046.92,481.53 C1053.53,476.97 1049.12,461.09 1049.12,460.46 C1049.12,459.83 1048.49,437.35 1048.49,437.35 L1036.7,421.47 L1021.92,393.65 L991.74,390.65 L992.52,434.83 L992.37,457.47 L1006.04,477.91 Z" id="Shape" fill="#65617D"></path>
            <path d="M1006.04,477.91 C1006.04,477.91 1025.69,476.03 1027.42,477.44 C1029.15,478.85 1040.31,486.09 1046.92,481.53 C1053.53,476.97 1049.12,461.09 1049.12,460.46 C1049.12,459.83 1048.49,437.35 1048.49,437.35 L1036.7,421.47 L1021.92,393.65 L991.74,390.65 L992.52,434.83 L992.37,457.47 L1006.04,477.91 Z" id="Shape" fill="#000000" opacity="0.1"></path>
            <path d="M833.11,322.28 C833.11,322.28 831.56,341.46 819.56,341.76 C819.56,341.76 816.18,339.76 811.62,336.31 C801.12,328.46 784.47,313.36 789.07,299.31 C795.67,279.19 827.74,316.31 827.74,316.31 L830.21,319.07 L833.11,322.28 Z" id="Shape" fill="#A5636D"></path>
            <path d="M833.11,322.28 C833.11,322.28 831.56,341.46 819.56,341.76 C819.56,341.76 816.18,339.76 811.62,336.31 L810.62,335 C812.647272,336.062794 814.883351,336.667047 817.17,336.77 C820.17,336.83 823.55,335.77 825.72,331.38 C826.974124,328.91162 828.079432,326.370413 829.03,323.77 C829.596494,322.243749 829.998764,320.661486 830.23,319.05 L833.11,322.28 Z" id="Shape" fill="#000000" opacity="0.1"></path>
            <path d="M827.92,357.02 L825.23,353.56 L816.23,341.91 L811.56,335.96 C813.584929,337.018212 815.817468,337.619018 818.1,337.72 C821.1,337.79 824.48,336.72 826.65,332.33 C827.908347,329.863611 829.013768,327.322144 829.96,324.72 C831.45,320.48 831.42,318.3 830.89,317.56 C830.36,316.82 834.23,320.41 836.09,322.18 L836.16,322.24 L837.02,323.06 L837.35,323.7 L841.9,332.81 C841.9,332.81 841.9,332.94 841.9,333.19 C842.32,336.08 843.85,354.42 827.92,357.02 Z" id="Shape" fill="#E7EFFD"></path>
            <path d="M919.18,704.76 C918.893424,704.515373 918.577694,704.307126 918.24,704.14 L918.16,704.14 C916.28,703.35 918,693.6 918.32,692.34 C918.64,691.08 921.15,666.76 921.15,666.76 C921.15,666.76 920.21,659.07 921.47,655.76 C922.73,652.45 919.89,639.76 919.89,639.76 C919.89,639.76 918.95,638.19 920.68,636.3 C922.41,634.41 921.78,617.59 921.78,617.59 C921.78,617.59 921.63,609.11 921.63,606.9 C921.63,604.69 923.51,596.69 925.24,594.01 C926.97,591.33 925.87,583.01 925.87,583.01 L925.96,582.37 C926.01,582.14 926.05,581.84 926.1,581.49 L926.25,580.65 C926.25,580.45 926.32,580.24 926.36,580.01 C926.45,579.51 926.55,579.01 926.66,578.37 C926.72,578.01 926.79,577.63 926.87,577.25 C927.1,576.05 927.37,574.73 927.66,573.38 C927.75,572.96 927.85,572.53 927.95,572.11 C928.05,571.69 928.19,571.11 928.32,570.59 C928.4,570.28 928.47,569.98 928.56,569.67 C928.79,568.75 929.04,567.86 929.31,567.01 C931.31,560.4 933.72,548.77 933.72,548.77 L948.33,510.39 L948.5,509.93 L948.96,510.82 C950.48,513.89 955.25,524.34 955.25,534.13 C955.25,534.13 956.99,548.13 956.51,551.89 C956.03,555.65 957.93,573.43 957.93,573.43 C957.93,573.43 959.93,598.89 959.93,599.99 C959.93,601.09 962.45,620.75 964.02,623.73 C965.59,626.71 962.45,635.84 961.5,636.73 C960.55,637.62 961.82,660.79 961.82,660.79 C961.82,660.79 959.46,679.02 958.98,682.79 C958.88,683.69 958.68,685.2 958.47,687.05 L959.68,686.48 L959.85,686.39 C975.85,678.71 991.7,670.6 1006.96,661.79 L1007.09,637.68 C1007.09,637.68 1008.19,627.14 1006.94,622.9 C1005.69,618.66 1004.42,610.48 1006.14,608.27 C1007.86,606.06 1006.31,595.86 1006.31,595.86 C1006.31,595.86 1006.31,574.32 1008.66,568.98 C1011.01,563.64 1010.24,529.83 1010.24,529.83 L1010.86,507.67 C1010.86,507.67 1015.99,502.78 1014.78,477.26 C1014.65,474.54 1014.45,471.59 1014.17,468.37 C1013.3,458.74 1012.42,450.02 1011.62,442.47 C1011.55,441.82 1011.48,441.18 1011.41,440.56 C1011.33,439.72 1011.23,438.89 1011.15,438.08 C1010.96,436.37 1010.78,434.73 1010.6,433.17 C1010.54,432.71 1010.49,432.26 1010.44,431.81 C1010.18,429.57 1009.93667,427.503333 1009.71,425.61 C1009.63,424.87 1009.53,424.14 1009.45,423.45 C1009.32,422.45 1009.2,421.45 1009.09,420.52 C1009.09,420.3 1009.03,420.08 1009,419.86 C1009,419.46 1008.91,419.08 1008.86,418.71 C1008.34,414.63 1008.03,412.4 1008.03,412.4 L1007.89,412.4 L992.08,412.54 L957.57,412.87 L956.56,412.87 L938.56,413.04 L937.46,413.04 L928.82,413.13 L927.35,413.13 L909.35,413.3 L908.26,413.3 L900.87,443.76 L885.78,478.35 C885.78,478.35 885.55,482.14 885.02,485.84 L885.02,486.06 C885.02,486.19 885.02,486.31 884.96,486.42 C884.9,486.53 884.9,486.8 884.87,486.98 C884.661292,488.658326 884.23435,490.302219 883.6,491.87 C883.098545,492.964464 882.761573,494.12702 882.6,495.32 C882.402164,496.586497 882.325151,497.86893 882.37,499.15 C882.37,499.29 882.37,499.36 882.37,499.36 C882.37,499.36 881.17,504.81 880.47,509.45 C880.34,510.34 880.22,511.2 880.15,512 C880.014439,512.970387 879.967579,513.951108 880.01,514.93 C880.064959,515.931261 880.028139,516.935452 879.9,517.93 C879.9,518.29 879.82,518.66 879.77,519.03 C879.28,522.71 878.29,526.83 878.29,526.83 L875.45,554.19 C875.45218,554.21996 875.45218,554.25004 875.45,554.28 C875.45,554.39 875.45,554.59 875.45,554.85 C875.45,555.11 875.45,555.21 875.45,555.42 C875.45,555.63 875.45,555.87 875.39,556.14 C875.39,556.79 875.29,557.56 875.22,558.46 C875.22,558.78 875.2,559.113333 875.16,559.46 C875.16,559.76 875.16,560.08 875.1,560.41 C875.1,560.58 875.1,560.75 875.1,560.93 C875.1,561.11 875.1,561.45 875.05,561.72 C875,561.99 875.05,562.23 875.05,562.48 C875.05,562.73 875.05,562.95 875.05,563.19 C874.97,564.66 874.87,566.25 874.8,567.86 C874.8,568.12 874.8,568.38 874.8,568.64 L874.8,569.4 C874.8,569.91 874.8,570.4 874.73,570.94 C874.73,571.28 874.73,571.63 874.73,571.94 C874.73,572.25 874.73,572.88 874.73,573.34 L874.73,573.76 C874.73,574.06 874.73,574.36 874.73,574.64 C874.73,575.31 874.73,575.96 874.73,576.59 C874.73,576.87 874.73,577.16 874.73,577.44 C874.73,578.346667 874.73,579.206667 874.73,580.02 C874.73,580.43 874.73,580.82 874.73,581.2 C874.741479,582.3172 874.82163,583.432637 874.97,584.54 C875.07,585.28 875.15,586.04 875.2,586.82 C875.2,587.21 875.2,587.6 875.2,587.98 C875.2,588.36 875.2,588.76 875.2,589.15 C875.2,589.54 875.2,589.69 875.2,589.95 C875.2,590.37 875.2,590.78 875.2,591.19 C875.2,591.36 875.2,591.52 875.2,591.68 C875.2,591.84 875.2,592.27 875.2,592.56 L875.2,593.04 C874.95,596.48 874.48,599.27 874.41,599.71 C874.41,599.71 874.41,599.71 874.41,599.71 C874.41,599.71 874.41,599.8 874.41,599.97 C874.41,600.14 874.41,600.12 874.41,600.21 C874.41,600.3 874.41,600.38 874.41,600.48 C874.41,600.58 874.41,600.59 874.41,600.65 C874.41,600.9 874.47,601.22 874.5,601.57 C874.5,601.73 874.5,601.89 874.5,602.07 C874.5,602.25 874.5,602.45 874.56,602.65 C874.62,602.85 874.56,602.84 874.56,602.95 C874.56,603.31 874.62,603.68 874.66,604.07 C874.7,604.46 874.74,604.88 874.78,605.3 L874.84,606.09 C874.84,606.47 874.92,606.87 874.95,607.26 L874.95,607.66 C874.95,607.93 875.01,608.19 875.03,608.47 L875.12,609.7 C875.12,609.97 875.18,610.25 875.2,610.52 L875.2,610.94 L875.33,612.56 C875.33,612.83 875.33,613.09 875.38,613.36 C875.38,613.78 875.44,614.21 875.48,614.61 C875.52,615.01 875.48,615.53 875.55,615.95 C875.62,616.37 875.6,616.79 875.61,617.17 C875.711063,618.260998 875.711063,619.359002 875.61,620.45 C874.951886,623.054169 874.431167,625.691143 874.05,628.35 C874.05,628.66 873.96,628.97 873.93,629.29 C873.9,629.61 873.93,629.66 873.93,629.85 L873.87,630.6 C873.87,631.2 873.8,631.81 873.8,632.4 C873.775329,633.67141 873.926766,634.940117 874.25,636.17 C874.5211,637.260327 874.705014,638.370497 874.8,639.49 C874.88,640.13 874.93,640.81 874.97,641.49 C875.01,642.17 875.03,642.91 875.06,643.64 C875.06,644.12 875.06,644.64 875.06,645.09 C875.12,649.84 874.86,654.38 874.86,654.38 C874.857796,654.41997 874.857796,654.46003 874.86,654.5 L874.86,654.58 C874.96,656.58 875.86,672.35 876.86,677.65 C877.033048,678.588863 877.149922,679.537215 877.21,680.49 C877.21,680.78 877.21,681.07 877.26,681.36 C877.332904,684.439413 877.095034,687.518328 876.55,690.55 C876.55,690.55 875.08,702.76 874.61,702.76 C874.37,702.76 873.17,704.98 873.2,708.23 L873.2,708.31 C873.2,711.37 874.38,715.31 878.39,719.31 L879.51,720.43 C884.19,718.76 888.83,717.02 893.46,715.25 C895.92,714.3 898.38,713.35 900.83,712.37 C906.883333,709.976667 912.883333,707.516667 918.83,704.99 L919.18,704.76 Z" id="Shape" fill="#3F3D56"></path>
            <path d="M1001.64,232.35 L978.37,257.2 C978.37,257.2 948.51,245.2 951.65,241.2 C952.87,239.62 952.65,234.63 951.97,229.12 C950.87,220.41 948.51,210.38 948.51,210.38 C948.51,210.38 1000.7,201.89 996.29,210.7 C994.69,213.91 994.96,217.7 995.96,221.14 C997.24426,225.155312 999.16176,228.939668 1001.64,232.35 Z" id="Shape" fill="#A5636D"></path>
            <path d="M996.29,210.66 C994.69,213.87 993.92,214.18 994.92,217.66 C988.1,224.98 979.42,232.99 968.63,232.99 C962.849239,233.000688 957.145363,231.665447 951.97,229.09 C950.87,220.38 948.51,210.35 948.51,210.35 C948.51,210.35 1000.7,201.85 996.29,210.66 Z" id="Shape" fill="#000000" opacity="0.1"></path>
            <path d="M1006.05,194.62 C1006.05,215.286495 989.2965,232.04 968.63,232.04 C947.963505,232.04 931.21,215.286495 931.21,194.62 C931.21,194.44 931.21,194.26 931.21,194.08 C931.657566,173.632439 948.439142,157.332257 968.891068,157.479845 C989.34299,157.627434 1005.88758,174.168109 1006.04,194.62 L1006.05,194.62 Z" id="Shape" fill="#A5636D"></path>
            <path d="M1011.46,441.46 C1006.46,441.46 990,441.64 971.56,441.93 L971.33,441.93 L965.24,442.03 L965.05,442.03 C943.18,442.38 921.63,438.11 912.98,438.92 C894.58,440.65 919.58,421.92 919.58,421.92 C933.286607,425.24539 947.385069,426.67206 961.48,426.16 L966.77,425.88 C983.48,424.94 1000.28,423.37 1009.06,420.73 C1009.67,425.61 1010.56,432.68 1011.46,441.46 Z" id="Shape" fill="#000000" opacity="0.1"></path>
            <path d="M1011.46,440.52 C1006.46,440.52 990,440.69 971.56,440.99 L971.33,440.99 L965.24,441.09 L965.05,441.09 C943.18,441.44 921.63,437.17 912.98,437.98 C894.58,439.7 919.58,420.98 919.58,420.98 C933.286538,424.305154 947.385427,425.728502 961.48,425.21 L966.77,424.94 C983.48,424 1000.28,422.42 1009.06,419.79 C1009.67,424.67 1010.56,431.76 1011.46,440.52 Z" id="Shape" fill="#5F5D7E"></path>
            <path d="M958.56,242.76 L929.63,256.28 L907.32,428.86 C907.32,428.86 920.52,422.86 928.07,426.66 C935.62,430.46 958.88,426.98 958.88,426.98 C958.88,426.98 975.88,425.98 978.37,427.92 C980.86,429.86 1010.45,420.06 1010.45,420.06 C1010.45,420.06 1015.79,408.11 1011.7,406.23 C1007.61,404.35 1012.96,385.76 1012.96,385.76 L1010.45,261.25 L1005.45,245.25 L991.93,237.08 L978.1,248.08 L971.5,249.03 L958.56,242.76 Z" id="Shape" fill="#000000" opacity="0.1"></path>
            <path d="M958.56,240.84 L929.64,254.36 L907.32,426.98 C907.32,426.98 920.52,420.98 928.07,424.78 C935.62,428.58 958.88,425.09 958.88,425.09 C958.88,425.09 975.88,424.15 978.37,426.03 C980.86,427.91 1010.45,418.17 1010.45,418.17 C1010.45,418.17 1015.79,406.23 1011.7,404.34 C1007.61,402.45 1012.96,383.9 1012.96,383.9 L1010.45,259.39 L1005.45,243.39 L991.93,235.21 L978.1,246.21 L971.5,247.15 L958.56,240.84 Z" id="Shape" fill="#E7EFFD"></path>
            <path d="M951.65,231.41 C951.65,231.41 950.39,232.35 950.08,238.64 C949.77,244.93 945.36,259.08 945.36,259.08 C945.36,259.08 961.71,247.76 969.89,249.02 L951.65,231.41 Z" id="Shape" fill="#000000" opacity="0.1"></path>
            <path d="M951.65,229.52 C951.65,229.52 950.39,230.47 950.08,236.75 C949.77,243.03 945.36,257.19 945.36,257.19 C945.36,257.19 961.71,245.87 969.89,247.13 L951.65,229.52 Z" id="Shape" fill="#E7EFFD"></path>
            <path d="M996.3,226.38 L970.56,249.02 C970.56,249.02 992.26,261.91 995.09,265.02 C997.92,268.13 1000.75,234.21 1000.75,234.21 L996.3,226.38 Z" id="Shape" fill="#000000" opacity="0.1"></path>
            <path d="M997.24,224.49 L971.46,247.13 C971.46,247.13 993.15,260.02 995.98,263.13 C998.81,266.24 1001.64,232.31 1001.64,232.31 L997.24,224.49 Z" id="Shape" fill="#E7EFFD"></path>
            <path d="M952.56,231.41 C952.56,231.41 949.73,229.99 947.06,234.08 C944.39,238.17 939.36,240.08 939.36,240.08 C939.36,240.08 910.74,244.64 909.64,248.41 L896.28,249.19 C896.28,249.19 891.56,249.76 891.12,259.76 C890.68,269.76 888.12,270.6 888.12,270.6 C888.12,270.6 882.61,280.35 883.12,285.38 C883.63,290.41 878.87,292.93 878.87,292.93 L898.56,343.97 C898.56,343.97 899.19,365.04 895.56,372.74 C891.93,380.44 885.18,414.56 885.18,414.56 C885.18,414.56 888.01,413.93 887.85,415.82 C887.69,417.71 884.39,438.3 884.39,438.3 C884.39,438.3 883.45,446.47 881.88,449.3 C880.31,452.13 880.15,466.91 880.15,466.91 L877.56,477.6 C877.56,477.6 883.56,490.96 892.66,489.07 C901.76,487.18 918.28,451.5 918.28,451.5 L928.81,412.99 L936.99,374.94 L939.35,349.16 L943.12,292.09 L948.62,254.36 C948.62,254.36 954.79,234.08 952.56,231.41 Z" id="Shape" fill="#000000" opacity="0.1"></path>
            <path d="M951.65,229.52 C951.65,229.52 948.82,228.11 946.15,232.2 C943.48,236.29 938.44,238.2 938.44,238.2 C938.44,238.2 909.83,242.76 908.73,246.53 L895.37,247.32 C895.37,247.32 890.65,247.95 890.18,257.85 C889.71,267.75 887.18,268.7 887.18,268.7 C887.18,268.7 881.68,278.45 882.18,283.48 C882.68,288.51 877.94,291.02 877.94,291.02 L897.56,342.08 C897.56,342.08 898.19,363.15 894.56,370.85 C890.93,378.55 884.19,412.67 884.19,412.67 C884.19,412.67 887.02,412.04 886.86,413.93 C886.7,415.82 883.4,436.41 883.4,436.41 C883.4,436.41 882.46,444.58 880.89,447.41 C879.32,450.24 879.16,465.02 879.16,465.02 L876.66,475.76 C876.66,475.76 882.66,489.12 891.75,487.24 C900.84,485.36 917.38,449.66 917.38,449.66 L927.91,411.15 L936.09,373.15 L938.44,347.37 L942.22,290.31 L947.72,252.58 C947.72,252.58 953.85,232.2 951.65,229.52 Z" id="Shape" fill="#65617D"></path>
            <path d="M850.72,351.2 L841.56,357.49 C841.56,357.49 827.62,357.93 817.66,355.49 L812.58,353.24 L811.58,352.79 L812.63,353.12 C817.89,354.68 822,354.65 825.21,353.57 C838.12,349.23 836.69,327.92 836.21,323.1 C836.21,322.62 836.13,322.31 836.11,322.19 C836.107851,322.170058 836.107851,322.149942 836.11,322.13 L836.19,322.25 C836.361599,322.543658 836.559048,322.821425 836.78,323.08 C836.960258,323.295377 837.153979,323.499119 837.36,323.69 L841.91,332.8 C841.91,332.8 841.91,332.93 841.91,333.18 L850.72,351.2 Z" id="Shape" fill="#000000" opacity="0.1"></path>
            <path d="M882.32,289.76 L877.92,291.02 L877.29,300.02 C877.29,300.02 872.1,299.24 870.69,305.37 C869.28,311.5 866.76,314.37 866.76,314.37 C866.76,314.37 858.11,321.6 857.64,327.73 L852.29,331.03 C852.29,331.03 839.87,328.2 837.04,323.17 C837.04,323.17 842.7,363.73 812.52,353.83 C812.52,353.83 846.32,368.61 847.89,370.65 C849.46,372.69 859.84,378.65 869.27,373.65 C878.7,368.65 880.75,360.76 880.75,360.76 C880.75,360.76 889.87,348.03 890.18,346.14 C890.49,344.25 897.57,342.05 897.57,342.05 L911.09,309.36 L882.32,289.76 Z" id="Shape" fill="#65617D"></path>
            <path d="M992.68,245.24 L997.24,224.49 C997.24,224.49 999.24,231.25 1001.33,232.82 C1003.42,234.39 1008.09,238.01 1008.09,238.01 C1008.09,238.01 1014.85,241.16 1017.2,241.16 C1019.55,241.16 1032.3,244.46 1033.87,246.16 C1035.44,247.86 1041.73,246.63 1041.73,246.63 C1041.73,246.63 1046.92,248.36 1051.48,249.46 C1056.04,250.56 1058.24,258.11 1057.29,261.09 C1056.5193,264.110017 1057.34963,267.314326 1059.49,269.58 C1061.38,271.47 1062.32,277.58 1062.32,277.58 C1064.63555,278.333842 1066.55883,279.973128 1067.67,282.14 C1069.24,285.6 1068.77,293.14 1068.77,293.14 L1045.35,326.14 C1045.35,326.14 1045.66,338.87 1044.72,341.7 C1043.78,344.53 1048.02,392.64 1048.02,392.64 L1052.89,475.33 C1052.89,475.33 1046.45,480.83 1045.03,481.46 C1043.61,482.09 1042.2,452.22 1042.2,451.12 C1042.2,450.02 1005.89,396.72 1005.89,396.72 C1005.89,396.72 1001.01,388.86 1001.01,387.13 C1001.01,385.4 996.45,369.53 996.45,369.53 L989.56,338.94 L992.68,245.24 Z" id="Shape" fill="#000000" opacity="0.1"></path>
            <path d="M1070.72,291.39 C1070.72,292.47 1070.66,293.19 1070.66,293.19 L1047.25,326.19 C1047.25,326.19 1047.57,338.93 1046.63,341.76 C1046.08,343.4 1047.28,360.32 1048.39,374.21 C1049.18,384.21 1049.93,392.69 1049.93,392.69 L1051.99,427.77 L1054.79,475.39 C1054.79,475.39 1048.35,480.89 1046.94,481.52 C1045.53,482.15 1044.11,452.28 1044.11,451.17 C1044.11,450.06 1007.77,396.76 1007.77,396.76 C1007.77,396.76 1002.9,388.89 1002.9,387.16 C1002.9,385.43 998.34,369.55 998.34,369.55 L991.43,338.9 L994.57,245.2 L997.24,224.45 C997.24,224.45 1001.17,231.22 1003.24,232.78 C1005.31,234.34 1009.99,237.97 1009.99,237.97 C1009.99,237.97 1016.75,241.12 1019.11,241.12 C1021.47,241.12 1034.2,244.42 1035.78,246.12 C1037.36,247.82 1043.64,246.59 1043.64,246.59 C1043.64,246.59 1048.82,248.32 1053.38,249.42 C1057.94,250.52 1060.14,258.07 1059.2,261.05 C1058.42342,264.070025 1059.25449,267.277172 1061.4,269.54 C1063.28,271.42 1064.23,277.54 1064.23,277.54 C1066.54392,278.296737 1068.46623,279.935188 1069.58,282.1 C1070.65,284.58 1070.75,288.94 1070.72,291.39 Z" id="Shape" fill="#65617D"></path>
            <path d="M900.83,712.29 C898.38,713.29 895.92,714.22 893.46,715.17 C885.75,712.92 878.55,710.27 878.55,710.27 C886.007931,710.536781 893.445698,711.211121 900.83,712.29 Z" id="Shape" fill="#000000" opacity="0.1"></path>
            <path d="M975.23,628.36 C975.23,628.36 993.94,632.76 995.04,635.75 L975.23,628.36 Z" id="Shape" fill="#000000" opacity="0.1"></path>
            <path d="M903.07,641.88 C903.07,641.88 893.32,644.71 902.76,650.37 C912.2,656.03 903.07,641.88 903.07,641.88 Z" id="Shape" fill="#000000" opacity="0.1"></path>
            <path d="M946.3,490.76 C947.4,490.76 964.54,485.1 970.51,487.62 C976.48,490.14 983.88,490.13 983.88,490.13 L946.3,490.76 Z" id="Shape" fill="#000000" opacity="0.1"></path>
            <path d="M948.56,508.76 L948.39,510.32 L933.73,548.66 C933.73,548.66 931.37,560.29 929.32,566.89 C928.034377,571.376355 927.012628,575.93416 926.26,580.54 L939.26,500.08 L948.56,508.76 Z" id="Shape" fill="#000000" opacity="0.1"></path>
            <path d="M971.33,440.99 L965.24,441.09 L965.05,441.09 L961.48,425.24 C963.23,425.16 965,425.07 966.77,424.96 L971.33,440.99 Z" id="Shape" fill="#3F3D56"></path>
            <path d="M1045.5,421.76 L1041.59,424.99 L1028.56,435.76 C1028.56,435.76 993.19,454.63 983.45,436.7 C974.86,420.91 1014.96,409.64 1024.62,407.18 C1025.93,406.85 1026.68,406.68 1026.68,406.68 L1045.5,421.76 Z" id="Shape" fill="#A5636D"></path>
            <path d="M894.43,267.25 C894.43,267.25 901.34,270.4 902.91,274.8 C904.48,279.2 894.43,267.25 894.43,267.25 Z" id="Shape" fill="#000000" opacity="0.1"></path>
            <path d="M873.04,314.42 C873.04,314.42 862.98,326.68 867.04,331.42 C871.1,336.16 873.04,314.42 873.04,314.42 Z" id="Shape" fill="#000000" opacity="0.1"></path>
            <path d="M1052.89,274.17 C1052.89,274.17 1043.46,275.11 1043.14,283.29 L1052.89,274.17 Z" id="Shape" fill="#000000" opacity="0.1"></path>
            <path d="M965.48,403.08 C966.48,402.14 988.12,370.08 993.15,372.9 L965.48,403.08 Z" id="Shape" fill="#000000" opacity="0.1"></path>
            <path d="M1006.05,194.62 C1006.0552,200.782276 1004.53317,206.849794 1001.62,212.28 L1001.34,212.28 C998.97,211.78 997.74,209.02 995.93,207.28 C993.64553,205.108861 990.23334,204.630591 987.44,206.09 C984.62864,207.7683 983.0125,210.895934 983.27,214.16 C982.07,209.16 982.45,203.77 981.27,198.73 C980.09,193.69 976.58,188.58 971.76,188.49 C969.68,188.49 967.26,189.26 965.76,187.7 C964.85,186.76 964.67,185.28 963.99,184.14 C960.54,178.57 950.06,181.39 945.78,184.25 C941.5,187.11 936.53,191.67 931.21,194.12 C931.657566,173.672439 948.439142,157.372257 968.891068,157.519845 C989.34299,157.667434 1005.88758,174.208109 1006.04,194.66 L1006.05,194.62 Z" id="Shape" fill="#000000" opacity="0.1"></path>
            <path d="M964,183.16 C964.68,184.3 964.86,185.78 965.77,186.72 C967.27,188.27 969.69,187.47 971.77,187.51 C976.59,187.59 980.11,192.7 981.28,197.74 C982.45,202.78 982.07,208.14 983.28,213.17 C983.02643,209.909406 984.64205,206.786653 987.45,205.11 C990.23972,203.649087 993.65013,204.12767 995.93,206.3 C997.74,208.02 998.93,210.78 1001.35,211.3 C1003.77,211.82 1006.01,209.52 1006.87,207.02 C1007.73,204.52 1007.66,201.78 1008.22,199.19 C1009.29,194.28 1012.49,190.26 1014.22,185.6 C1016.32883,179.926318 1016.27187,173.674313 1014.06,168.04 C1012.88,165.04 1011.13,162.43 1009.93,159.48 C1008.13,155 1007.65,149.95 1005.45,145.68 C1001.75,138.53 993.03,134.96 985.87,137.68 C982.45,138.97 979.48,141.46 976.01,142.57 C971.37,144.06 966.4,142.94 961.59,142.27 C956.78,141.6 951.46,141.54 947.59,144.7 C943.14,148.34 941.92,155.18 937.74,159.18 C935.98,160.86 933.8,161.93 931.95,163.48 C930.1,165.03 928.5,167.34 928.71,169.86 C928.99,173.12 932.18,176.08 931,179.09 C930.576005,179.965772 929.980981,180.747804 929.25,181.39 C925.751598,185.064299 923.147481,189.495747 921.64,194.34 C930.06,196.97 939.16,187.69 945.75,183.34 C950.08,180.41 960.56,177.58 964,183.16 Z" id="Shape" fill="#4C3E42"></path>
            <path d="M1045.5,421.76 L1041.59,424.99 C1038.14,419.24 1023.97,407.76 1023.97,407.76 L1024.58,407.17 C1025.89,406.84 1026.64,406.67 1026.64,406.67 L1045.5,421.76 Z" id="Shape" fill="#000000" opacity="0.1"></path>
            <path d="M1049.28,415.97 C1049.28,415.97 1047.87,419.47 1046.42,422.5 C1044.97,425.53 1043.42,428.27 1043.3,426.04 C1043.14,421.63 1024.91,406.85 1024.91,406.85 L1027.38,404.45 L1030.25,401.66 L1049.28,415.97 Z" id="Shape" fill="#E7EFFD"></path>
            <path d="M1049.91,392.7 L1051.97,427.78 C1047.09,420.19 1033.68,400.72 1025.06,401.35 L1045.97,377.35 C1046.84355,376.382827 1047.64567,375.35345 1048.37,374.27 C1049.16,384.25 1049.91,392.7 1049.91,392.7 Z" id="Shape" fill="#000000" opacity="0.1"></path>
            <path d="M1049.28,415.97 C1049.28,415.97 1047.87,419.47 1046.42,422.5 C1040.94,414.98 1033.42,406.11 1027.42,404.45 L1030.29,401.66 L1049.28,415.97 Z" id="Shape" fill="#000000" opacity="0.1"></path>
            <path d="M1065,288.76 L1070.66,293.16 C1070.66,293.16 1080.09,293.32 1081.03,301.16 C1081.97,309 1090.62,312.64 1090.62,312.64 C1090.62,312.64 1097.07,319.08 1097.07,322.07 C1097.07,325.06 1101.94,330.4 1101.94,330.87 C1101.94,331.34 1106.66,340.93 1106.03,342.66 C1105.4,344.39 1111.03,351.94 1109.33,354.77 C1107.90984,357.308396 1106.65069,359.933575 1105.56,362.63 C1105.56,362.63 1098.17,376.78 1094.39,379.45 C1090.61,382.12 1073.33,404.6 1073.33,404.6 C1073.33,404.6 1054.78,425.98 1054.78,432.6 C1054.78,432.6 1036.7,402.41 1026.01,403.2 L1046.92,379.15 C1046.92,379.15 1050.53,375.22 1050.69,372.86 C1050.85,370.5 1060.75,359.65 1065.47,359.18 C1065.47,359.18 1066.25,352.73 1064.21,352.58 C1062.17,352.43 1060.44,347.39 1060.44,347.39 C1060.44,347.39 1046.6,331.04 1046.44,320.66 C1046.28,310.28 1065,288.76 1065,288.76 Z" id="Shape" fill="#65617D"></path>
            <path d="M1073.33,303.76 C1073.33,303.76 1060.12,313.5 1062.95,316.65 C1065.78,319.8 1073.33,303.76 1073.33,303.76 Z" id="Shape" fill="#000000" opacity="0.1"></path>
            <path d="M1073.96,343.97 C1073.96,343.97 1098.48,336.11 1100.96,343.97 L1073.96,343.97 Z" id="Shape" fill="#000000" opacity="0.1"></path>
            <path d="M900.95,301.84 C900.95,301.84 900.95,337.68 897.88,341.22 C894.81,344.76 900.95,301.84 900.95,301.84 Z" id="Shape" fill="#000000" opacity="0.1"></path>
            <path d="M1042.67,313.39 L1047.23,326.2 C1047.23,326.2 1049.04,313.63 1042.67,313.39 Z" id="Shape" fill="#000000" opacity="0.1"></path>
            <g id="Group" opacity="0.1" transform="translate(921.000000, 166.000000)" fill="#000000">
                <path d="M10.56,9.98 C11.71,7.03 8.7,4.14 8.3,0.98 C7.90493876,1.87194375 7.73331565,2.84676301 7.8,3.82 C8,6.21 9.8,8.43 10.23,10.64 C10.3601007,10.4306378 10.4705706,10.2096979 10.56,9.98 Z" id="Shape"></path>
                <path d="M62.69,43.84 C61.56,38.84 61.89,33.63 60.75,28.68 C59.61,23.73 56.06,18.52 51.24,18.44 C49.16,18.44 46.74,19.2 45.24,17.65 C44.33,16.71 44.15,15.23 43.47,14.09 C40.03,8.52 29.55,11.34 25.26,14.2 C18.83,18.47 10,27.41 1.75,25.39 C1.36,26.34 0.99,27.3 0.68,28.29 C9.1,30.92 18.2,21.64 24.79,17.29 C29.08,14.44 39.55,11.61 43,17.19 C43.68,18.33 43.86,19.81 44.77,20.75 C46.27,22.3 48.69,21.5 50.77,21.54 C55.59,21.62 59.11,26.73 60.28,31.77 C61.45,36.81 61.07,42.17 62.28,47.2 C62.1911123,46.0638626 62.3305168,44.9214255 62.69,43.84 Z" id="Shape"></path>
                <path d="M86.33,37.94 C85.47,40.44 83.23,42.73 80.81,42.22 C78.39,41.71 77.21,38.96 75.4,37.22 C73.1118435,35.0550817 69.7018158,34.5811321 66.91,36.04 C64.2403694,37.6304027 62.6438094,40.544029 62.74,43.65 C63.3711134,41.7295402 64.6885659,40.1094297 66.44,39.1 C69.2297202,37.6390865 72.6401334,38.1176705 74.92,40.29 C76.73,42.01 77.92,44.77 80.34,45.29 C82.76,45.81 85,43.51 85.86,41.01 C86.3038641,39.537534 86.5921068,38.0225844 86.72,36.49 C86.6159199,36.9799349 86.4857343,37.4639583 86.33,37.94 Z" id="Shape"></path>
                <path d="M93.72,16.53 C91.95,21.19 88.72,25.21 87.72,30.11 C87.5,31.11 87.38,32.11 87.26,33.11 C88.33,28.23 91.52,24.22 93.26,19.57 C94.0484389,17.4759366 94.5366109,15.280846 94.71,13.05 C94.4727873,14.2344132 94.1417434,15.3980826 93.72,16.53 Z" id="Shape"></path>
            </g>
            <circle id="Oval" fill="#E6E8EC" cx="787.53" cy="295.97" r="1"></circle>
            <path d="M473.26,515.39 C473.26,515.39 484.26,507.5 495.69,512.39 C495.69,512.39 492.49,519.17 478.29,519.08 L473.26,515.39 Z" id="Shape" fill="#6C63FF"></path>
            <path d="M471.89,515.85 C471.89,515.85 468.95,529.08 477.89,537.66 C477.89,537.66 482.89,532.06 477.22,519.03 L471.89,515.85 Z" id="Shape" fill="#6C63FF"></path>
            <path d="M457.31,503.81 C457.31,503.81 457.72,492.64 483.01,495.37 C483.01,495.37 483.41,502.56 474.71,506.3 C466.01,510.04 461.86,507.33 457.31,503.81 Z" id="Shape" fill="#6C63FF"></path>
            <path d="M455.76,503.76 C455.76,503.76 445.26,507.58 455.64,530.81 C455.64,530.81 462.64,528.97 463.48,519.54 C464.32,510.11 460.5,507.04 455.76,503.76 Z" id="Shape" fill="#6C63FF"></path>
            <path d="M440.92,488.54 C440.92,488.54 438.78,470.27 464.56,471.16 C464.56,471.16 467.02,487.68 445.63,492.77 L440.92,488.54 Z" id="Shape" fill="#6C63FF"></path>
            <path d="M423.14,468.5 C423.14,468.5 425.87,447.59 451.8,452.8 C451.8,452.8 452.58,470.8 427.52,473.29 L423.14,468.5 Z" id="Shape" fill="#6C63FF"></path>
            <path d="M409.91,447.58 C409.91,447.58 415.03,427.08 440.72,432.21 C440.72,432.21 435.36,450.63 411.72,451.21 L409.91,447.58 Z" id="Shape" fill="#6C63FF"></path>
            <path d="M397.32,427.14 C397.32,427.14 402.32,405.92 427.09,411.29 C427.09,411.29 419.65,431.55 399.09,430.66 L397.32,427.14 Z" id="Shape" fill="#6C63FF"></path>
            <path d="M388.95,407.59 C388.95,407.59 392.4,381.76 415.56,386.54 C415.56,386.54 409.8,410.16 390.8,411.26 L388.95,407.59 Z" id="Shape" fill="#6C63FF"></path>
            <path d="M380.91,383.88 C380.91,383.88 385.24,357.79 408.69,364.43 C408.69,364.43 400.54,389.24 382.69,387.43 L380.91,383.88 Z" id="Shape" fill="#6C63FF"></path>
            <path d="M375.64,361.76 C375.64,361.76 383.1,335.549991 401.06,335.559982 C401.06,335.559982 393.46,363.23 377.34,366.89 L375.64,361.76 Z" id="Shape" fill="#6C63FF"></path>
            <path d="M372.01,340.07 C372.01,340.07 380.01,308.56 394.69,310.4 C394.69,310.4 389.24,334.46 372.69,344.9 L372.01,340.07 Z" id="Shape" fill="#6C63FF"></path>
            <path d="M369.42,314.12 C369.42,314.12 377.04,287.82 391.42,286.24 C391.42,286.24 386.53,312.01 370.01,320.85 L369.42,314.12 Z" id="Shape" fill="#6C63FF"></path>
            <path d="M366.75,289.97 C366.75,289.97 376.5,263.57 386,262.62 C386,262.62 382.31,288.39 367.86,294.2 L366.75,289.97 Z" id="Shape" fill="#6C63FF"></path>
            <path d="M364.69,267.47 C364.69,267.47 370.22,238.98 379.63,236.28 C379.63,236.28 379.22,259.42 365.73,269.54 L364.69,267.47 Z" id="Shape" fill="#6C63FF"></path>
            <path d="M359.98,238.1 C359.98,238.1 366.07,215.33 373.64,211.61 C373.64,211.61 373.13,238.19 361.98,243.53 L359.98,238.1 Z" id="Shape" fill="#6C63FF"></path>
            <path d="M356.27,218.83 L353.35,179.2 C353.35,179.2 368.86,208.6 357.56,225.76 L356.27,218.83 Z" id="Shape" fill="#6C63FF"></path>
            <path d="M343.64,179.82 C343.64,179.82 332.18,151.25 329.64,149.73 C329.64,149.73 350.64,167.73 349.64,192 L343.64,179.82 Z" id="Shape" fill="#6C63FF"></path>
            <path d="M440.21,488.43 C440.21,488.43 421.89,486.75 423.42,512.49 C423.42,512.49 440,514.49 444.56,493.03 L440.21,488.43 Z" id="Shape" fill="#6C63FF"></path>
            <path d="M422.25,467.84 C422.25,467.84 401.18,468.58 403.91,494.84 C403.91,494.84 421.71,497.32 426.6,472.62 L422.25,467.84 Z" id="Shape" fill="#6C63FF"></path>
            <path d="M409.77,449.3 C409.77,449.3 390.3,441.06 378.95,464.67 C378.95,464.67 396.9,471.47 411.6,452.97 L409.77,449.3 Z" id="Shape" fill="#6C63FF"></path>
            <path d="M396.9,427.35 C396.9,427.35 376.95,418.56 366.32,441.61 C366.32,441.61 386.99,447.85 398.65,430.87 L396.9,427.35 Z" id="Shape" fill="#6C63FF"></path>
            <path d="M389.22,408.14 C389.22,408.14 369.69,390.86 355.35,409.64 C355.35,409.64 375.17,423.71 390.24,412.11 L389.22,408.14 Z" id="Shape" fill="#6C63FF"></path>
            <path d="M381.96,383.23 C381.96,383.23 362.29,365.54 348.11,385.37 C348.11,385.37 369.97,399.66 382.78,387.06 L381.96,383.23 Z" id="Shape" fill="#6C63FF"></path>
            <path d="M377.56,360.93 C377.56,360.93 362.07,338.51 345.08,344.29 C345.08,344.29 361.16,368.05 377.6,366.29 L377.56,360.93 Z" id="Shape" fill="#6C63FF"></path>
            <path d="M372.43,339.91 C372.43,339.91 356.6,311.51 342.88,317.07 C342.88,317.07 354.34,338.92 373,344.76 L372.43,339.91 Z" id="Shape" fill="#6C63FF"></path>
            <path d="M370.37,312.6 C370.37,312.6 354.37,290.39 340.31,293.72 C340.31,293.72 353.55,316.35 372.09,319.14 L370.37,312.6 Z" id="Shape" fill="#6C63FF"></path>
            <path d="M368.33,289.4 C368.33,289.4 355.63,264.28 346.08,264.4 C346.08,264.4 352.69,289.58 367.7,293.71 L368.33,289.4 Z" id="Shape" fill="#6C63FF"></path>
            <path d="M365.14,266.89 C365.14,266.89 351.14,241.49 341.32,241.82 C341.32,241.82 348.84,263.71 364.79,269.19 L365.14,266.89 Z" id="Shape" fill="#6C63FF"></path>
            <path d="M362.13,239.6 C362.13,239.6 351.56,218.54 343.4,216.43 C343.4,216.43 349.27,242.36 361.28,245.33 L362.13,239.6 Z" id="Shape" fill="#6C63FF"></path>
            <path d="M355.08,218.12 L332.02,185.76 C332.02,185.76 338.86,218.28 358.5,224.31 L355.08,218.12 Z" id="Shape" fill="#6C63FF"></path>
            <path d="M338.75,182.68 C338.75,182.68 312.75,166.17 311.75,163.39 C311.75,163.39 325.61,187.39 349.65,190.78 L338.75,182.68 Z" id="Shape" fill="#6C63FF"></path>
            <path d="M336.93,174.88 C336.93,174.88 306.79,148.05 299.37,148.36 C299.37,148.36 323.37,148.54 337.57,173.36 L336.93,174.88 Z" id="Shape" fill="#6C63FF"></path>
            <path d="M362.01,243.76 L360.95,243.94 C353.85,201.39 344.95,176.42 335.8,173.64 L336.11,172.64 C345.78,175.56 354.73,200.17 362.01,243.76 Z" id="Shape" fill="#444053"></path>
            <path d="M373.95,345.7 L372.36,345.9 C371.87,341.9 371.46,337.84 371.12,333.78 C368.24,298.44 364.63,266.03 360.59,241.78 L361.47,240.6 C365.47,264.89 369.84,298.26 372.73,333.6 C373.05,337.69 373.47,341.76 373.95,345.7 Z" id="Shape" fill="#444053"></path>
            <path d="M503.9,534.61 C503.61,534.49 474.96,523 444.57,494.11 C426.777132,477.205513 411.774534,457.589067 400.12,435.99 C385.55,408.99 376.01,375.47 371.99,342.71 L373.69,343.43 C382.69,416.95 418.23,466.09 445.98,492.49 C476.07,521.12 504.4,532.49 504.68,532.62 L503.9,534.61 Z" id="Shape" fill="#444053"></path>
            <g id="Group" opacity="0.7" transform="translate(442.000000, 99.000000)">
                <path d="M81.81,402.99 C81.81,402.99 94.67,398.74 104.11,406.78 C104.11,406.78 99.04,412.31 85.51,407.99 L81.81,402.99 Z" id="Shape" fill="#6C63FF"></path>
                <path d="M80.36,403.01 C80.36,403.01 73.62,414.77 79.62,425.63 C79.62,425.63 86.05,421.76 84.52,407.63 L80.36,403.01 Z" id="Shape" fill="#6C63FF"></path>
                <path d="M70.02,387.19 C70.02,387.19 73.74,376.64 97.02,386.78 C97.02,386.78 95.26,393.78 85.84,394.78 C76.42,395.78 73.32,391.9 70.02,387.19 Z" id="Shape" fill="#6C63FF"></path>
                <path d="M68.56,386.76 C68.56,386.76 57.39,387.29 60.4,412.55 C60.4,412.55 67.58,412.87 71.23,404.13 C74.88,395.39 72.11,391.22 68.56,386.76 Z" id="Shape" fill="#6C63FF"></path>
                <path d="M58.91,367.76 C58.91,367.76 62.31,349.68 86.65,358.2 C86.65,358.2 84.08,374.7 62.15,373.2 L58.91,367.76 Z" id="Shape" fill="#6C63FF"></path>
                <path d="M47.9,343.31 C47.9,343.31 56.73,324.16 79.9,336.85 C79.9,336.85 75.31,354.22 50.63,349.18 L47.9,343.31 Z" id="Shape" fill="#6C63FF"></path>
                <path d="M41.49,319.4 C41.49,319.4 52.49,301.35 75.49,313.89 C75.49,313.89 64.89,329.89 42.15,323.45 L41.49,319.4 Z" id="Shape" fill="#6C63FF"></path>
                <path d="M35.56,296.14 C35.56,296.14 46.62,277.36 68.71,289.86 C68.71,289.86 55.58,306.99 36.19,300.02 L35.56,296.14 Z" id="Shape" fill="#6C63FF"></path>
                <path d="M33.39,274.98 C33.39,274.98 44.39,251.33 65.03,262.8 C65.03,262.8 52.5,283.63 34.03,279.03 L33.39,274.98 Z" id="Shape" fill="#6C63FF"></path>
                <path d="M32.76,249.96 C32.76,249.96 44.66,226.34 65.07,239.66 C65.07,239.66 49.9,260.92 33.39,253.83 L32.76,249.96 Z" id="Shape" fill="#6C63FF"></path>
                <path d="M34.32,227.25 C34.32,227.25 49.24,204.45 66.38,209.8 C66.38,209.8 50.89,233.96 34.38,232.66 L34.32,227.25 Z" id="Shape" fill="#6C63FF"></path>
                <path d="M37.3,205.48 C37.3,205.48 54.3,177.77 67.78,183.91 C67.78,183.91 55.41,205.25 36.53,210.3 L37.3,205.48 Z" id="Shape" fill="#6C63FF"></path>
                <path d="M42.56,179.93 C42.56,179.93 57.66,157.1 71.84,159.86 C71.84,159.86 59.51,183.01 41.1,186.54 L42.56,179.93 Z" id="Shape" fill="#6C63FF"></path>
                <path d="M47.18,156.09 C47.18,156.09 64.35,133.78 73.7,135.7 C73.7,135.7 62.51,159.2 46.99,160.46 L47.18,156.09 Z" id="Shape" fill="#6C63FF"></path>
                <path d="M51.91,133.99 C51.91,133.99 65.66,108.44 75.46,108.66 C75.46,108.66 68.18,130.66 52.28,136.28 L51.91,133.99 Z" id="Shape" fill="#6C63FF"></path>
                <path d="M56.16,104.55 C56.16,104.55 68.74,84.63 77.08,83.32 C77.08,83.32 68.68,108.55 56.45,110.32 L56.16,104.55 Z" id="Shape" fill="#6C63FF"></path>
                <path d="M58.34,85.04 L67.34,46.35 C67.34,46.35 73.41,79.02 57.54,92.08 L58.34,85.04 Z" id="Shape" fill="#6C63FF"></path>
                <path d="M57.89,44.05 C57.89,44.05 55.45,13.36 53.46,11.15 C53.46,11.15 68.19,34.61 59.96,57.45 L57.89,44.05 Z" id="Shape" fill="#6C63FF"></path>
                <path d="M58.27,367.42 C58.27,367.42 41.27,360.35 35.09,385.42 C35.09,385.42 50.3,392.31 61.09,373.13 L58.27,367.42 Z" id="Shape" fill="#6C63FF"></path>
                <path d="M47.25,342.41 C47.25,342.41 26.92,336.85 21.7,362.77 C21.7,362.77 37.95,370.44 49.98,348.31 L47.25,342.41 Z" id="Shape" fill="#6C63FF"></path>
                <path d="M40.85,321 C40.85,321 24.72,307.34 6.85,326.51 C6.85,326.51 21.96,338.34 41.5,325.05 L40.85,321 Z" id="Shape" fill="#6C63FF"></path>
                <path d="M35.09,296.22 C35.09,296.22 18.67,281.89 1.66,300.76 C1.66,300.76 19.53,312.86 35.72,300.11 L35.09,296.22 Z" id="Shape" fill="#6C63FF"></path>
                <path d="M33.48,275.59 C33.48,275.59 19.97,253.28 0.7,266.94 C0.7,266.94 15.43,286.28 33.27,279.68 L33.48,275.59 Z" id="Shape" fill="#6C63FF"></path>
                <path d="M33.96,249.64 C33.96,249.64 20.44,226.91 0.96,241.64 C0.96,241.64 17.58,261.79 33.56,253.57 L33.96,249.64 Z" id="Shape" fill="#6C63FF"></path>
                <path d="M36.38,227.04 C36.38,227.04 28.27,201.04 10.32,201.49 C10.32,201.49 18.61,228.97 34.82,232.22 L36.38,227.04 Z" id="Shape" fill="#6C63FF"></path>
                <path d="M37.75,205.45 C37.75,205.45 31.08,173.63 16.33,174.86 C16.33,174.86 20.77,199.13 36.85,210.25 L37.75,205.45 Z" id="Shape" fill="#6C63FF"></path>
                <path d="M43.91,178.76 C43.91,178.76 35.24,152.76 20.82,151.76 C20.82,151.76 26.74,177.32 43.6,185.49 L43.91,178.76 Z" id="Shape" fill="#6C63FF"></path>
                <path d="M48.86,156.01 C48.86,156.01 44.21,128.25 35.05,125.54 C35.05,125.54 33.87,151.54 46.98,159.96 L48.86,156.01 Z" id="Shape" fill="#6C63FF"></path>
                <path d="M52.56,133.57 C52.56,133.57 46.73,105.15 37.28,102.57 C37.28,102.57 37.94,125.7 51.55,135.68 L52.56,133.57 Z" id="Shape" fill="#6C63FF"></path>
                <path d="M57.76,106.63 C57.76,106.63 53.93,83.38 46.76,78.92 C46.76,78.92 44.65,105.43 55.23,111.84 L57.76,106.63 Z" id="Shape" fill="#6C63FF"></path>
                <path d="M57.42,84.02 L45.03,46.27 C45.03,46.27 41.88,79.36 58.84,90.96 L57.42,84.02 Z" id="Shape" fill="#6C63FF"></path>
                <path d="M52.37,45.33 C52.37,45.33 32.46,21.83 32.37,18.87 C32.37,18.87 38.46,45.87 60.37,56.29 L52.37,45.33 Z" id="Shape" fill="#6C63FF"></path>
                <path d="M52.95,37.34 C52.95,37.34 32.16,2.75 24.95,0.84 C24.95,0.84 47.83,8.16 53.95,36.08 L52.95,37.34 Z" id="Shape" fill="#6C63FF"></path>
                <path d="M56.4,110.56 L55.34,110.41 C61.22,67.68 60.12,41.18 52.24,35.81 L52.85,34.93 C61.2,40.62 62.43,66.76 56.4,110.56 Z" id="Shape" fill="#444053"></path>
                <path d="M37.48,211.44 L35.9,211.15 C36.62,207.2 37.43,203.15 38.33,199.21 C46.09,164.62 52.33,132.6 55.64,108.21 L56.83,107.35 C53.47,131.74 47.67,164.89 39.89,199.52 C39.01,203.52 38.19,207.51 37.48,211.44 Z" id="Shape" fill="#444053"></path>
                <path d="M105.34,430.45 C105.1,430.26 81.16,410.75 60.75,374.14 C48.7713992,352.709892 40.2690236,329.514844 35.56,305.42 C29.68,275.3 30.56,240.42 36.45,208 L37.86,209.19 C24.61,282.07 43.86,339.55 62.53,373.01 C82.74,409.29 106.4,428.59 106.64,428.78 L105.34,430.45 Z" id="Shape" fill="#444053"></path>
            </g>
            <g id="Group" opacity="0.5" transform="translate(727.000000, 601.000000)" fill="#6C63FF">
                <path d="M27.78,1.01 C27.78,1.01 -2.8,-0.83 0.78,20.6 C0.403020394,22.8284661 1.50017283,25.0469729 3.5,26.1 C3.5,26.1 3.5,24.51 6.63,25.05 C7.72945543,25.2377084 8.84761281,25.2914337 9.96,25.21 C11.4595567,25.1123541 12.8857363,24.5257236 14.02,23.54 C14.02,23.54 22.61,19.99 25.96,5.93 C25.96,5.93 28.43,2.87 28.33,2.08 L23.17,4.29 C23.17,4.29 24.94,8.01 23.55,11.1 C23.55,11.1 23.38,4.42 22.39,4.58 C22.19,4.58 19.71,5.87 19.71,5.87 C19.71,5.87 22.71,12.35 20.45,17.07 C20.45,17.07 21.32,9.07 18.76,6.34 L15.13,8.46 C15.13,8.46 18.67,15.16 16.27,20.62 C16.27,20.62 16.89,12.24 14.36,8.98 L11.07,11.54 C11.07,11.54 14.4,18.14 12.37,22.68 C12.37,22.68 12.11,12.92 10.37,12.18 C10.37,12.18 7.49,14.72 7.05,15.77 C7.05,15.77 9.33,20.56 7.92,23.09 C7.92,23.09 7.05,16.58 6.34,16.56 C6.34,16.56 3.47,20.86 3.17,23.81 C3.30835948,21.0813121 4.1600321,18.4366445 5.64,16.14 C3.98611121,16.4570024 2.46052756,17.2493328 1.25,18.42 C1.25,18.42 1.69,15.42 6.35,15.1 C6.35,15.1 8.72,11.84 9.35,11.64 C9.35,11.64 4.72,11.25 1.91,12.5 C1.91,12.5 4.38,9.62 10.19,10.93 L13.44,8.28 C13.44,8.28 7.35,7.44 4.76,8.36 C4.76,8.36 7.76,5.82 14.32,7.67 L17.86,5.56 C17.86,5.56 12.66,4.44 9.56,4.84 C9.56,4.84 12.83,3.08 18.9,4.99 L21.43,3.85 C21.43,3.85 17.62,3.1 16.5,2.99 C15.38,2.88 15.33,2.56 15.33,2.56 C17.7414743,2.16106344 20.2163262,2.43796994 22.48,3.36 C22.48,3.36 27.87,1.35 27.78,1.01 Z" id="Shape"></path>
            </g>
            <g id="Group" opacity="0.5" transform="translate(694.000000, 452.000000)" fill="#6C63FF">
                <path d="M5.91,0.35 C5.91,0.35 -9.62,26.76 11.12,33.28 C12.9350157,34.6286885 15.4104614,34.6609419 17.26,33.36 C17.26,33.36 15.87,32.59 17.74,30.09 C18.403932,29.1945609 18.9610374,28.2246603 19.4,27.2 C19.9837471,25.8154076 20.1064616,24.2797233 19.75,22.82 C19.75,22.82 20.48,13.55 9.48,4.19 C9.48,4.19 7.87,0.59 7.13,0.32 L6.75,5.92 C6.75,5.92 10.86,6.04 12.99,8.68 C12.99,8.68 6.99,5.8 6.65,6.75 C6.59,6.95 6.58,9.75 6.58,9.75 C6.58,9.75 13.74,9.99 16.9,14.17 C16.9,14.17 10.18,9.77 6.57,10.81 L6.81,15.01 C6.81,15.01 14.39,14.89 18.17,19.51 C18.17,19.51 10.98,15.15 6.93,15.92 L7.72,20.02 C7.72,20.02 15.12,20.02 18.23,23.91 C18.23,23.91 9.42,19.72 7.97,20.91 C7.97,20.91 8.97,24.63 9.65,25.5 C9.65,25.5 14.96,25.64 16.57,28.05 C16.57,28.05 10.38,25.87 10.03,26.49 C10.03,26.49 12.57,31 15.03,32.61 C12.6624704,31.2444675 10.6938312,29.2827237 9.32,26.92 C8.8260121,28.5500631 8.8260121,30.2899369 9.32,31.92 C9.32,31.92 6.81,30.14 8.69,25.92 C8.69,25.92 6.85,22.33 6.96,21.67 C6.96,21.67 4.52,25.62 4.35,28.67 C4.35,28.67 2.91,25.16 6.71,20.57 L5.83,16.47 C5.83,16.47 2.32,21.53 1.96,24.25 C1.96,24.25 1.05,20.44 5.69,15.42 L5.41,11.31 C5.41,11.31 2.05,15.43 1.01,18.37 C1.01,18.37 0.92,14.66 5.37,10.12 L5.51,7.35 C5.51,7.35 3.11,10.41 2.51,11.35 C1.91,12.29 1.6,12.2 1.6,12.2 C2.33428852,9.8721621 3.70199135,7.79463881 5.55,6.2 C5.55,6.2 6.25,0.42 5.91,0.35 Z" id="Shape"></path>
            </g>
            <g id="Group" opacity="0.5" transform="translate(597.000000, 241.000000)" fill="#6C63FF">
                <path d="M5.78,0.64 C5.78,0.64 -9.74,27.06 10.99,33.57 C12.802899,34.9249349 15.2824147,34.9572413 17.13,33.65 C17.13,33.65 15.74,32.88 17.62,30.38 C18.2810609,29.4844652 18.8348415,28.5145101 19.27,27.49 C19.8586877,26.1066177 19.9815317,24.5693131 19.62,23.11 C19.62,23.11 20.36,13.84 9.35,4.48 C9.35,4.48 7.74,0.89 7,0.62 L6.62,6.21 C6.62,6.21 10.74,6.33 12.86,8.97 C12.86,8.97 6.86,6.09 6.53,7.04 C6.46,7.24 6.46,10.04 6.46,10.04 C6.46,10.04 13.61,10.28 16.77,14.46 C16.77,14.46 10.05,10.06 6.44,11.1 L6.69,15.3 C6.69,15.3 14.26,15.18 18.04,19.8 C18.04,19.8 10.85,15.45 6.8,16.21 L7.59,20.31 C7.59,20.31 14.99,20.31 18.11,24.21 C18.11,24.21 9.29,20.01 7.84,21.21 C7.84,21.21 8.84,24.92 9.53,25.79 C9.53,25.79 14.83,25.93 16.44,28.34 C16.44,28.34 10.25,26.16 9.91,26.78 C9.91,26.78 12.44,31.3 14.91,32.9 C12.5403499,31.5382466 10.5683488,29.5800357 9.19,27.22 C8.71153034,28.8319096 8.71153034,30.5480904 9.19,32.16 C9.19,32.16 6.68,30.38 8.56,26.11 C8.56,26.11 6.72,22.52 6.83,21.86 C6.83,21.86 4.39,25.81 4.22,28.86 C4.22,28.86 2.78,25.35 6.59,20.76 L5.7,16.66 C5.7,16.66 2.19,21.72 1.84,24.44 C1.84,24.44 0.92,20.63 5.56,15.61 L5.28,11.5 C5.28,11.5 1.92,15.62 0.88,18.56 C0.88,18.56 0.79,14.85 5.24,10.32 L5.38,7.54 C5.38,7.54 2.98,10.6 2.38,11.54 C1.78,12.48 1.47,12.39 1.47,12.39 C2.2215627,10.0579708 3.60642028,7.98068448 5.47,6.39 C5.47,6.39 6.12,0.76 5.78,0.64 Z" id="Shape"></path>
            </g>
            <g id="Group" opacity="0.5" transform="translate(235.000000, 41.000000)" fill="#6C63FF">
                <path d="M33.42,0.55 C33.42,0.55 -24.38,42.55 13.88,75.82 C13.88,75.82 18.21,83.7 26.94,81.71 C26.94,81.71 24.68,78.77 31.03,75.17 C33.2808351,73.8767356 35.3689857,72.3190155 37.25,70.53 C39.7941778,68.1337651 41.4895295,64.9747245 42.08,61.53 C42.08,61.53 52.3,42.39 37.49,12.13 C37.49,12.13 37.4,2.94 36.05,1.67 L30.05,13.29 C30.05,13.29 38.74,17.38 40.83,25.01 C40.83,25.01 30.62,13.22 29.07,15.01 C28.76,15.36 26.15,21.31 26.15,21.31 C26.15,21.31 41.24,28.49 44.1,40.37 C44.1,40.37 33.82,24.69 25.1,23.55 L21.71,32.76 C21.71,32.76 38.02,39.57 41.8,52.97 C41.8,52.97 30.48,36.97 21.1,34.82 L18.98,44.33 C18.98,44.33 34.76,51.28 37.83,62.45 C37.83,62.45 22.83,45.27 18.64,46.54 C18.64,46.54 17.22,55.38 17.97,57.91 C17.97,57.91 29.19,63.16 30.39,69.81 C30.39,69.81 19.18,59.39 17.86,60.39 C17.86,60.39 19.08,72.39 22.92,78.16 C22.92,78.16 16.63,70.07 15.99,60.68 C15.99,60.68 11.7,65.68 11.46,71.29 C11.46,71.29 7.74,65.14 15.73,57.76 C15.73,57.76 15.16,48.36 16.01,47.06 C16.01,47.06 7.09,53.23 3.88,59.63 C3.88,59.63 4.07,50.79 16.48,44.52 L18.4,34.93 C18.4,34.93 6.19,42.46 2.9,47.93 C2.9,47.93 4.49,38.93 19.08,32.51 L22.32,23.46 C22.32,23.46 11.32,29.15 6.32,34.46 C6.32,34.46 9.59,26.46 23.32,20.89 L26.19,15.09 C26.19,15.09 18.19,19.39 16.04,20.83 C13.89,22.27 13.29,21.83 13.29,21.83 C17.0358708,17.528933 21.9038123,14.354038 27.35,12.66 C27.35,12.66 34.09,1.02 33.42,0.55 Z" id="Shape"></path>
            </g>
            <g id="Group" opacity="0.5" transform="translate(125.000000, 171.000000)" fill="#6C63FF">
                <path d="M87.27,9.14 C87.27,9.14 12.5,-22.3 2.7,34.39 C2.7,34.39 -2.41,43.23 4.7,50.53 C4.7,50.53 6.23,46.61 13.46,50.66 C16.0387757,52.0862227 18.7780095,53.2007149 21.62,53.98 C25.4581007,55.0387239 29.536349,54.8211238 33.24,53.36 C33.24,53.36 57.82,52.03 78.51,19.86 C78.51,19.86 87.37,14.38 87.82,12.32 L72.99,13.32 C72.99,13.32 74.13,24.17 67.99,30.68 C67.99,30.68 73.44,13.84 70.82,13.37 C70.29,13.27 62.99,14.23 62.99,14.23 C62.99,14.23 64.88,33.1 54.99,42.86 C54.99,42.86 64.17,23.67 60.17,14.57 L49.24,16.68 C49.24,16.68 52.24,36.53 41.42,48.07 C41.42,48.07 50.31,27.67 46.88,17.31 L36.4,20.83 C36.4,20.83 38.93,40.24 29.88,49.83 C29.88,49.83 37.78,25.22 34.06,21.83 C34.06,21.83 24.64,25.65 22.62,27.83 C22.62,27.83 24.12,41.83 18.36,46.88 C18.36,46.88 21.9,29.88 20.15,29.18 C20.15,29.18 9.2,37.42 5.86,44.53 C5.86,44.53 10.03,33.67 18.77,27.53 C18.77,27.53 11.43,26.28 5.77,29.36 C5.77,29.36 9.56,22.15 21.42,25.57 C21.42,25.57 30.21,19.48 31.97,19.57 C31.97,19.57 20.75,14.57 12.64,15.19 C12.64,15.19 21.33,10.19 34.71,18.54 L45.14,14.76 C45.14,14.76 30.65,7.33 23.38,7.36 C23.38,7.36 33.04,3.62 47.86,14.02 L58.56,11.81 C58.56,11.81 46.56,4.46 38.46,2.76 C38.46,2.76 48.17,1.22 61.64,11.31 L68.96,10.7 C68.96,10.7 60.1,5.48 57.42,4.21 C54.74,2.94 54.86,2.12 54.86,2.12 C61.2386823,3.22748093 67.1835856,6.08740529 72.03,10.38 C72.03,10.38 87.2,10.07 87.27,9.14 Z" id="Shape"></path>
            </g>
            <g id="Group" opacity="0.5" transform="translate(94.000000, 60.000000)" fill="#6C63FF">
                <path d="M73.5,40.76 C73.5,40.76 46.99,-20.51 8.88,7.59 C8.88,7.59 0.81,9.93 0.88,18.29 C0.88,18.29 4.02,16.83 6,23.36 C6.73821089,25.6730151 7.74508526,27.891495 9,29.97 C10.6752283,32.7879992 13.224239,34.9823955 16.26,36.22 C16.26,36.22 31.62,49.44 62.26,42.11 C62.26,42.11 70.65,43.9 72.09,42.94 L62.72,35.07 C62.72,35.07 57.22,42.17 49.84,42.51 C49.84,42.51 62.67,35.61 61.38,33.84 C61.12,33.48 56.24,29.9 56.24,29.9 C56.24,29.9 46.61,42.18 35.24,42.37 C35.24,42.37 51.63,36.19 54.43,28.52 L46.73,23.52 C46.73,23.52 37.06,37.05 24.07,37.76 C24.07,37.76 40.97,30.71 44.84,22.59 L36.61,18.76 C36.61,18.76 27.05,31.76 16.24,32.25 C16.24,32.25 34.95,22.13 34.66,18 C34.66,18 26.89,14.9 24.43,15.08 C24.43,15.08 17.36,24.23 11.05,23.97 C11.05,23.97 22.84,15.88 22.19,14.47 C22.19,14.47 10.99,13.13 4.96,15.47 C4.96,15.47 13.62,11.39 22.31,12.73 C22.31,12.73 18.66,7.8 13.56,6.43 C13.56,6.43 19.93,4.3 25.02,13.08 C25.02,13.08 33.71,14.48 34.72,15.52 C34.72,15.52 30.92,6.13 25.72,1.9 C25.72,1.9 33.72,3.9 36.93,16.47 L45.28,20.18 C45.28,20.18 40.91,7.5 36.57,3.39 C36.57,3.39 44.44,6.67 47.32,21.29 L54.91,26.08 C54.91,26.08 51.97,14.88 48.14,9.25 C48.14,9.25 54.78,13.87 57.04,27.54 L61.74,31.34 C61.74,31.34 59.44,23.2 58.57,20.92 C57.7,18.64 58.25,18.22 58.25,18.22 C61.4042181,22.5104665 63.3048484,27.5926619 63.74,32.9 C63.74,32.9 72.94,41.29 73.5,40.76 Z" id="Shape"></path>
            </g>
            <g id="Group" opacity="0.5" transform="translate(653.000000, 110.000000)" fill="#6C63FF">
                <path d="M31.18,22.64 C31.18,22.64 24.93,-7.36 5.18,1.75 C2.92630229,1.96557606 1.06848364,3.60934169 0.58,5.82 C0.58,5.82 2.13,5.45 2.42,8.57 C2.52978173,9.67720918 2.76805127,10.7678796 3.13,11.82 C3.62946467,13.2388975 4.57271366,14.4591601 5.82,15.3 C5.82,15.3 11.5,22.66 25.93,22.2 C25.93,22.2 29.54,23.78 30.28,23.48 L26.79,19.08 C26.79,19.08 23.66,21.76 20.32,21.23 C20.32,21.23 26.72,19.32 26.32,18.4 C26.23,18.21 24.37,16.15 24.37,16.15 C24.37,16.15 18.91,20.78 13.76,19.81 C13.76,19.81 21.69,18.55 23.67,15.36 L20.67,12.41 C20.67,12.41 15.13,17.59 9.23,16.7 C9.23,16.7 17.48,15.1 19.97,11.81 L16.63,9.31 C16.63,9.31 11.13,14.25 6.22,13.48 C6.22,13.48 15.57,10.66 15.82,8.78 C15.82,8.78 12.62,6.67 11.49,6.52 C11.49,6.52 7.49,9.98 4.66,9.28 C4.66,9.28 10.66,6.74 10.55,6.04 C10.55,6.04 5.64,4.4 2.71,4.89 C5.37986195,4.31131699 8.15447838,4.43884594 10.76,5.26 C10.02492,3.74408395 8.85981755,2.47812186 7.41,1.62 C7.41,1.62 10.47,1.25 11.95,5.62 C11.95,5.62 15.72,7.05 16.08,7.62 C16.08,7.62 15.24,3.05 13.3,0.62 C13.3,0.62 16.72,2.25 16.99,8.21 L20.4,10.65 C20.4,10.65 19.61,4.55 18.04,2.29 C18.04,2.29 21.27,4.5 21.21,11.29 L24.21,14.15 C24.21,14.15 23.93,8.84 22.73,5.96 C22.73,5.96 25.28,8.65 25.03,14.96 L26.79,17.11 C26.79,17.11 26.52,13.24 26.34,12.11 C26.16,10.98 26.44,10.86 26.44,10.86 C27.4621735,13.0847581 27.8464504,15.5496699 27.55,17.98 C27.55,17.98 30.88,22.82 31.18,22.64 Z" id="Shape"></path>
            </g>
            <g id="Group" opacity="0.5" transform="translate(545.000000, 666.000000)" fill="#6C63FF">
                <path d="M31.56,22.76 C31.56,22.76 25.32,-7.24 5.56,1.87 C3.30380035,2.0845122 1.44250112,3.72778505 0.95,5.94 C0.95,5.94 2.5,5.57 2.79,8.69 C2.89807974,9.79840146 3.13983556,10.8896604 3.51,11.94 C4.00683268,13.3574899 4.9464395,14.5775764 6.19,15.42 C6.19,15.42 11.87,22.78 26.31,22.32 C26.31,22.32 29.92,23.9 30.65,23.6 L27.17,19.2 C27.17,19.2 24.04,21.88 20.69,21.35 C20.69,21.35 27.09,19.44 26.69,18.52 C26.61,18.33 24.74,16.27 24.74,16.27 C24.74,16.27 19.28,20.9 14.13,19.93 C14.13,19.93 22.07,18.67 24.04,15.48 L21.04,12.48 C21.04,12.48 15.56,17.68 9.64,16.76 C9.64,16.76 17.89,15.16 20.38,11.87 L17.04,9.37 C17.04,9.37 11.55,14.31 6.64,13.54 C6.64,13.54 15.99,10.73 16.24,8.84 C16.24,8.84 13.03,6.73 11.91,6.58 C11.91,6.58 7.91,10.04 5.07,9.34 C5.07,9.34 11.07,6.8 10.96,6.1 C10.96,6.1 6.05,4.46 3.12,4.95 C5.79317954,4.37093526 8.57111628,4.49845841 11.18,5.32 C10.441494,3.80641937 9.27720636,2.54134261 7.83,1.68 C7.83,1.68 10.88,1.31 12.36,5.68 C12.36,5.68 16.14,7.11 16.5,7.68 C16.5,7.68 15.66,3.11 13.72,0.68 C13.72,0.68 17.14,2.31 17.4,8.27 L20.82,10.71 C20.82,10.71 20.02,4.61 18.45,2.35 C18.45,2.35 21.69,4.56 21.63,11.35 L24.63,14.21 C24.63,14.21 24.35,8.9 23.14,6.02 C23.14,6.02 25.7,8.71 25.45,15.02 L27.21,17.17 C27.21,17.17 26.93,13.3 26.75,12.17 C26.57,11.04 26.85,10.93 26.85,10.93 C27.8728678,13.1510002 28.2572167,15.6129107 27.96,18.04 C27.96,18.04 31.28,22.91 31.56,22.76 Z" id="Shape"></path>
            </g>
            <rect id="Rectangle-Copy" fill="#C03434" transform="translate(585.274496, 456.867915) rotate(-45.000000) translate(-585.274496, -456.867915) " x="529.774496" y="163.982747" width="111" height="585.770336" rx="8"></rect>
            <rect id="Rectangle-Copy-2" fill="#C03434" transform="translate(585.274496, 456.867915) rotate(45.000000) translate(-585.274496, -456.867915) " x="529.774496" y="163.982747" width="111" height="585.770336" rx="8"></rect>
        </g>
    </g>
</svg>