<?xml version="1.0" encoding="UTF-8"?>
<svg width="875px" height="734px" viewBox="0 0 875 734" version="1.1" xmlns="http://www.w3.org/2000/svg" xmlns:xlink="http://www.w3.org/1999/xlink">
    <!-- Generator: Sketch 48.1 (47250) - http://www.bohemiancoding.com/sketch -->
    <title>undraw_connected_8wvi</title>
    <desc>Created with Sketch.</desc>
    <defs>
        <linearGradient x1="49.6122131%" y1="99.8757264%" x2="49.7008946%" y2="-0.115521949%" id="linearGradient-1">
            <stop stop-color="#808080" stop-opacity="0.25" offset="0%"></stop>
            <stop stop-color="#808080" stop-opacity="0.12" offset="54%"></stop>
            <stop stop-color="#808080" stop-opacity="0.1" offset="100%"></stop>
        </linearGradient>
        <linearGradient x1="-0.523741434%" y1="50.0020309%" x2="99.9338477%" y2="50.0020309%" id="linearGradient-2">
            <stop stop-color="#FFFFFF" stop-opacity="0.09" offset="0%"></stop>
            <stop stop-color="#FFFFFF" stop-opacity="0.07" offset="55%"></stop>
            <stop stop-color="#FFFFFF" stop-opacity="0.02" offset="100%"></stop>
        </linearGradient>
        <linearGradient x1="83764%" y1="29546%" x2="83764%" y2="8319%" id="linearGradient-3">
            <stop stop-color="#808080" stop-opacity="0.25" offset="0%"></stop>
            <stop stop-color="#808080" stop-opacity="0.12" offset="54%"></stop>
            <stop stop-color="#808080" stop-opacity="0.1" offset="100%"></stop>
        </linearGradient>
        <linearGradient x1="30544%" y1="44278%" x2="30544%" y2="23050%" id="linearGradient-4">
            <stop stop-color="#808080" stop-opacity="0.25" offset="0%"></stop>
            <stop stop-color="#808080" stop-opacity="0.12" offset="54%"></stop>
            <stop stop-color="#808080" stop-opacity="0.1" offset="100%"></stop>
        </linearGradient>
        <linearGradient x1="-53755%" y1="76023%" x2="-53755%" y2="54795%" id="linearGradient-5">
            <stop stop-color="#808080" stop-opacity="0.25" offset="0%"></stop>
            <stop stop-color="#808080" stop-opacity="0.12" offset="54%"></stop>
            <stop stop-color="#808080" stop-opacity="0.1" offset="100%"></stop>
        </linearGradient>
        <linearGradient x1="13734%" y1="41618%" x2="13734%" y2="34315%" id="linearGradient-6">
            <stop stop-color="#808080" stop-opacity="0.25" offset="0%"></stop>
            <stop stop-color="#808080" stop-opacity="0.12" offset="54%"></stop>
            <stop stop-color="#808080" stop-opacity="0.1" offset="100%"></stop>
        </linearGradient>
        <linearGradient x1="67783%" y1="25953%" x2="67783%" y2="18650%" id="linearGradient-7">
            <stop stop-color="#808080" stop-opacity="0.25" offset="0%"></stop>
            <stop stop-color="#808080" stop-opacity="0.12" offset="54%"></stop>
            <stop stop-color="#808080" stop-opacity="0.1" offset="100%"></stop>
        </linearGradient>
        <linearGradient x1="42574%" y1="73363%" x2="42574%" y2="66060%" id="linearGradient-8">
            <stop stop-color="#808080" stop-opacity="0.25" offset="0%"></stop>
            <stop stop-color="#808080" stop-opacity="0.12" offset="54%"></stop>
            <stop stop-color="#808080" stop-opacity="0.1" offset="100%"></stop>
        </linearGradient>
    </defs>
    <g id="Page-1" stroke="none" stroke-width="1" fill="none" fill-rule="evenodd">
        <g id="undraw_connected_8wvi" transform="translate(0.000000, -1.000000)">
            <g id="Group" opacity="0.5" transform="translate(0.000000, 118.000000)" fill="url(#linearGradient-1)" fill-rule="nonzero">
                <path d="M0.74,552.02 L0,21.81 C0,10.764305 8.954305,1.81 20,1.81 L853.41,0.7 C864.455695,0.7 873.41,9.654305 873.41,20.7 L874.14,550.91 C874.14,556.21433 872.032863,561.301408 868.282136,565.052136 C864.531408,568.802863 859.44433,570.91 854.14,570.91 L20.73,572.02 C9.68821045,572.014479 0.73999862,563.061791 0.74,552.02 Z" id="Shape"></path>
            </g>
            <rect id="Rectangle-path" fill="url(#linearGradient-2)" fill-rule="nonzero" transform="translate(435.570137, 405.333847) rotate(-0.080000) translate(-435.570137, -405.333847) " x="64.9101367" y="159.133847" width="741.32" height="492.4"></rect>
            <rect id="Rectangle-path" fill="#FFFFFF" fill-rule="nonzero" transform="translate(438.798716, 404.314352) rotate(-0.080000) translate(-438.798716, -404.314352) " x="17.2187163" y="136.569352" width="843.16" height="535.49" rx="12.68"></rect>
            <rect id="Rectangle-path" fill="#30AABC" fill-rule="nonzero" opacity="0.2" transform="translate(441.525000, 404.600000) rotate(90.000000) translate(-441.525000, -404.600000) " x="210.305" y="51.005" width="462.44" height="707.19"></rect>
            <g id="Group" opacity="0.5" transform="translate(568.000000, 0.000000)" fill="url(#linearGradient-3)" fill-rule="nonzero">
                <path d="M212.52,106.81 C212.514686,56.3650465 176.902406,12.9372412 127.435379,3.05257651 C77.9683523,-6.83208819 28.4014476,19.5749313 9.01046059,66.1440518 C-10.3805264,112.713172 5.79628884,166.495319 47.66,194.64 L47.73,195.11 C51.1856456,198.424866 55.2642988,201.021609 59.73,202.75 L59.87,202.28 C64.87,206.53 85.68,213.33 109.66,213.28 L110.18,213.28 C125.36,213.28 141.84,210.6 156.34,202.76 C156.34,202.76 156.47,202.48 156.67,201.96 C160.349596,200.237066 163.726485,197.930651 166.67,195.13 C166.73,194.723333 166.786667,194.323333 166.84,193.93 C195.475264,174.176411 212.557419,141.597659 212.52,106.81 Z" id="Shape"></path>
            </g>
            <circle id="Oval" fill="#F5F5F5" fill-rule="nonzero" cx="674.7" cy="106.83" r="102.64"></circle>
            <path d="M635.49,149.03 C635.49,149.03 611.03,151.03 617.49,195.59 C620.841991,198.805204 624.798295,201.323779 629.13,203 L642.89,156.44 L635.49,149.03 Z" id="Shape" fill="#FDA57D" fill-rule="nonzero"></path>
            <path d="M714.85,149.03 C714.85,149.03 739.31,151.03 732.85,195.59 C729.498009,198.805204 725.541705,201.323779 721.21,203 L707.45,156.44 L714.85,149.03 Z" id="Shape" fill="#FDA57D" fill-rule="nonzero"></path>
            <path d="M636.55,76.01 C636.55,76.01 624.91,109.87 618.55,106.7 C618.55,106.7 679.81,159.61 733.89,106.7 C733.89,106.7 724.37,89.77 710.61,76.01 L636.55,76.01 Z" id="Shape" fill="#333333" fill-rule="nonzero"></path>
            <circle id="Oval" fill="#333333" fill-rule="nonzero" cx="675.81" cy="72.84" r="45.5"></circle>
            <path d="M714.38,149.03 L635.06,149.03 L627.61,180.81 C627.61,180.81 623.26,195.51 628.67,201.97 C634.08,208.43 684.67,223.13 721.79,203.03 C725.028466,194.566929 725.400842,185.275081 722.85,176.58 C718.62,161.77 721.79,175.52 721.79,175.52 L714.38,149.03 Z" id="Shape" fill="#000000" fill-rule="nonzero" opacity="0.1"></path>
            <path d="M715.44,149.03 L636.06,149.03 L628.67,180.81 C628.67,180.81 624.32,195.51 629.73,201.97 C635.14,208.43 685.73,223.13 722.85,203.03 C726.088466,194.566929 726.460842,185.275081 723.91,176.58 C719.68,161.77 722.85,175.52 722.85,175.52 L715.44,149.03 Z" id="Shape" fill="#000000" fill-rule="nonzero" opacity="0.1"></path>
            <path d="M714.85,149.03 L635.49,149.03 L628.06,180.81 C628.06,180.81 623.71,195.51 629.12,201.97 C634.53,208.43 685.12,223.13 722.24,203.03 C725.478466,194.566929 725.850842,185.275081 723.3,176.58 C719.07,161.77 722.24,175.52 722.24,175.52 L714.85,149.03 Z" id="Shape" fill="#30AABC" fill-rule="nonzero"></path>
            <path d="M659.82,122.7 L691.57,122.7 L691.57,148.7 C691.57,152.757812 689.95804,156.649427 687.088734,159.518734 C684.219427,162.38804 680.327812,164 676.27,164 L675.12,164 C666.670043,164 659.82,157.149957 659.82,148.7 L659.82,122.7 Z" id="Shape" fill="#000000" fill-rule="nonzero" opacity="0.1"></path>
            <path d="M659.82,121.52 L691.57,121.52 L691.57,147.52 C691.57,155.969957 684.719957,162.82 676.27,162.82 L675.12,162.82 C666.670043,162.82 659.82,155.969957 659.82,147.52 L659.82,121.52 Z" id="Shape" fill="#FDA57D" fill-rule="nonzero"></path>
            <path d="M659.89,126.09 C670.122293,129.914463 681.38619,129.946392 691.64,126.18 L691.64,122.28 L659.89,122.28 L659.89,126.09 Z" id="Shape" fill="#000000" fill-rule="nonzero" opacity="0.1"></path>
            <circle id="Oval" fill="#FDA57D" fill-rule="nonzero" cx="675.81" cy="82.72" r="45.5"></circle>
            <path d="M632.31,65.43 L719.06,65.43 C719.06,65.43 711.65,30.43 678.85,32.63 C646.05,34.83 632.31,65.43 632.31,65.43 Z" id="Shape" fill="#333333" fill-rule="nonzero"></path>
            <ellipse id="Oval" fill="#FDA57D" fill-rule="nonzero" cx="631.25" cy="80.78" rx="4.23" ry="7.94"></ellipse>
            <ellipse id="Oval" fill="#FDA57D" fill-rule="nonzero" cx="720.14" cy="80.78" rx="4.23" ry="7.94"></ellipse>
            <path d="M632.31,66.61 L719.06,66.61 C719.06,66.61 711.65,31.61 678.85,33.81 C646.05,36.01 632.31,66.61 632.31,66.61 Z" id="Shape" fill="#000000" fill-rule="nonzero" opacity="0.1"></path>
            <g id="Group" opacity="0.5" transform="translate(36.000000, 148.000000)" fill="url(#linearGradient-4)" fill-rule="nonzero">
                <path d="M212.32,106.13 C212.31789,55.6826939 176.705125,12.2512882 127.235835,2.36594519 C77.7665443,-7.51939784 28.1975756,18.8903232 8.80823362,65.4626768 C-10.5811084,112.03503 5.60113179,165.818774 47.47,193.96 L47.54,194.43 C50.9956456,197.744866 55.0742988,200.341609 59.54,202.07 L59.68,201.6 C64.68,205.85 85.49,212.65 109.47,212.6 L109.99,212.6 C125.17,212.6 141.65,209.92 156.15,202.08 C156.15,202.08 156.28,201.8 156.48,201.28 C160.159596,199.557066 163.536485,197.250651 166.48,194.45 C166.54,194.043333 166.596667,193.643333 166.65,193.25 C195.281468,173.494176 212.359686,140.915802 212.32,106.13 Z" id="Shape"></path>
            </g>
            <circle id="Oval" fill="#F5F5F5" fill-rule="nonzero" cx="142.5" cy="254.14" r="102.64"></circle>
            <path d="M98.06,294.27 C98.06,294.27 73.6,296.27 80.06,340.83 C83.4119912,344.045204 87.368295,346.563779 91.7,348.24 L105.46,301.68 L98.06,294.27 Z" id="Shape" fill="#30AABC" fill-rule="nonzero"></path>
            <path d="M177.47,294.27 C177.47,294.27 201.93,296.27 195.47,340.83 C192.118009,344.045204 188.161705,346.563779 183.83,348.24 L170.06,301.67 L177.47,294.27 Z" id="Shape" fill="#30AABC" fill-rule="nonzero"></path>
            <circle id="Oval" fill="#333333" fill-rule="nonzero" cx="138.43" cy="218.08" r="45.5"></circle>
            <path d="M177,294.27 L97.63,294.27 L90.22,326.02 C90.22,326.02 85.87,340.72 91.28,347.18 C96.69,353.64 147.28,368.34 184.4,348.24 C187.633988,339.782945 188.006334,330.49888 185.46,321.81 C181.23,307 184.4,320.75 184.4,320.75 L177,294.27 Z" id="Shape" fill="#4D8AF0" fill-rule="nonzero"></path>
            <path d="M178.06,294.27 L98.69,294.27 L91.28,326.02 C91.28,326.02 86.93,340.72 92.34,347.18 C97.75,353.64 148.34,368.34 185.46,348.24 C188.693988,339.782945 189.066334,330.49888 186.52,321.81 C182.29,307 185.46,320.75 185.46,320.75 L178.06,294.27 Z" id="Shape" fill="#4D8AF0" fill-rule="nonzero"></path>
            <path d="M177.47,294.27 L98.06,294.27 L90.65,326.02 C90.65,326.02 86.3,340.72 91.71,347.18 C97.12,353.64 147.71,368.34 184.83,348.24 C188.077149,339.787358 188.463549,330.503231 185.93,321.81 C181.7,307 184.87,320.75 184.87,320.75 L177.47,294.27 Z" id="Shape" fill="#30AABC" fill-rule="nonzero"></path>
            <path d="M122.44,267.93 L154.19,267.93 L154.19,293.93 C154.19,302.379957 147.339957,309.23 138.89,309.23 L137.74,309.23 C129.290043,309.23 122.44,302.379957 122.44,293.93 L122.44,267.93 Z" id="Shape" fill="#000000" fill-rule="nonzero" opacity="0.1"></path>
            <path d="M122.44,266.76 L154.19,266.76 L154.19,292.76 C154.19,301.209957 147.339957,308.06 138.89,308.06 L137.74,308.06 C129.290043,308.06 122.44,301.209957 122.44,292.76 L122.44,266.76 Z" id="Shape" fill="#FDB797" fill-rule="nonzero"></path>
            <path d="M122.5,271.33 C132.732293,275.154463 143.99619,275.186392 154.25,271.42 L154.25,267.52 L122.5,267.52 L122.5,271.33 Z" id="Shape" fill="#000000" fill-rule="nonzero" opacity="0.1"></path>
            <circle id="Oval" fill="#FDB797" fill-rule="nonzero" cx="138.43" cy="227.96" r="45.5"></circle>
            <path d="M94.93,211.81 L181.7,211.81 C181.7,211.81 174.29,176.81 141.49,179.01 C108.69,181.21 94.93,211.81 94.93,211.81 Z" id="Shape" fill="#000000" fill-rule="nonzero" opacity="0.1"></path>
            <path d="M94.93,210.67 L181.7,210.67 C181.7,210.67 174.29,175.67 141.49,177.87 C108.69,180.07 94.93,210.67 94.93,210.67 Z" id="Shape" fill="#333333" fill-rule="nonzero"></path>
            <ellipse id="Oval" fill="#FDB797" fill-rule="nonzero" cx="93.87" cy="226.02" rx="4.23" ry="7.94"></ellipse>
            <ellipse id="Oval" fill="#FDB797" fill-rule="nonzero" cx="182.75" cy="226.02" rx="4.23" ry="7.94"></ellipse>
            <path d="M101.67,187.46 C102.602897,184.000459 104.66115,180.950023 107.52,178.79 C109.74,177.25 112.39,176.51 114.93,175.61 C118.69481,174.278093 122.308232,172.551829 125.71,170.46 C129.57,168.08 133.19,165.22 137.44,163.65 C144.75,160.95 152.89,162.41 160.44,164.35 C162.322787,164.745506 164.136064,165.419586 165.82,166.35 C167.65212,167.61858 169.263548,169.179334 170.59,170.97 L182.59,185.42 C183.743802,186.699876 184.750116,188.105362 185.59,189.61 C186.310849,191.097154 186.770872,192.697087 186.95,194.34 C187.378156,196.997035 186.928805,199.721226 185.67,202.1 C183.67,205.56 179.47,207.3 175.47,207.46 C171.47,207.62 167.54,206.46 163.69,205.33 C151.29,201.7 138.69,198.33 125.87,196.81 C119.48846,196.023888 113.048912,195.816377 106.63,196.19 C104.63,196.32 101.95,197.25 100.73,195.19 C99.62,193.4 101.12,189.24 101.67,187.46 Z" id="Shape" fill="#333333" fill-rule="nonzero"></path>
            <g id="Group" opacity="0.5" transform="translate(316.000000, 465.000000)" fill="url(#linearGradient-5)" fill-rule="nonzero">
                <path d="M0.79,106.58 C0.792109886,56.1326939 36.4048748,12.7012882 85.8741653,2.81594519 C135.343456,-7.06939784 184.912424,19.3403232 204.301766,65.9126768 C223.691108,112.48503 207.508868,166.268774 165.64,194.41 L165.57,194.88 C162.114354,198.194866 158.035701,200.791609 153.57,202.52 L153.43,202.05 C148.43,206.3 127.62,213.1 103.64,213.05 L103.12,213.05 C87.94,213.05 71.46,210.37 56.96,202.53 C56.96,202.53 56.83,202.25 56.63,201.73 C52.9504038,200.007066 49.5735151,197.700651 46.63,194.9 C46.57,194.493333 46.5133333,194.093333 46.46,193.7 C17.8285319,173.944176 0.750313918,141.365802 0.79,106.58 Z" id="Shape"></path>
            </g>
            <circle id="Oval" fill="#F5F5F5" fill-rule="nonzero" cx="422.6" cy="571.59" r="102.64"></circle>
            <path d="M382.36,610.68 C382.36,610.68 357.9,612.68 364.36,657.24 C367.711991,660.455204 371.668295,662.973779 376,664.65 L389.76,618.09 L382.36,610.68 Z" id="Shape" fill="#BE7C5E" fill-rule="nonzero"></path>
            <path d="M461.72,610.68 C461.72,610.68 486.18,612.68 479.72,657.24 C476.362114,660.457427 472.398822,662.976123 468.06,664.65 L454.3,618.09 L461.72,610.68 Z" id="Shape" fill="#BE7C5E" fill-rule="nonzero"></path>
            <path d="M383.42,537.67 C383.42,537.67 381.54,543.15 378.87,549.49 C373.05,563.36 379.69,616.62 393.62,622.29 C409.25,628.66 429.8,632.74 451.15,624.95 C469.71,618.18 475.43,557.56 462.31,542.79 C460.77,541.06 459.16,539.34 457.48,537.66 L383.42,537.67 Z" id="Shape" fill="#333333" fill-rule="nonzero"></path>
            <circle id="Oval" fill="#333333" fill-rule="nonzero" cx="422.68" cy="534.5" r="45.5"></circle>
            <path d="M461.25,610.68 L381.89,610.68 L374.48,642.43 C374.48,642.43 370.13,657.13 375.54,663.59 C380.95,670.05 431.54,684.75 468.66,664.65 C471.898466,656.186929 472.270842,646.895081 469.72,638.2 C465.49,623.39 468.66,637.14 468.66,637.14 L461.25,610.68 Z" id="Shape" fill="#000000" fill-rule="nonzero" opacity="0.1"></path>
            <path d="M462.31,610.68 L382.95,610.68 L375.54,642.43 C375.54,642.43 371.19,657.13 376.6,663.59 C382.01,670.05 432.6,684.75 469.72,664.65 C472.958466,656.186929 473.330842,646.895081 470.78,638.2 C466.55,623.39 469.72,637.14 469.72,637.14 L462.31,610.68 Z" id="Shape" fill="#000000" fill-rule="nonzero" opacity="0.1"></path>
            <path d="M461.72,610.68 L382.36,610.68 L374.95,642.43 C374.95,642.43 370.6,657.13 376.01,663.59 C381.42,670.05 432.01,684.75 469.13,664.65 C472.368466,656.186929 472.740842,646.895081 470.19,638.2 C465.96,623.39 469.13,637.14 469.13,637.14 L461.72,610.68 Z" id="Shape" fill="#30AABC" fill-rule="nonzero"></path>
            <path d="M406.69,584.35 L438.44,584.35 L438.44,610.35 C438.44,618.799957 431.589957,625.65 423.14,625.65 L422,625.65 C413.550043,625.65 406.7,618.799957 406.7,610.35 L406.7,584.35 L406.69,584.35 Z" id="Shape" fill="#000000" fill-rule="nonzero" opacity="0.1"></path>
            <path d="M406.69,583.17 L438.44,583.17 L438.44,609.17 C438.44,617.619957 431.589957,624.47 423.14,624.47 L422,624.47 C413.550043,624.47 406.7,617.619957 406.7,609.17 L406.7,583.17 L406.69,583.17 Z" id="Shape" fill="#BE7C5E" fill-rule="nonzero"></path>
            <path d="M406.76,587.74 C416.992293,591.564463 428.25619,591.596392 438.51,587.83 L438.51,583.93 L406.76,583.93 L406.76,587.74 Z" id="Shape" fill="#000000" fill-rule="nonzero" opacity="0.1"></path>
            <circle id="Oval" fill="#BE7C5E" fill-rule="nonzero" cx="422.68" cy="544.37" r="45.5"></circle>
            <path d="M379.18,527.09 L465.95,527.09 C465.95,527.09 458.54,492.09 425.74,494.29 C392.94,496.49 379.18,527.09 379.18,527.09 Z" id="Shape" fill="#333333" fill-rule="nonzero"></path>
            <ellipse id="Oval" fill="#BE7C5E" fill-rule="nonzero" cx="378.12" cy="542.43" rx="4.23" ry="7.94"></ellipse>
            <ellipse id="Oval" fill="#BE7C5E" fill-rule="nonzero" cx="467.01" cy="542.43" rx="4.23" ry="7.94"></ellipse>
            <path d="M379.18,528.26 L465.95,528.26 C465.95,528.26 458.54,493.26 425.74,495.46 C392.94,497.66 379.18,528.26 379.18,528.26 Z" id="Shape" fill="#000000" fill-rule="nonzero" opacity="0.1"></path>
            <polyline id="Shape" stroke="#30AABC" stroke-width="2" stroke-dasharray="12" points="672.1 241.44 672.1 624.25 569.4 624.25"></polyline>
            <polyline id="Shape" stroke="#30AABC" stroke-width="2" stroke-dasharray="12" points="139.91 381.49 139.91 624.25 289.29 624.25"></polyline>
            <g id="Group" opacity="0.5" transform="translate(100.000000, 344.000000)" fill="url(#linearGradient-6)" fill-rule="nonzero">
                <circle id="Oval" cx="37.34" cy="36.66" r="36.52"></circle>
            </g>
            <circle id="Oval" fill="#69F0AE" fill-rule="nonzero" cx="137.34" cy="380.66" r="34.37"></circle>
            <polygon id="Shape" fill="#FFFFFF" fill-rule="nonzero" points="122.42 376.08 135.31 387.89 153.56 361.04 160.01 366.41 135.31 398.63 117.05 378.23"></polygon>
            <g id="Group" opacity="0.5" transform="translate(641.000000, 187.000000)" fill="url(#linearGradient-7)" fill-rule="nonzero">
                <circle id="Oval" cx="36.83" cy="37.01" r="36.52"></circle>
            </g>
            <circle id="Oval" fill="#69F0AE" fill-rule="nonzero" cx="677.83" cy="224.01" r="34.37"></circle>
            <polygon id="Shape" fill="#FFFFFF" fill-rule="nonzero" points="662.91 219.43 675.8 231.24 694.06 204.39 700.5 209.76 675.8 241.98 657.54 221.57"></polygon>
            <g id="Group" opacity="0.5" transform="translate(389.000000, 661.000000)" fill="url(#linearGradient-8)" fill-rule="nonzero">
                <circle id="Oval" cx="36.74" cy="37.11" r="36.52"></circle>
            </g>
            <circle id="Oval" fill="#69F0AE" fill-rule="nonzero" cx="425.74" cy="698.11" r="34.37"></circle>
            <polygon id="Shape" fill="#FFFFFF" fill-rule="nonzero" points="410.82 693.53 423.71 705.34 441.97 678.49 448.41 683.86 423.71 716.08 405.45 695.68"></polygon>
        </g>
    </g>
</svg>