<?xml version="1.0" encoding="UTF-8"?>
<svg width="1151px" height="756px" viewBox="0 0 1151 756" version="1.1" xmlns="http://www.w3.org/2000/svg" xmlns:xlink="http://www.w3.org/1999/xlink">
    <!-- Generator: Sketch 48.1 (47250) - http://www.bohemiancoding.com/sketch -->
    <title>undraw_confirmation_2uy0</title>
    <desc>Created with Sketch.</desc>
    <defs>
        <linearGradient x1="21555%" y1="70396%" x2="21555%" y2="30997%" id="linearGradient-1">
            <stop stop-color="#808080" stop-opacity="0.25" offset="0%"></stop>
            <stop stop-color="#808080" stop-opacity="0.12" offset="54%"></stop>
            <stop stop-color="#808080" stop-opacity="0.1" offset="100%"></stop>
        </linearGradient>
        <linearGradient x1="37.2844693%" y1="117.946876%" x2="62.3263292%" y2="-17.3605393%" id="linearGradient-2">
            <stop stop-color="#808080" stop-opacity="0.25" offset="0%"></stop>
            <stop stop-color="#808080" stop-opacity="0.12" offset="54%"></stop>
            <stop stop-color="#808080" stop-opacity="0.1" offset="100%"></stop>
        </linearGradient>
        <linearGradient x1="54932%" y1="67928%" x2="54932%" y2="23384%" id="linearGradient-3">
            <stop stop-color="#808080" stop-opacity="0.25" offset="0%"></stop>
            <stop stop-color="#808080" stop-opacity="0.12" offset="54%"></stop>
            <stop stop-color="#808080" stop-opacity="0.1" offset="100%"></stop>
        </linearGradient>
        <linearGradient x1="49.9910539%" y1="100%" x2="49.9910539%" y2="0%" id="linearGradient-4">
            <stop stop-color="#FFFFFF" stop-opacity="0.12" offset="0%"></stop>
            <stop stop-color="#FFFFFF" stop-opacity="0.09" offset="55%"></stop>
            <stop stop-color="#FFFFFF" stop-opacity="0.02" offset="100%"></stop>
        </linearGradient>
        <linearGradient x1="88878%" y1="64614%" x2="88878%" y2="60303%" id="linearGradient-5">
            <stop stop-color="#FFFFFF" stop-opacity="0.12" offset="0%"></stop>
            <stop stop-color="#FFFFFF" stop-opacity="0.09" offset="55%"></stop>
            <stop stop-color="#FFFFFF" stop-opacity="0.02" offset="100%"></stop>
        </linearGradient>
        <linearGradient x1="74139%" y1="48705%" x2="74139%" y2="46456%" id="linearGradient-6">
            <stop stop-color="#FFFFFF" stop-opacity="0.12" offset="0%"></stop>
            <stop stop-color="#FFFFFF" stop-opacity="0.09" offset="55%"></stop>
            <stop stop-color="#FFFFFF" stop-opacity="0.02" offset="100%"></stop>
        </linearGradient>
        <linearGradient x1="94990%" y1="64614%" x2="94990%" y2="60303%" id="linearGradient-7">
            <stop stop-color="#FFFFFF" stop-opacity="0.12" offset="0%"></stop>
            <stop stop-color="#FFFFFF" stop-opacity="0.09" offset="55%"></stop>
            <stop stop-color="#FFFFFF" stop-opacity="0.02" offset="100%"></stop>
        </linearGradient>
        <linearGradient x1="94990%" y1="56930%" x2="94990%" y2="52620%" id="linearGradient-8">
            <stop stop-color="#FFFFFF" stop-opacity="0.12" offset="0%"></stop>
            <stop stop-color="#FFFFFF" stop-opacity="0.09" offset="55%"></stop>
            <stop stop-color="#FFFFFF" stop-opacity="0.02" offset="100%"></stop>
        </linearGradient>
        <linearGradient x1="81299%" y1="48705%" x2="81299%" y2="46456%" id="linearGradient-9">
            <stop stop-color="#FFFFFF" stop-opacity="0.12" offset="0%"></stop>
            <stop stop-color="#FFFFFF" stop-opacity="0.09" offset="55%"></stop>
            <stop stop-color="#FFFFFF" stop-opacity="0.02" offset="100%"></stop>
        </linearGradient>
    </defs>
    <g id="Page-1" stroke="none" stroke-width="1" fill="none" fill-rule="evenodd">
        <g id="undraw_confirmation_2uy0" fill-rule="nonzero">
            <path d="M1066.62,619.94 C1063.03333,623.093333 1059.36667,626.156667 1055.62,629.13 C1054.99,629.64 1054.34,630.13 1053.7,630.65 C1040.33617,641.015931 1026.30598,650.492993 1011.7,659.02 L1008.97,660.61 C1008.31,661.01 1007.66,661.38 1006.97,661.75 C991.71,670.56 975.88,678.67 959.86,686.35 L959.69,686.44 L958.48,687.01 C945.56,693.203333 932.446667,699.13 919.14,704.79 L918.82,704.91 C912.82,707.436667 906.82,709.896667 900.82,712.29 C898.37,713.29 895.91,714.22 893.45,715.17 C888.82,716.94 884.18,718.68 879.5,720.35 L878.92,720.57 L877.92,720.92 L876.67,721.38 C864.463333,725.74 852.093333,729.766667 839.56,733.46 L839.34,733.52 C830.6,736.066667 821.803333,738.423333 812.95,740.59 L811.74,740.89 C798.74,744.03 785.53,746.73 772.24,748.89 L769.18,749.38 C759.46,750.906667 749.673333,752.153333 739.82,753.12 C684.43,758.47 628.38,754.12 573.33,746.66 C462.17,731.58 352.48,703.31 252.44,659 C233.24,650.5 214.413333,641.4 195.96,631.7 C195.81,631.62 195.68,631.54 195.53,631.47 C184.483333,625.663333 173.586667,619.613333 162.84,613.32 C159.69,611.5 156.56,609.64 153.45,607.77 C149.623333,605.463333 145.813333,603.13 142.02,600.77 C137.02,597.65 132.02,594.45 127.02,591.18 L124.68,589.62 L123.78,589.01 C122.51,588.16 121.26,587.31 120,586.45 C73,554.45 31.09,515.67 11.29,467.14 C-11.59,411.14 3.05,340.14 59.72,307.04 C79.2,295.64 101.84,289.45 124.72,284.34 L127.06,283.82 C130.93,282.97 134.8,282.15 138.65,281.33 C152.14,278.47 165.7,275.63 179.13,272.46 C186.13,270.81 193.06,269.08 199.95,267.21 L202.77,266.43 C219.386469,261.972148 235.637284,256.248759 251.38,249.31 L251.48,249.31 C253.17,248.56 254.84,247.78 256.48,246.98 C257.54,246.48 258.6,245.98 259.66,245.43 C276.66,236.97 294.66,225.24 308.51,211.26 C309.62,210.14 310.7,209 311.75,207.86 C312.56,206.97 313.36,206.07 314.13,205.17 C323.84,193.85 330.56,181.28 331.84,167.94 C332.270986,163.457352 332.069005,158.936356 331.24,154.51 C329.67,146.12 328.15,137.91 327.03,129.9 C324.94,114.85 324.23,100.46 327.13,86.59 C330.08,72.45 336.77,58.84 349.54,45.64 C351.466667,43.64 353.543333,41.64 355.77,39.64 C366.097351,30.5795794 377.782905,23.1963879 390.4,17.76 C391.96,17.0933333 393.53,16.4266667 395.11,15.76 C430.19,1.56 472.34,-1.4 511.72,0.56 C548.511424,2.45337826 585.068838,7.53916156 620.98,15.76 C623.83,16.4 626.68,17.07 629.51,17.76 C660.058435,25.1600885 690.116566,34.4547307 719.51,45.59 C795.89,74.32 867.98,114.21 935.33,158.23 C935.99,158.66 936.65,159.09 937.33,159.53 C940.143333,161.363333 942.94,163.203333 945.72,165.05 C951.1,168.616667 956.433333,172.206667 961.72,175.82 L965.29,178.25 C967.05,179.45 968.8,180.653333 970.54,181.86 L975.9,185.57 C976.152434,185.721728 976.393111,185.892208 976.62,186.08 L981.18,189.24 C983.82,191.08 986.44,192.93 989.07,194.79 L994.71,198.79 C995.88,199.63 997.06,200.46 998.23,201.31 L1004.23,205.69 L1005.57,206.69 C1005.85,206.89 1006.13,207.09 1006.4,207.31 L1006.57,207.42 C1022.83,219.35 1038.7,231.72 1053.57,244.83 L1055.49,246.53 L1055.69,246.71 C1057.31,248.15 1058.93,249.61 1060.52,251.08 C1079.94,268.76 1097.34,287.76 1111.56,308.76 C1176.88,405.76 1157.49,540.07 1066.62,619.94 Z" id="Shape" fill="#30AABC" opacity="0.1"></path>
            <path d="M308.36,437.33 C306.009056,438.298736 303.566816,439.029063 301.07,439.51 C296.706967,440.326551 292.278759,440.744938 287.84,440.76 C287.97,441.93 288.07,443.02 288.17,444.01 C288.41,446.73 288.55,448.6 288.55,448.6 L283.86,448.28 L245.18,445.64 L222.56,442.29 C223.651797,443.755397 224.837627,445.14833 226.11,446.46 C227.42776,447.854862 228.952256,449.038707 230.63,449.97 C230.63,449.97 251.04,466.5 254.57,466.65 C255.07,466.65 255.23,467.15 255.15,467.94 C263.74,467.94 290.45,469.19 283.04,484.06 C281.814057,486.710674 279.652469,488.815285 276.97,489.97 C268.4,493.6 255.47,487.07 248.81,483.06 C248.16,484.33 247.54,485.51 246.99,486.52 C245.86,488.65 245.07,490.06 245.07,490.06 L244.4,489.58 L210.08,465.14 L202.56,458.76 C200.351056,458.659137 198.163719,458.279461 196.05,457.63 L195.05,457.31 C195.006543,457.397082 194.969771,457.487342 194.94,457.58 C194.666175,458.360412 194.462044,459.163552 194.33,459.98 C194.33,460.1 194.33,460.22 194.33,460.34 C194.189647,461.271384 194.096196,462.209234 194.05,463.15 C194.05,463.79 194,464.47 194,465.15 C193.94,478.77 199.4,500.66 199.4,500.66 C199.4,500.66 213.55,536.75 208.53,545.08 C208.271283,545.502524 207.931404,545.869593 207.53,546.16 C205.76,547.44 204.7,549.72 204.15,552.43 C202.28,561.27 205.56,574.76 205.56,574.76 C205.56,574.76 205.26,575.26 204.75,576.04 C203.646538,577.804034 202.402499,579.476129 201.03,581.04 C200.82,581.28 200.6,581.53 200.37,581.76 C199.750766,582.410696 199.082103,583.012492 198.37,583.56 C198.5,583.95 198.64,584.35 198.78,584.78 C198.92,585.21 199.1,585.88 199.24,586.48 C200.353601,591.394682 199.916908,596.533689 197.99,601.19 C196.679357,604.584247 195.831741,608.139525 195.47,611.76 C194.81972,618.38902 194.991018,625.072991 195.98,631.66 C195.83,631.58 195.7,631.5 195.55,631.43 C184.49,625.65 173.586667,619.613333 162.84,613.32 C159.69,611.5 156.56,609.64 153.45,607.77 C149.623333,605.463333 145.813333,603.13 142.02,600.77 C137.02,597.65 132.02,594.45 127.02,591.18 L124.68,589.62 L123.78,589.01 C122.51,588.16 121.26,587.31 120,586.45 C114.829958,579.768588 110.106366,572.753353 105.86,565.45 C105.15,564.18 104.51,562.97 103.98,561.86 L103.98,561.8 L103.64,561.07 L102.23,560.57 C99.58,559.64 97.9,558.99 97.9,558.99 C99.1230566,554.528217 99.708859,549.915865 99.64,545.29 C99.56,536.29 97.07,524.29 86.81,514.67 C71.65,500.34 69.56,486.19 69.34,480.76 C69.34,480.38 69.34,480.04 69.34,479.76 C69.3349769,479.30258 69.3550069,478.845229 69.4,478.39 L70.56,477.28 C67.62,476.69 64.86,476.42 64.86,476.42 C64.86,476.42 74.92,440.02 91.86,427.87 C100.26,421.87 107.25,411.87 112.19,403.29 C121.20167,387.783758 131.32132,372.948512 142.47,358.9 L145.52,355.05 L146.41,353.92 L146.6,353.69 L146.84,353.37 C146.426667,352.743333 146.006667,352.123333 145.58,351.51 L145.3,351.1 C143.97,349.1 142.83,347.1 143.01,344.71 C143.01,344.71 143.01,344.66 143.01,344.64 C143.01,344.47 143.01,344.31 143.01,344.13 C143.052436,343.731529 143.125994,343.336991 143.23,342.95 C143.264151,343.0137 143.304335,343.073976 143.35,343.13 C144.78,338.97 150.29,337.13 154.35,334.83 C163.92,329.45 168,317.68 170.05,306.73 C171.64,298.21 172.96,288.66 179.56,283.19 C183.82,279.67 189.56,278.51 193.87,275.02 C196.36364,272.816408 198.425408,270.167986 199.95,267.21 C200.95,265.51 201.81,263.75 202.74,262.05 C207,254.35 212.6,247.19 220.01,242.58 C227.42,237.97 236.82,236.18 244.94,239.28 C248.07,240.47 250.94,242.28 253.94,243.61 C255.792392,244.365437 257.706042,244.960944 259.66,245.39 C265.77,246.82 272.2,247.19 277.94,249.74 C287.27,253.88 293.34,263.04 298.88,271.74 C301.75,276.24 306.26,282.82 308.82,289.44 C308.82,289.2 308.82,288.98 308.82,288.75 C310.054385,291.665165 310.732712,294.785466 310.82,297.95 C310.869987,299.297082 310.725159,300.644322 310.39,301.95 C309.47,305.35 307.12,307.5 304.17,309.08 L303.7,309.31 C303.069216,309.634192 302.421635,309.924602 301.76,310.18 C301.66,310.73 301.55,311.29 301.43,311.83 C301.38,312.06 301.32,312.3 301.26,312.53 C301.13,313.09 300.98,313.64 300.82,314.19 C298.682358,321.337307 294.513223,327.709136 288.82,332.53 C284.877213,335.903033 280.320579,338.483541 275.4,340.13 C275.05,340.25 274.68,340.34 274.33,340.45 C274.032553,341.286945 273.607536,342.072889 273.07,342.78 C272.680484,343.278411 272.222645,343.719418 271.71,344.09 C271.390639,344.306478 271.056485,344.500287 270.71,344.67 C270.625144,344.723292 270.534578,344.766898 270.44,344.8 C266.84,346.42 261.91,345.15 258.44,342.73 C258.26,342.61 258.09,342.47 257.92,342.34 C257.92,342.91 257.83,343.51 257.73,344.13 C257.63,344.75 257.56,345.13 257.45,345.65 C257.34,346.17 257.3,346.42 257.23,346.79 C257.16,347.16 257.11,347.41 257.05,347.7 L256.93,348.21 C254.949001,357.862005 251.169952,367.055203 245.79,375.31 C245.009804,376.492178 244.165196,377.630563 243.26,378.72 L240.78,382.5 L240.78,383.01 C241.25,391.71 238.39,399.82 234.35,406.8 C232.997186,409.114115 231.51136,411.347862 229.9,413.49 L230.46,413.82 C236.06,417.01 247.1,422.68 254.08,422.2 C254.08,422.2 280.48,425.61 283.54,423.9 C283.96,423.66 284.37,423.99 284.75,424.7 C289.02,422.1 298.84,416.59 306.59,415.86 C312.01,415.34 316.42,417.15 317.24,423.86 C318.06,430.57 314.02,434.9 308.36,437.33 Z" id="Shape" fill="url(#linearGradient-1)"></path>
            <path d="M163.85,574.84 C167.275207,580.683266 167.806765,587.781781 165.29,594.07 C162.86,600.16 162.59,607.75 162.84,613.32 C159.69,611.5 156.56,609.64 153.45,607.77 C149.623333,605.463333 145.813333,603.13 142.02,600.77 C137.02,597.65 132.02,594.45 127.02,591.18 L124.68,589.62 L123.78,589.01 C123.701351,588.86449 123.603842,588.729995 123.49,588.61 C122.15,587.19 114.34,575.99 109.7,567.49 C108.86,565.93 108.13,564.49 107.55,563.17 L107.55,563.1 C106.55,560.88 106.08,559.1 106.38,558.29 C107.114621,555.714272 108.865497,553.54824 111.23,552.29 C116.99,549.29 126.23,552.06 135.37,556.47 C143.233923,560.444614 150.770806,565.035626 157.91,570.2 L158.72,570.79 L158.8,570.85 C161.8,572.98 163.54,574.39 163.54,574.39 C163.54,574.39 163.67,574.55 163.85,574.84 Z" id="Shape" fill="#FBBEBE"></path>
            <path d="M162.33,573.51 C165.761663,579.358524 166.29334,586.46601 163.77,592.76 C161.34,598.85 161.07,606.44 161.32,612.02 C158.173333,610.186667 155.043333,608.333333 151.93,606.46 C148.096667,604.153333 144.286667,601.82 140.5,599.46 C135.5,596.33 130.5,593.13 125.55,589.86 L123.21,588.3 L122.31,587.69 C122.228877,587.546061 122.13158,587.411858 122.02,587.29 C120.68,585.88 112.87,574.68 108.23,566.17 C107.39,564.61 106.66,563.17 106.08,561.85 L106.08,561.79 C105.08,559.56 104.61,557.79 104.91,556.97 C105.647747,554.395896 107.39774,552.230956 109.76,550.97 C115.52,547.97 124.76,550.74 133.9,555.15 C141.763923,559.124614 149.300806,563.715626 156.44,568.88 L157.25,569.47 L157.33,569.53 C160.33,571.66 162.07,573.07 162.07,573.07 C162.07,573.07 162.15,573.22 162.33,573.51 Z" id="Shape" fill="#000000" opacity="0.05"></path>
            <path d="M199.15,597.76 C198.859121,599.472061 198.386447,601.14821 197.74,602.76 C196.632617,605.660476 195.870702,608.681284 195.47,611.76 C194.682506,618.29471 194.709378,624.901912 195.55,631.43 C184.49,625.65 173.586667,619.613333 162.84,613.32 C159.69,611.5 156.56,609.64 153.45,607.77 C152.75,602.45 151.75,597.77 150.62,596.62 C149.14,595.06 140.69,582.98 135.44,573.45 C134.76,572.25 134.17,571.09 133.62,569.99 L133.62,569.94 C133.41,569.5 133.21,569.08 133.02,568.66 C131.67,565.76 130.95,563.5 131.31,562.41 C132.011722,560.039852 133.455942,557.957652 135.43,556.47 C144.3,549.99 162.74,558.76 176.9,567.47 L177.25,567.68 C179.93,569.35 182.47,571 184.75,572.54 L186.08,573.44 C191.94,577.44 195.83,580.55 195.83,580.55 C196.79642,582.040712 197.572452,583.646527 198.14,585.33 C198.474008,586.279327 198.751165,587.247709 198.97,588.23 C199.661991,591.363226 199.723181,594.602878 199.15,597.76 Z" id="Shape" fill="#FBBEBE"></path>
            <path d="M109.75,567.49 C117.02,570.03 127.75,573.4 133.59,573.49 C134.19477,573.508549 134.800053,573.478452 135.4,573.4 C139.51,572.84 152.18,573.74 163.81,574.79 C168.47,575.2 172.96,575.63 176.67,576.01 L185.99,577.01 L185.99,573.41 C183.4,571.63 180.39,569.65 177.17,567.65 C162.96,558.87 144.29,549.9 135.35,556.43 C122.76,550.35 109.98,547.43 106.35,558.25 C105.93,559.66 107.46,563.24 109.75,567.49 Z" id="Shape" fill="#000000" opacity="0.1"></path>
            <path d="M74.82,483.68 C75.02,489.07 77.04,503.06 91.51,517.19 C109.97,535.19 102.1,561.07 102.1,561.07 C102.1,561.07 124.1,569.71 133.59,569.94 C134.19477,569.958549 134.800053,569.928452 135.4,569.85 C141.09,569.06 163.71,571.15 176.71,572.46 L186.03,573.46 L186.03,496.94 L84.09,472.18 L74.86,481.38 C74.7976413,482.14503 74.7842807,482.913265 74.82,483.68 Z" id="Shape" fill="#5C5C8E"></path>
            <g id="Group" opacity="0.1" transform="translate(74.000000, 472.000000)" fill="#000000">
                <path d="M110.36,100.51 L112.03,100.68 L112.03,101.5 L102.71,100.5 C93.38,99.56 79.12,98.22 69.71,97.83 C76.22,97.25 97.77,99.24 110.36,100.51 Z" id="Shape"></path>
                <path d="M0.86,9.43 L10.09,0.23 L16.25,1.72 L8.56,9.43 C8.51096843,10.1958827 8.51096843,10.9641173 8.56,11.73 C8.76,17.12 10.78,31.1 25.25,45.24 C43.71,63.24 35.84,89.11 35.84,89.11 C35.84,89.11 54.04,96.26 64.47,97.73 C63.4674786,97.7258057 62.4656298,97.7825772 61.47,97.9 C60.870053,97.9784524 60.2647703,98.0085493 59.66,97.99 C50.17,97.75 28.17,89.11 28.17,89.11 C28.17,89.11 36.04,63.24 17.58,45.24 C3.04,31.1 1.02,17.12 0.82,11.76 C0.782991561,10.9832846 0.796352888,10.2049874 0.86,9.43 Z" id="Shape"></path>
            </g>
            <path d="M278.56,429.64 C278.56,429.64 309.39,408.26 311.64,427.5 C313.89,446.74 278.56,444.04 278.56,444.04 L278.56,429.64 Z" id="Shape" fill="#FBBEBE"></path>
            <path d="M225.4,415.46 C225.4,415.46 242.07,426.46 251.3,425.81 C251.3,425.81 276.5,429.19 279.43,427.5 C282.36,425.81 284.16,451.92 284.16,451.92 L242.75,448.99 L216.19,444.94 C216.19,444.94 202.91,436.84 202.91,429.86 C202.91,422.88 225.4,415.46 225.4,415.46 Z" id="Shape" fill="#F7CDDD"></path>
            <path d="M225.4,415.46 C225.4,415.46 242.07,426.46 251.3,425.81 C251.3,425.81 276.5,429.19 279.43,427.5 C282.36,425.81 284.16,451.92 284.16,451.92 L242.75,448.99 L216.19,444.94 C216.19,444.94 202.91,436.84 202.91,429.86 C202.91,422.88 225.4,415.46 225.4,415.46 Z" id="Shape" fill="#30AABC"></path>
            <path d="M249.84,471.1 C249.84,471.1 287.33,469.55 278.93,487.01 C270.53,504.47 242.13,483.27 242.13,483.27 L249.84,471.1 Z" id="Shape" fill="#FBBEBE"></path>
            <path d="M212.14,433.91 C212.14,433.91 242.52,411.18 238.25,383.5 C233.98,355.82 212.14,404.66 212.14,404.66 L212.14,433.91 Z" id="Shape" fill="#5C5C8E"></path>
            <path d="M220.56,308.42 C220.565798,318.377005 224.437958,327.942674 231.36,335.1 C235.093386,338.954585 239.588904,341.98906 244.56,344.01 C246.162966,344.680426 247.814343,345.228656 249.5,345.65 C251.29066,346.112128 253.111922,346.446304 254.95,346.65 C256.27,346.78 257.6,346.85 258.95,346.85 C263.247175,346.841112 267.51146,346.100526 271.56,344.66 C290.036609,338.242019 300.736691,318.961602 296.407663,299.887141 C292.078635,280.81268 274.103993,268.040112 254.667067,270.226765 C235.230141,272.413418 220.542706,288.860469 220.56,308.42 Z" id="Shape" fill="#FBBEBE"></path>
            <path d="M74.82,483.68 C78.26,484.31 82.51,485.47 82.51,487.25 C82.51,490.25 130.51,506.46 130.51,506.46 C130.51,506.46 128.71,510.65 133.51,517.86 C138.31,525.07 177.34,566.47 177.34,566.47 L177.21,567.69 L176.71,572.46 L174.33,595.27 C174.33,595.27 189.33,589.87 194.13,590.47 C195.68,590.66 197.37,589.67 198.92,588.23 C198.349487,585.504965 197.288955,582.906153 195.79,580.56 C195.79,580.56 191.9,577.5 186.03,573.45 L186.03,496.94 L84.09,472.18 L74.86,481.38 C74.7976413,482.14503 74.7842807,482.913265 74.82,483.68 Z" id="Shape" fill="#000000" opacity="0.1"></path>
            <path d="M70.5,479.45 C70.5,479.45 82.5,480.64 82.5,483.65 C82.5,486.66 130.5,502.86 130.5,502.86 C130.5,502.86 128.7,507.05 133.5,514.26 C138.3,521.47 177.33,562.87 177.33,562.87 L174.33,591.67 C174.33,591.67 189.33,586.27 194.13,586.87 C196.28,587.14 198.65,585.15 200.61,582.87 C202.23586,580.947667 203.685061,578.882639 204.94,576.7 C204.94,576.7 199.53,553.88 206.74,548.48 C213.95,543.08 198.94,503.48 198.94,503.48 C198.94,503.48 192.15,475.32 194.15,463.24 C194.277278,462.435283 194.47128,461.642549 194.73,460.87 C194.73,460.78 194.78,460.69 194.82,460.6 C199.1,449.06 245.14,352.25 245.14,352.25 C245.110416,349.504222 244.916737,346.762666 244.56,344.04 C244.47,343.28 244.35,342.49 244.2,341.7 C243.967651,340.260857 243.657193,338.835418 243.27,337.43 C243.01,336.51 242.73,335.63 242.4,334.79 C240.98,331.13 238.8,328.32 235.54,328.25 C235.54,328.25 231.94,324.25 223.54,323.19 C217.34,322.38 208.54,323.19 196.54,328.25 C168.34,340.25 161.74,340.85 161.74,340.85 L147.56,359.42 L144.64,363.24 C133.967644,377.160886 124.30625,391.828425 115.73,407.13 C111.01,415.61 104.33,425.5 96.32,431.44 C80.11,443.45 70.5,479.45 70.5,479.45 Z" id="Shape" fill="#30AABC"></path>
            <path d="M175.68,410.06 C175.68,410.06 135.62,419.96 120.09,444.94 L175.68,410.06 Z" id="Shape" fill="#000000" opacity="0.1"></path>
            <path d="M163.3,453.94 C163.3,453.94 155.73,504.8 157.83,508.63 C159.93,512.46 163.3,453.94 163.3,453.94 Z" id="Shape" fill="#000000" opacity="0.1"></path>
            <path d="M166.01,480.05 C168.93,483.87 180.76,513.36 180.76,513.36 L177.34,562.87 L174.34,591.67 C174.34,591.67 189.34,586.27 194.15,586.87 C196.29,587.14 198.67,585.16 200.63,582.87 C197.51,566 190.85,530.71 189.63,530.03 C188.04,529.13 179.94,500.77 179.51,492.89 C179.08,485.01 167.8,467.25 167.8,467.25 C167.8,467.25 163.08,476.23 166.01,480.05 Z" id="Shape" fill="#000000" opacity="0.1"></path>
            <path d="M177.34,431.44 C178.07,433.69 179.23,446.74 179.23,446.74 C180.05,458.25 188.75,462.01 194.15,463.21 C194.277278,462.405283 194.47128,461.612549 194.73,460.84 C198.33,450.65 245.14,352.22 245.14,352.22 C245.091556,347.224328 244.464032,342.251121 243.27,337.4 C233.08,334.4 216.94,339.02 216.94,339.02 C212.28,338.41 197.07,368.66 197.07,368.66 C197.07,368.66 186.93,391.83 185.82,394.98 C184.71,398.13 185.82,403.32 185.37,405.12 C184.92,406.92 180.18,408.48 179.51,410.97 C178.84,413.46 179.28,418.38 178.83,419.28 C178.38,420.18 176.56,429.19 177.34,431.44 Z" id="Shape" fill="#000000" opacity="0.1"></path>
            <path d="M180.94,429.64 C181.68,431.89 182.83,444.94 182.83,444.94 C183.51,454.52 189.67,458.73 194.83,460.57 C197.147207,461.397564 199.572745,461.882672 202.03,462.01 L209.27,468.29 L242.68,492.94 C242.68,492.94 255.14,469.94 251.76,469.79 C248.38,469.64 228.89,453.29 228.89,453.29 C222.89,450.11 216.95,439.47 214.18,434.01 C214.343508,433.351902 214.463765,432.683807 214.54,432.01 C215.75,421.82 240.95,382.81 240.95,382.81 C240.95,382.81 250.69,371.34 254.49,350.09 C254.6,349.61 254.67,349.09 254.76,348.6 C254.867721,347.938079 254.934514,347.270144 254.96,346.6 C255.41,338.43 249.47,335.46 242.41,334.75 C238.741836,334.464814 235.053549,334.578815 231.41,335.09 C227.765205,335.545434 224.156498,336.25381 220.61,337.21 C217.61,336.82 210.15,349.37 205.27,358.26 C202.64,363.08 200.75,366.85 200.75,366.85 C200.75,366.85 190.56,390.03 189.42,393.18 C188.28,396.33 189.42,401.51 188.97,403.32 C188.52,405.13 183.78,406.68 183.12,409.17 C182.46,411.66 182.88,416.58 182.43,417.48 C181.98,418.38 180.18,427.39 180.94,429.64 Z" id="Shape" fill="#30AABC"></path>
            <path d="M142.17,377.76 C148.51,384.28 158.85,384.3 167.11,380.99 C175.37,377.68 182.38,371.64 190.05,366.99 C195.05,363.99 200.29,361.46 205.19,358.33 C205.91,357.86 206.61,357.39 207.29,356.91 C212.95,352.91 217.84,347.78 223.69,344.11 C227.610787,341.516227 232.171839,340.05586 236.87,339.89 C239.037632,339.868148 241.184024,340.318583 243.16,341.21 C243.504962,341.359991 243.839098,341.533741 244.16,341.73 C246.082729,342.842884 247.862538,344.186136 249.46,345.73 C251.11,347.22 252.7,348.81 254.46,350.19 C254.57,349.71 254.64,349.19 254.73,348.7 C254.837721,348.038079 254.904514,347.370144 254.93,346.7 C256.25,346.83 257.58,346.9 258.93,346.9 C263.23678,346.877337 267.508103,346.119794 271.56,344.66 C271.56,344.5 271.62,344.33 271.65,344.17 C273.09,336.61 275.65,328.6 281.77,324.35 C285.3,321.88 290.94,320.88 295.82,319 C300.470563,302.802549 294.017181,285.465672 279.90751,276.251425 C265.797839,267.037178 247.329323,268.098939 234.368583,278.869472 C221.407844,289.640006 216.983819,307.602229 223.46,323.16 C217.26,322.35 208.46,323.16 196.46,328.22 C168.26,340.22 161.66,340.82 161.66,340.82 L147.56,359.42 C149.09,361.76 150.82,364.07 150.98,366.8 C151.3,371.86 146.42,375.35 142.17,377.76 Z" id="Shape" fill="#000000" opacity="0.1"></path>
            <path d="M281.82,320.76 C275.73,325.02 273.14,333.02 271.7,340.57 C271.25,342.93 270.82,345.42 269.38,347.29 C266.15,351.48 259.65,350.29 255.43,347.29 C251.21,344.29 247.89,339.73 243.18,337.6 C236.92,334.78 229.57,336.84 223.72,340.51 C217.87,344.18 212.97,349.31 207.31,353.3 C201.84,357.16 195.74,359.91 190.04,363.38 C182.38,368.05 175.38,374.08 167.11,377.38 C158.84,380.68 148.51,380.68 142.18,374.16 C146.43,371.8 151.31,368.31 150.98,363.26 C150.65,358.21 144.76,354.42 145.16,349.26 C145.56,344.1 151.65,342.04 156.02,339.5 C165.17,334.18 169.02,322.5 171.02,311.7 C172.54,303.27 173.79,293.84 180.1,288.43 C184.16,284.94 189.67,283.8 193.76,280.35 C197.64,277.07 199.76,272.1 202.24,267.53 C206.31,259.9 211.65,252.82 218.72,248.26 C225.79,243.7 234.78,241.94 242.54,245.01 C245.54,246.18 248.22,248.01 251.16,249.28 C258.46,252.44 266.83,252.02 274.07,255.34 C282.98,259.44 288.77,268.5 294.07,277.1 C298.6,284.45 307.46,297.46 304.98,306.96 C302.45,316.65 288.43,316.13 281.82,320.76 Z" id="Shape" fill="#7C5C5C"></path>
            <g id="Group" opacity="0.1" transform="translate(142.000000, 293.000000)" fill="#000000">
                <path d="M3.16,55.63 C3.19242686,55.2341822 3.26274894,54.8423878 3.37,54.46 C4.98,57 6.99,59.46 7.18,62.46 C7.22593108,63.1479878 7.16862965,63.8389757 7.01,64.51 C5.22,61.63 2.91,58.94 3.16,55.63 Z" id="Shape"></path>
                <path d="M23.31,76.57 C31.58,73.25 38.58,67.22 46.24,62.57 C51.94,59.1 58.04,56.35 63.51,52.49 C69.17,48.49 74.07,43.36 79.92,39.7 C85.77,36.04 93.12,33.97 99.38,36.79 C104.09,38.92 107.38,43.43 111.63,46.48 C115.88,49.53 122.35,50.72 125.58,46.53 C127.03,44.66 127.45,42.18 127.9,39.82 C129.34,32.26 131.9,24.26 138.02,20 C144.64,15.38 158.65,15.9 161.19,6.15 C161.613137,4.42023452 161.724881,2.62894236 161.52,0.86 C163.15,5.19 163.98,9.55 163,13.35 C160.45,23.1 146.44,22.58 139.82,27.2 C133.74,31.46 131.14,39.46 129.7,47.02 C129.25,49.38 128.83,51.87 127.39,53.73 C124.15,57.92 117.65,56.73 113.39,53.68 C109.13,50.63 105.85,46.12 101.14,43.99 C94.88,41.17 87.53,43.24 81.68,46.9 C75.83,50.56 70.93,55.7 65.27,59.69 C59.8,63.56 53.7,66.3 48,69.77 C40.34,74.45 33.34,80.47 25.07,83.77 C16.8,87.07 6.47,87.06 0.14,80.54 C1.77563623,79.6541157 3.32852357,78.6233198 4.78,77.46 C10.56,79.57 17.46,78.91 23.31,76.57 Z" id="Shape"></path>
            </g>
            <g id="card" transform="translate(338.000000, 144.000000)">
                <rect id="Rectangle-path" fill="url(#linearGradient-2)" transform="translate(231.895545, 179.712555) rotate(-17.260000) translate(-231.895545, -179.712555) " x="27.8345812" y="55.0218706" width="408.121928" height="249.381368" rx="15.4"></rect>
                <rect id="Rectangle-path" fill="#FFFFFF" transform="translate(232.699198, 177.557146) rotate(-17.260000) translate(-232.699198, -177.557146) " x="32.8" y="57.2796712" width="399.798397" height="240.554949" rx="15.4"></rect>
                <rect id="Rectangle-path" fill="#30AABC" transform="translate(211.541658, 109.442444) rotate(-17.260000) translate(-211.541658, -109.442444) " x="11.6424597" y="92.1930987" width="399.798397" height="34.49869"></rect>
                <rect id="Rectangle-path" fill="#BDBDBD" transform="translate(145.170874, 291.666210) rotate(-17.260000) translate(-145.170874, -291.666210) " x="94.3810849" y="284.207185" width="101.579577" height="14.9180495"></rect>
                <rect id="Rectangle-path" fill="#E0E0E0" transform="translate(173.300451, 256.556987) rotate(-17.260000) translate(-173.300451, -256.556987) " x="85.2340104" y="249.097962" width="176.132882" height="14.9180495"></rect>
                <rect id="Rectangle-path" fill="url(#linearGradient-3)" x="106.402297" y="134.968559" width="410.424063" height="249.627948" rx="15.4"></rect>
                <rect id="Rectangle-path" fill="#FFFFFF" x="111.062579" y="137.512809" width="399.798397" height="240.554949" rx="15.4"></rect>
                <rect id="Rectangle-path" fill="#E0E0E0" x="142.278624" y="175.273071" width="11.6507042" height="33.097671"></rect>
                <rect id="Rectangle-path" fill="#E0E0E0" x="157.189285" y="175.273071" width="11.6507042" height="33.097671"></rect>
                <rect id="Rectangle-path" fill="#E0E0E0" x="172.099946" y="175.273071" width="11.6507042" height="33.097671"></rect>
                <rect id="Rectangle-path" fill="#E0E0E0" x="198.196403" y="175.273071" width="11.6507042" height="33.097671"></rect>
                <rect id="Rectangle-path" fill="#E0E0E0" x="213.107064" y="175.273071" width="11.6507042" height="33.097671"></rect>
                <rect id="Rectangle-path" fill="#E0E0E0" x="228.017725" y="175.273071" width="11.6507042" height="33.097671"></rect>
                <rect id="Rectangle-path" fill="#E0E0E0" x="254.108581" y="175.273071" width="11.6507042" height="33.097671"></rect>
                <rect id="Rectangle-path" fill="#E0E0E0" x="269.024843" y="175.273071" width="11.6507042" height="33.097671"></rect>
                <rect id="Rectangle-path" fill="#E0E0E0" x="283.935504" y="175.273071" width="11.6507042" height="33.097671"></rect>
                <rect id="Rectangle-path" fill="#E0E0E0" x="310.02636" y="175.273071" width="11.6507042" height="33.097671"></rect>
                <rect id="Rectangle-path" fill="#E0E0E0" x="324.937021" y="175.273071" width="11.6507042" height="33.097671"></rect>
                <rect id="Rectangle-path" fill="#E0E0E0" x="339.847681" y="175.273071" width="11.6507042" height="33.097671"></rect>
                <rect id="Rectangle-path" fill="#BDBDBD" x="142.278624" y="342.168049" width="101.579577" height="14.9180495"></rect>
                <rect id="Rectangle-path" fill="#E0E0E0" x="142.278624" y="316.994541" width="176.132882" height="14.9180495"></rect>
                <path d="M431.91065,260.505459 C431.863407,259.15164 432.9213,258.015472 434.274399,257.966812 L437.780813,257.966812 L437.780813,236.962737 L406.475146,236.962737 L406.475146,261.116303 L431.905049,261.116303 L431.91065,260.505459 Z" id="Shape" fill="url(#linearGradient-4)"></path>
                <path d="M434.274399,283.173945 C432.9213,283.125285 431.863407,281.989117 431.91065,280.635298 L431.91065,280.002038 L406.480748,280.002038 L406.480748,304.155604 L437.780813,304.155604 L437.780813,283.173945 L434.274399,283.173945 Z" id="Shape" fill="url(#linearGradient-5)"></path>
                <rect id="Rectangle-path" fill="url(#linearGradient-6)" x="406.480748" y="264.265793" width="25.4299025" height="12.6035662"></rect>
                <path d="M446.580455,280.635298 C446.627698,281.989117 445.569805,283.125285 444.216706,283.173945 L440.732698,283.173945 L440.732698,304.17802 L472.032763,304.17802 L472.032763,280.002038 L446.60286,280.002038 L446.580455,280.635298 Z" id="Shape" fill="url(#linearGradient-7)"></path>
                <path d="M440.732698,236.962737 L440.732698,257.966812 L444.239112,257.966812 C445.59221,258.015472 446.650103,259.15164 446.60286,260.505459 L446.60286,261.116303 L472.032763,261.116303 L472.032763,236.962737 L440.732698,236.962737 Z" id="Shape" fill="url(#linearGradient-8)"></path>
                <rect id="Rectangle-path" fill="url(#linearGradient-9)" x="446.580455" y="264.265793" width="25.4299025" height="12.6035662"></rect>
                <path d="M432.017075,260.74083 C432.017075,259.502811 433.02019,258.499199 434.257595,258.499199 L437.618375,258.499199 L437.618375,239.843231 L407.763445,239.843231 L407.763445,261.284425 L432.022676,261.284425 L432.017075,260.74083 Z" id="Shape" fill="#30AABC"></path>
                <path d="M434.268797,280.865066 C433.031392,280.865066 432.028277,279.861453 432.028277,278.623435 L432.028277,278.063028 L407.757844,278.063028 L407.757844,299.509825 L437.612774,299.509825 L437.612774,280.865066 L434.268797,280.865066 Z" id="Shape" fill="#30AABC"></path>
                <rect id="Rectangle-path" fill="#30AABC" x="407.757844" y="264.080859" width="24.2592308" height="11.1913392"></rect>
                <path d="M446.009122,278.612227 C446.009122,279.850245 445.006007,280.853857 443.768602,280.853857 L440.407822,280.853857 L440.407822,299.504221 L470.262752,299.504221 L470.262752,278.068632 L446.009122,278.068632 L446.009122,278.612227 Z" id="Shape" fill="#30AABC"></path>
                <path d="M440.413424,239.843231 L440.413424,258.493595 L443.774204,258.493595 C445.011609,258.493595 446.014724,259.497207 446.014724,260.735226 L446.014724,261.295633 L470.273954,261.295633 L470.273954,239.843231 L440.413424,239.843231 Z" id="Shape" fill="#30AABC"></path>
                <rect id="Rectangle-path" fill="#30AABC" x="446.014724" y="264.080859" width="24.2592308" height="11.1913392"></rect>
            </g>
        </g>
    </g>
</svg>