<?xml version="1.0" encoding="UTF-8"?>
<svg width="875px" height="739px" viewBox="0 0 875 739" version="1.1" xmlns="http://www.w3.org/2000/svg" xmlns:xlink="http://www.w3.org/1999/xlink">
    <!-- Generator: Sketch 48.1 (47250) - http://www.bohemiancoding.com/sketch -->
    <title>order</title>
    <desc>Created with Sketch.</desc>
    <defs>
        <linearGradient x1="49.7271216%" y1="99.8757264%" x2="49.7895251%" y2="-0.115521949%" id="linearGradient-1">
            <stop stop-color="#808080" stop-opacity="0.25" offset="0%"></stop>
            <stop stop-color="#808080" stop-opacity="0.12" offset="54%"></stop>
            <stop stop-color="#808080" stop-opacity="0.1" offset="100%"></stop>
        </linearGradient>
        <linearGradient x1="49.8343505%" y1="99.8757264%" x2="49.8722323%" y2="-0.115521949%" id="linearGradient-2">
            <stop stop-color="#808080" stop-opacity="0.25" offset="0%"></stop>
            <stop stop-color="#808080" stop-opacity="0.12" offset="54%"></stop>
            <stop stop-color="#808080" stop-opacity="0.1" offset="100%"></stop>
        </linearGradient>
        <linearGradient x1="-0.523741434%" y1="50.0020309%" x2="99.9338477%" y2="50.0020309%" id="linearGradient-3">
            <stop stop-color="#FFFFFF" stop-opacity="0.09" offset="0%"></stop>
            <stop stop-color="#FFFFFF" stop-opacity="0.07" offset="55%"></stop>
            <stop stop-color="#FFFFFF" stop-opacity="0.02" offset="100%"></stop>
        </linearGradient>
        <linearGradient x1="13734%" y1="41618%" x2="13734%" y2="34315%" id="linearGradient-4">
            <stop stop-color="#808080" stop-opacity="0.25" offset="0%"></stop>
            <stop stop-color="#808080" stop-opacity="0.12" offset="54%"></stop>
            <stop stop-color="#808080" stop-opacity="0.1" offset="100%"></stop>
        </linearGradient>
        <linearGradient x1="67783%" y1="25953%" x2="67783%" y2="18650%" id="linearGradient-5">
            <stop stop-color="#808080" stop-opacity="0.25" offset="0%"></stop>
            <stop stop-color="#808080" stop-opacity="0.12" offset="54%"></stop>
            <stop stop-color="#808080" stop-opacity="0.1" offset="100%"></stop>
        </linearGradient>
        <linearGradient x1="42574%" y1="73363%" x2="42574%" y2="66060%" id="linearGradient-6">
            <stop stop-color="#808080" stop-opacity="0.25" offset="0%"></stop>
            <stop stop-color="#808080" stop-opacity="0.12" offset="54%"></stop>
            <stop stop-color="#808080" stop-opacity="0.1" offset="100%"></stop>
        </linearGradient>
    </defs>
    <g id="Page-1" stroke="none" stroke-width="1" fill="none" fill-rule="evenodd">
        <g id="order">
            <g id="Group" opacity="0.5" transform="translate(0.000000, 130.000000)" fill="url(#linearGradient-2)" fill-rule="nonzero">
                <path d="M0.74,552.02 L0,21.81 C0,10.764305 8.954305,1.81 20,1.81 L853.41,0.7 C864.455695,0.7 873.41,9.654305 873.41,20.7 L874.14,550.91 C874.14,556.21433 872.032863,561.301408 868.282136,565.052136 C864.531408,568.802863 859.44433,570.91 854.14,570.91 L20.73,572.02 C9.68821045,572.014479 0.73999862,563.061791 0.74,552.02 Z" id="Shape"></path>
            </g>
            <rect id="Rectangle-path" fill="url(#linearGradient-3)" fill-rule="nonzero" transform="translate(435.570137, 417.333847) rotate(-0.080000) translate(-435.570137, -417.333847) " x="64.9101367" y="171.133847" width="741.32" height="492.4"></rect>
            <rect id="Rectangle-path" fill="#FFFFFF" fill-rule="nonzero" transform="translate(438.798716, 416.314352) rotate(-0.080000) translate(-438.798716, -416.314352) " x="17.2187163" y="148.569352" width="843.16" height="535.49" rx="12.68"></rect>
            <rect id="Rectangle-path" fill="#30AABC" fill-rule="nonzero" opacity="0.2" transform="translate(441.525000, 416.600000) rotate(90.000000) translate(-441.525000, -416.600000) " x="210.305" y="63.005" width="462.44" height="707.19"></rect>
            <polyline id="Shape" stroke="#30AABC" stroke-width="2" stroke-dasharray="12" points="672.1 253.44 672.1 636.25 569.4 636.25"></polyline>
            <polyline id="Shape" stroke="#30AABC" stroke-width="2" stroke-dasharray="12" points="139.91 393.49 139.91 636.25 289.29 636.25"></polyline>
            <g id="Group" opacity="0.5" transform="translate(100.000000, 356.000000)" fill="url(#linearGradient-4)" fill-rule="nonzero">
                <circle id="Oval" cx="37.34" cy="36.66" r="36.52"></circle>
            </g>
            <g id="red" transform="translate(28.000000, 156.000000)" fill-rule="nonzero">
                <circle id="Oval" fill="#F5F5F5" cx="114.3" cy="113.58" r="113.44"></circle>
                <path d="M114.4,227.47 C136.554122,227.49862 158.227168,221.009226 176.72,208.81 C172.54,185.97 156.63,184.66 156.63,184.66 L68.95,184.66 C68.95,184.66 53.95,185.89 49.25,206.91 C68.3228544,220.325868 91.0813842,227.507992 114.4,227.47 Z" id="Shape" fill="#30AABC"></path>
                <circle id="Oval" fill="#F55F44" cx="113.2" cy="111.19" r="54.76"></circle>
                <path d="M95.53,156.8 L130.62,156.8 L130.62,184.87 C130.62,194.557075 122.767075,202.41 113.08,202.41 C103.392925,202.41 95.54,194.557075 95.54,184.87 L95.54,156.8 L95.53,156.8 Z" id="Shape" fill="#000000" opacity="0.1"></path>
                <path d="M98.88,155.5 L127.27,155.5 C128.158475,155.5 129.010561,155.852945 129.638808,156.481192 C130.267055,157.109439 130.62,157.961525 130.62,158.85 L130.62,183.57 C130.62,188.221897 128.772041,192.683265 125.482653,195.972653 C122.193265,199.262041 117.731897,201.11 113.08,201.11 C108.428103,201.11 103.966735,199.262041 100.677347,195.972653 C97.387959,192.683265 95.54,188.221897 95.54,183.57 L95.54,158.85 C95.54,156.999846 97.0398461,155.5 98.89,155.5 L98.88,155.5 Z" id="Shape" fill="#FDA57D"></path>
                <path d="M95.6,170.05 C106.908691,174.276642 119.357402,174.312118 130.69,170.15 L130.69,165.84 L95.6,165.84 L95.6,170.05 Z" id="Shape" fill="#000000" opacity="0.1"></path>
                <circle id="Oval" fill="#FDA57D" cx="113.2" cy="122.11" r="50.29"></circle>
                <circle id="Oval" fill="#F55F44" cx="113.13" cy="55.49" r="20.24"></circle>
                <circle id="Oval" fill="#F55F44" cx="113.13" cy="35.56" r="13.29"></circle>
                <path d="M104.35,66.59 C94.4859442,62.165355 89.8405423,50.7698099 93.8,40.71 C93.66,40.99 93.52,41.28 93.39,41.57 C90.4300545,48.1686955 91.2153142,55.8452537 95.4499793,61.7079894 C99.6846445,67.5707251 106.725369,70.7289493 113.91998,69.9929895 C121.11459,69.2570296 127.370055,64.7386956 130.33,58.14 C130.46,57.85 130.58,57.56 130.7,57.26 C125.81939,66.9097489 114.215424,71.0184778 104.35,66.59 Z" id="Shape" fill="#F55F44"></path>
                <path d="M77.39,76.37 C77.39,76.37 98.58,119.37 158.39,94.37 L144.47,72.54 L119.8,63.68 L77.39,76.37 Z" id="Shape" fill="#000000" opacity="0.1"></path>
                <path d="M77.39,75.73 C77.39,75.73 98.58,118.73 158.39,93.73 L144.47,71.9 L119.8,63.04 L77.39,75.73 Z" id="Shape" fill="#F55F44"></path>
                <path d="M93.72,60.07 C106.759866,59.0444254 119.860134,59.0444254 132.9,60.07 C132.9,60.07 103.96,62.76 93.72,60.07 Z" id="Shape" fill="#333333"></path>
                <path d="M116.17,21.46 C115.164523,21.423115 114.158104,21.5002738 113.17,21.69 L113.94,21.69 C120.71789,21.9068161 126.243635,27.1954948 126.757261,33.9573729 C127.270886,40.7192511 122.607376,46.7818952 115.94,48.02 C123.274341,48.0862738 129.273725,42.1943412 129.339999,34.86 C129.406274,27.5256587 123.514341,21.5262745 116.18,21.46 L116.17,21.46 Z" id="Shape" fill="#F55F44"></path>
                <ellipse id="Oval" fill="#FDA57D" cx="62.9" cy="122.06" rx="4.68" ry="8.77"></ellipse>
                <ellipse id="Oval" fill="#FDA57D" cx="163.49" cy="122.06" rx="4.68" ry="8.77"></ellipse>
                <polygon id="Shape" fill="#F55F44" points="74.22 77 84.03 71.94 86.24 80.05 80.23 84.14"></polygon>
            </g>
            <g id="no" transform="translate(102.000000, 358.000000)" fill-rule="nonzero">
                <circle id="Oval" fill="#C03334" cx="35.34" cy="34.66" r="34.37"></circle>
                <rect id="Rectangle-Copy" fill="#FFFFFF" transform="translate(35.519448, 34.490642) rotate(-45.000000) translate(-35.519448, -34.490642) " x="31.5872619" y="13.7396683" width="7.86437247" height="41.5019469" rx="0.560000002"></rect>
                <rect id="Rectangle-Copy-2" fill="#FFFFFF" transform="translate(35.519448, 34.490642) rotate(45.000000) translate(-35.519448, -34.490642) " x="31.5872619" y="13.7396683" width="7.86437247" height="41.5019469" rx="0.560000002"></rect>
            </g>
            <g id="Group-4" transform="translate(559.000000, 0.000000)" fill-rule="nonzero">
                <circle id="Oval" fill="#F5F5F5" cx="113.45" cy="114.14" r="113.44"></circle>
                <path d="M113.55,228.04 C135.717739,228.076473 157.405803,221.586748 175.91,209.38 C171.72,186.53 155.82,185.22 155.82,185.22 L68.11,185.22 C68.11,185.22 53.11,186.45 48.41,207.47 C67.4788858,220.887448 90.2337135,228.072999 113.55,228.04 Z" id="Shape" fill="#30AABC"></path>
                <circle id="Oval" fill="#72351C" cx="112.36" cy="111.75" r="54.76"></circle>
                <path d="M94.68,157.36 L129.770026,157.36 L129.77,185.43 C129.777965,190.087093 127.933523,194.556171 124.643272,197.852051 C121.35302,201.14793 116.8871,203.000007 112.23,203 C102.542925,203 94.69,195.147075 94.69,185.46 L94.69,157.36 L94.68,157.36 Z" id="Shape" fill="#000000" opacity="0.1"></path>
                <path d="M98,156.06 L126.39,156.06 C128.240154,156.06 129.74,157.559846 129.74,159.41 L129.74,184.13 C129.74,193.817075 121.887075,201.67 112.2,201.67 C102.512925,201.67 94.66,193.817075 94.66,184.13 L94.66,159.41 C94.66,157.559846 96.1598461,156.06 98.01,156.06 L98,156.06 Z" id="Shape" fill="#FDA57D"></path>
                <path d="M94.72,170.61 C106.028691,174.836642 118.477402,174.872118 129.81,170.71 L129.81,166.4 L94.72,166.4 L94.72,170.61 Z" id="Shape" fill="#000000" opacity="0.1"></path>
                <circle id="Oval" fill="#FDA57D" cx="112.36" cy="122.67" r="50.29"></circle>
                <path d="M76.54,76.93 C76.54,76.93 97.73,119.93 157.54,94.93 L143.62,73.1 L118.95,64.24 L76.54,76.93 Z" id="Shape" fill="#000000" opacity="0.1"></path>
                <path d="M76.54,76.3 C76.54,76.3 97.73,119.3 157.54,94.3 L143.62,72.47 L118.95,63.61 L76.54,76.3 Z" id="Shape" fill="#72351C"></path>
                <path d="M76.35,73.39 C77.7786125,68.966862 80.2477363,64.9511065 83.55,61.68 C93.44,51.9 109.66,49.84 117.98,38.68 C118.89416,40.2772077 119.089592,42.1867149 118.517933,43.9359911 C117.946274,45.6852674 116.660939,47.110864 114.98,47.86 C122.98,47.81 132.19,47.11 136.69,40.55 C138.96322,45.8411302 137.986139,51.968323 134.18,56.29 C141.24,56.61 148.78,61.4 149.24,68.46 C149.54,73.16 146.6,77.61 142.73,80.31 C138.86,83.01 134.2,84.22 129.6,85.22 C116.18,88.22 67.59,100.63 76.35,73.39 Z" id="Shape" fill="#72351C"></path>
                <path d="M162.65,123.11 L161.32,123.11 L135.38,146.22 C110.38,134.52 92.04,146.22 92.04,146.22 L64.84,124.08 L62.1,124.42 C62.8718779,151.884131 85.54251,173.645447 113.015225,173.293023 C140.487941,172.940598 162.592889,150.604894 162.66,123.13 L162.65,123.11 Z M112.29,155.06 C102.51,155.06 94.58,153.06 94.58,150.63 C94.58,148.2 102.51,146.2 112.29,146.2 C122.07,146.2 130,148.2 130,150.63 C130,153.06 122.07,155.06 112.28,155.06 L112.29,155.06 Z" id="Shape" fill="#72351C"></path>
                <ellipse id="Oval" fill="#FDA57D" cx="62.05" cy="122.62" rx="4.68" ry="8.77"></ellipse>
                <ellipse id="Oval" fill="#FDA57D" cx="162.64" cy="122.62" rx="4.68" ry="8.77"></ellipse>
            </g>
            <g id="no-copy-2" transform="translate(638.000000, 199.000000)" fill-rule="nonzero">
                <circle id="Oval" fill="#C03334" cx="35.34" cy="34.66" r="34.37"></circle>
                <rect id="Rectangle-Copy" fill="#FFFFFF" transform="translate(35.519448, 34.490642) rotate(-45.000000) translate(-35.519448, -34.490642) " x="31.5872619" y="13.7396683" width="7.86437247" height="41.5019469" rx="0.560000002"></rect>
                <rect id="Rectangle-Copy-2" fill="#FFFFFF" transform="translate(35.519448, 34.490642) rotate(45.000000) translate(-35.519448, -34.490642) " x="31.5872619" y="13.7396683" width="7.86437247" height="41.5019469" rx="0.560000002"></rect>
            </g>
            <g id="Group-3" transform="translate(312.000000, 456.000000)" fill-rule="nonzero">
                <circle id="Oval" fill="#F5F5F5" cx="113.72" cy="113.63" r="113.44"></circle>
                <path d="M176.47,123.83 C176.47,165.61 149.21,212.12 115.58,212.12 C81.95,212.12 54.72,165.61 54.72,123.83 C54.72,82.05 81.98,60.83 115.61,60.83 C149.24,60.83 176.47,82.06 176.47,123.83 Z" id="Shape" fill="#FDD835"></path>
                <path d="M114.04,227.42 C136.207739,227.456473 157.895803,220.966748 176.4,208.76 C172.22,185.92 156.31,184.61 156.31,184.61 L68.6,184.61 C68.6,184.61 53.6,185.84 48.9,206.86 C67.9700645,220.273899 90.7247959,227.455926 114.04,227.42 Z" id="Shape" fill="#30AABC"></path>
                <path d="M95.18,156.74 L130.27,156.74 L130.27,184.81 C130.27,194.497075 122.417075,202.35 112.73,202.35 C103.042925,202.35 95.19,194.497075 95.19,184.81 L95.19,156.74 L95.18,156.74 Z" id="Shape" fill="#000000" opacity="0.1"></path>
                <path d="M98.53,155.44 L126.92,155.44 C128.770154,155.44 130.27,156.939846 130.27,158.79 L130.27,183.51 C130.27,193.197075 122.417075,201.05 112.73,201.05 C103.042925,201.05 95.19,193.197075 95.19,183.51 L95.19,158.79 C95.1899918,156.943744 96.6837525,155.445511 98.53,155.44 Z" id="Shape" fill="#FDB797"></path>
                <path d="M95.25,169.99 C106.558691,174.216642 119.007402,174.252118 130.34,170.09 L130.34,165.78 L95.25,165.78 L95.25,169.99 Z" id="Shape" fill="#000000" opacity="0.1"></path>
                <circle id="Oval" fill="#FDB797" cx="112.85" cy="122.05" r="50.29"></circle>
                <ellipse id="Oval" fill="#FDB797" cx="63.6" cy="119.9" rx="4.68" ry="8.77"></ellipse>
                <ellipse id="Oval" fill="#FDB797" cx="161.84" cy="119.9" rx="4.68" ry="8.77"></ellipse>
                <path d="M68.29,94.77 C68.29,94.77 96.72,133.68 161.92,120.39 C161.92,120.39 169.2,111.53 151.48,84.33 C133.76,57.13 84.42,61.56 68.29,94.77 Z" id="Shape" fill="#000000" opacity="0.1"></path>
                <path d="M68.29,94.14 C68.29,94.14 96.72,133.05 161.92,119.76 C161.92,119.76 169.2,110.9 151.48,83.7 C133.76,56.5 84.42,60.93 68.29,94.14 Z" id="Shape" fill="#FDD835"></path>
            </g>
            <g id="no-copy" transform="translate(389.000000, 669.000000)" fill-rule="nonzero">
                <circle id="Oval" fill="#C03334" cx="35.34" cy="34.66" r="34.37"></circle>
                <rect id="Rectangle-Copy" fill="#FFFFFF" transform="translate(35.519448, 34.490642) rotate(-45.000000) translate(-35.519448, -34.490642) " x="31.5872619" y="13.7396683" width="7.86437247" height="41.5019469" rx="0.560000002"></rect>
                <rect id="Rectangle-Copy-2" fill="#FFFFFF" transform="translate(35.519448, 34.490642) rotate(45.000000) translate(-35.519448, -34.490642) " x="31.5872619" y="13.7396683" width="7.86437247" height="41.5019469" rx="0.560000002"></rect>
            </g>
            <g id="Group" opacity="0.5" transform="translate(636.000000, 199.000000)" fill="url(#linearGradient-5)" fill-rule="nonzero">
                <circle id="Oval" cx="36.83" cy="37.01" r="36.52"></circle>
            </g>
            <g id="Group" opacity="0.5" transform="translate(389.000000, 662.000000)" fill="url(#linearGradient-6)" fill-rule="nonzero">
                <circle id="Oval" cx="36.74" cy="37.11" r="36.52"></circle>
            </g>
        </g>
    </g>
</svg>