<?xml version="1.0" encoding="UTF-8"?>
<svg width="875px" height="573px" viewBox="0 0 875 573" version="1.1" xmlns="http://www.w3.org/2000/svg" xmlns:xlink="http://www.w3.org/1999/xlink">
    <!-- Generator: Sketch 48.1 (47250) - http://www.bohemiancoding.com/sketch -->
    <title>select</title>
    <desc>Created with Sketch.</desc>
    <defs>
        <linearGradient x1="49.8821616%" y1="99.8757264%" x2="49.9091097%" y2="-0.115521949%" id="linearGradient-1">
            <stop stop-color="#808080" stop-opacity="0.25" offset="0%"></stop>
            <stop stop-color="#808080" stop-opacity="0.12" offset="54%"></stop>
            <stop stop-color="#808080" stop-opacity="0.1" offset="100%"></stop>
        </linearGradient>
        <linearGradient x1="49.9292401%" y1="99.8757264%" x2="49.945422%" y2="-0.115521949%" id="linearGradient-2">
            <stop stop-color="#808080" stop-opacity="0.25" offset="0%"></stop>
            <stop stop-color="#808080" stop-opacity="0.12" offset="54%"></stop>
            <stop stop-color="#808080" stop-opacity="0.1" offset="100%"></stop>
        </linearGradient>
        <linearGradient x1="-0.523741434%" y1="50.0020309%" x2="99.9338477%" y2="50.0020309%" id="linearGradient-3">
            <stop stop-color="#FFFFFF" stop-opacity="0.09" offset="0%"></stop>
            <stop stop-color="#FFFFFF" stop-opacity="0.07" offset="55%"></stop>
            <stop stop-color="#FFFFFF" stop-opacity="0.02" offset="100%"></stop>
        </linearGradient>
    </defs>
    <g id="Page-1" stroke="none" stroke-width="1" fill="none" fill-rule="evenodd">
        <g id="select">
            <g id="Group" opacity="0.5" fill="url(#linearGradient-2)" fill-rule="nonzero">
                <path d="M0.74,552.02 L0,21.81 C0,10.764305 8.954305,1.81 20,1.81 L853.41,0.7 C864.455695,0.7 873.41,9.654305 873.41,20.7 L874.14,550.91 C874.14,556.21433 872.032863,561.301408 868.282136,565.052136 C864.531408,568.802863 859.44433,570.91 854.14,570.91 L20.73,572.02 C9.68821045,572.014479 0.73999862,563.061791 0.74,552.02 Z" id="Shape"></path>
            </g>
            <rect id="Rectangle-path" fill="url(#linearGradient-3)" fill-rule="nonzero" transform="translate(435.570137, 287.333847) rotate(-0.080000) translate(-435.570137, -287.333847) " x="64.9101367" y="41.133847" width="741.32" height="492.4"></rect>
            <rect id="Rectangle-path" fill="#FFFFFF" fill-rule="nonzero" transform="translate(438.798716, 286.314352) rotate(-0.080000) translate(-438.798716, -286.314352) " x="17.2187163" y="18.569352" width="843.16" height="535.49" rx="12.68"></rect>
            <rect id="Rectangle-path" fill="#30AABC" fill-rule="nonzero" opacity="0.2" transform="translate(441.525000, 286.600000) rotate(90.000000) translate(-441.525000, -286.600000) " x="210.305" y="-66.995" width="462.44" height="707.19"></rect>
            <g id="Group-6" transform="translate(131.000000, 114.000000)" fill-rule="nonzero">
                <g id="Group-5">
                    <circle id="Oval" fill="#F5F5F5" cx="103.5" cy="103.14" r="102.64"></circle>
                    <g id="Group-4" transform="translate(43.000000, 8.000000)">
                        <path d="M20.06,132.27 C20.06,132.27 -4.4,134.27 2.06,178.83 C5.4119912,182.045204 9.368295,184.563779 13.7,186.24 L27.46,139.68 L20.06,132.27 Z" id="Shape" fill="#30AABC"></path>
                        <path d="M99.47,132.27 C99.47,132.27 123.93,134.27 117.47,178.83 C114.118009,182.045204 110.161705,184.563779 105.83,186.24 L92.06,139.67 L99.47,132.27 Z" id="Shape" fill="#30AABC"></path>
                        <circle id="Oval" fill="#333333" cx="60.43" cy="56.08" r="45.5"></circle>
                        <path d="M99,132.27 L19.63,132.27 L12.22,164.02 C12.22,164.02 7.87,178.72 13.28,185.18 C18.69,191.64 69.28,206.34 106.4,186.24 C109.633988,177.782945 110.006334,168.49888 107.46,159.81 C103.23,145 106.4,158.75 106.4,158.75 L99,132.27 Z" id="Shape" fill="#4D8AF0"></path>
                        <path d="M100.06,132.27 L20.69,132.27 L13.28,164.02 C13.28,164.02 8.93,178.72 14.34,185.18 C19.75,191.64 70.34,206.34 107.46,186.24 C110.693988,177.782945 111.066334,168.49888 108.52,159.81 C104.29,145 107.46,158.75 107.46,158.75 L100.06,132.27 Z" id="Shape" fill="#4D8AF0"></path>
                        <path d="M99.47,132.27 L20.06,132.27 L12.65,164.02 C12.65,164.02 8.3,178.72 13.71,185.18 C19.12,191.64 69.71,206.34 106.83,186.24 C110.077149,177.787358 110.463549,168.503231 107.93,159.81 C103.7,145 106.87,158.75 106.87,158.75 L99.47,132.27 Z" id="Shape" fill="#30AABC"></path>
                        <path d="M44.44,105.93 L76.19,105.93 L76.19,131.93 C76.19,140.379957 69.339957,147.23 60.89,147.23 L59.74,147.23 C51.290043,147.23 44.44,140.379957 44.44,131.93 L44.44,105.93 Z" id="Shape" fill="#000000" opacity="0.1"></path>
                        <path d="M44.44,104.76 L76.19,104.76 L76.19,130.76 C76.19,139.209957 69.339957,146.06 60.89,146.06 L59.74,146.06 C51.290043,146.06 44.44,139.209957 44.44,130.76 L44.44,104.76 Z" id="Shape" fill="#FDB797"></path>
                        <path d="M44.5,109.33 C54.732293,113.154463 65.99619,113.186392 76.25,109.42 L76.25,105.52 L44.5,105.52 L44.5,109.33 Z" id="Shape" fill="#000000" opacity="0.1"></path>
                        <circle id="Oval" fill="#FDB797" cx="60.43" cy="65.96" r="45.5"></circle>
                        <path d="M16.93,49.81 L103.7,49.81 C103.7,49.81 96.29,14.81 63.49,17.01 C30.69,19.21 16.93,49.81 16.93,49.81 Z" id="Shape" fill="#000000" opacity="0.1"></path>
                        <path d="M16.93,48.67 L103.7,48.67 C103.7,48.67 96.29,13.67 63.49,15.87 C30.69,18.07 16.93,48.67 16.93,48.67 Z" id="Shape" fill="#333333"></path>
                        <ellipse id="Oval" fill="#FDB797" cx="15.87" cy="64.02" rx="4.23" ry="7.94"></ellipse>
                        <ellipse id="Oval" fill="#FDB797" cx="104.75" cy="64.02" rx="4.23" ry="7.94"></ellipse>
                        <path d="M23.67,25.46 C24.602897,22.000459 26.66115,18.950023 29.52,16.79 C31.74,15.25 34.39,14.51 36.93,13.61 C40.69481,12.278093 44.308232,10.551829 47.71,8.46 C51.57,6.08 55.19,3.22 59.44,1.65 C66.75,-1.05 74.89,0.41 82.44,2.35 C84.322787,2.745506 86.136064,3.419586 87.82,4.35 C89.65212,5.61858 91.263548,7.179334 92.59,8.97 L104.59,23.42 C105.743802,24.699876 106.750116,26.105362 107.59,27.61 C108.310849,29.097154 108.770872,30.697087 108.95,32.34 C109.378156,34.997035 108.928805,37.721226 107.67,40.1 C105.67,43.56 101.47,45.3 97.47,45.46 C93.47,45.62 89.54,44.46 85.69,43.33 C73.29,39.7 60.69,36.33 47.87,34.81 C41.48846,34.023888 35.048912,33.816377 28.63,34.19 C26.63,34.32 23.95,35.25 22.73,33.19 C21.62,31.4 23.12,27.24 23.67,25.46 Z" id="Shape" fill="#333333"></path>
                    </g>
                </g>
                <g id="Group-2" transform="translate(64.000000, 169.000000)">
                    <circle id="Oval" fill="#69F0AE" cx="35.34" cy="34.66" r="34.37"></circle>
                    <polygon id="Shape" fill="#FFFFFF" points="20.42 30.08 33.31 41.89 51.56 15.04 58.01 20.41 33.31 52.63 15.05 32.23"></polygon>
                </g>
            </g>
            <g id="Group-10" transform="translate(545.000000, 112.000000)">
                <g id="Group-2">
                    <circle id="Oval" fill="#F5F5F5" fill-rule="nonzero" cx="113.55" cy="113.95" r="113.44"></circle>
                    <path d="M113.87,227.73 C136.037739,227.766473 157.725803,221.276748 176.23,209.07 C172.05,186.23 156.14,184.92 156.14,184.92 L68.42,184.92 C68.42,184.92 53.42,186.15 48.72,207.17 C67.7928544,220.585868 90.5513842,227.767992 113.87,227.73 Z" id="Shape" fill="#30AABC" fill-rule="nonzero"></path>
                    <path d="M95,157.06 L130.09,157.06 L130.09,185.13 C130.09,194.817075 122.237075,202.67 112.55,202.67 C107.89637,202.672653 103.432433,200.825866 100.140882,197.53619 C96.8493309,194.246514 94.9999992,189.78363 95,185.13 L95,157.06 Z" id="Shape" fill="#000000" fill-rule="nonzero" opacity="0.1"></path>
                    <path d="M98.35,155.76 L126.74,155.76 C128.590154,155.76 130.09,157.259846 130.09,159.11 L130.09,183.83 C130.09,193.517075 122.237075,201.37 112.55,201.37 C107.89637,201.372653 103.432433,199.525866 100.140882,196.23619 C96.8493309,192.946514 94.9999992,188.48363 95,183.83 L95,159.11 C95,157.259846 96.4998461,155.76 98.35,155.76 Z" id="Shape" fill="#FDB797" fill-rule="nonzero"></path>
                    <path d="M95.07,170.31 C106.378691,174.536642 118.827402,174.572118 130.16,170.41 L130.16,166.1 L95.07,166.1 L95.07,170.31 Z" id="Shape" fill="#000000" fill-rule="nonzero" opacity="0.1"></path>
                    <circle id="Oval" fill="#FDB797" fill-rule="nonzero" cx="112.67" cy="122.37" r="50.29"></circle>
                    <ellipse id="Oval" fill="#FDB797" fill-rule="nonzero" cx="63.42" cy="120.22" rx="4.68" ry="8.77"></ellipse>
                    <ellipse id="Oval" fill="#FDB797" fill-rule="nonzero" cx="161.66" cy="120.22" rx="4.68" ry="8.77"></ellipse>
                    <rect id="Rectangle-path" stroke="#333333" stroke-width="2" x="82.03" y="122.61" width="21.51" height="10.76" rx="4.35"></rect>
                    <rect id="Rectangle-path" stroke="#333333" stroke-width="2" transform="translate(132.565000, 127.980000) rotate(180.000000) translate(-132.565000, -127.980000) " x="121.81" y="122.6" width="21.51" height="10.76" rx="4.35"></rect>
                    <path d="M102.72,123.65 C102.72,123.65 109.54,119.95 122.22,123.65" id="Shape" stroke="#333333" stroke-width="2"></path>
                    <path d="M147.44,85.92 L159.78,114.59 C159.78,114.59 174.87,95.57 147.44,85.92 Z" id="Shape" fill="#858585" fill-rule="nonzero"></path>
                    <path d="M143.32,127.99 L161.74,111.54" id="Shape" stroke="#333333" stroke-width="2" stroke-linecap="round" stroke-linejoin="round"></path>
                    <path d="M77.92,85.92 L65.58,114.59 C65.58,114.59 50.49,95.57 77.92,85.92 Z" id="Shape" fill="#858585" fill-rule="nonzero"></path>
                    <path d="M82.03,127.99 L63.36,111.54" id="Shape" stroke="#333333" stroke-width="2" stroke-linecap="round" stroke-linejoin="round"></path>
                </g>
                <g id="Group-3" transform="translate(76.000000, 191.000000)" fill-rule="nonzero">
                    <circle id="Oval" fill="#69F0AE" cx="34.83" cy="35.01" r="34.37"></circle>
                    <polygon id="Shape" fill="#FFFFFF" points="19.91 30.43 32.8 42.24 51.06 15.39 57.5 20.76 32.8 52.98 14.54 32.57"></polygon>
                </g>
            </g>
            <g id="Group-9" transform="translate(338.000000, 251.000000)" fill-rule="nonzero">
                <g id="Group-8">
                    <circle id="Oval" fill="#F5F5F5" cx="103.6" cy="103.59" r="102.64"></circle>
                    <path d="M63.36,145.68 C63.36,145.68 38.9,147.68 45.36,192.24 C48.711991,195.455204 52.668295,197.973779 57,199.65 L70.76,153.09 L63.36,145.68 Z" id="Shape" fill="#BE7C5E"></path>
                    <path d="M142.72,145.68 C142.72,145.68 167.18,147.68 160.72,192.24 C157.362114,195.457427 153.398822,197.976123 149.06,199.65 L135.3,153.09 L142.72,145.68 Z" id="Shape" fill="#BE7C5E"></path>
                    <path d="M64.42,72.67 C64.42,72.67 62.54,78.15 59.87,84.49 C54.05,98.36 60.69,151.62 74.62,157.29 C90.25,163.66 110.8,167.74 132.15,159.95 C150.71,153.18 156.43,92.56 143.31,77.79 C141.77,76.06 140.16,74.34 138.48,72.66 L64.42,72.67 Z" id="Shape" fill="#333333"></path>
                    <circle id="Oval" fill="#333333" cx="103.68" cy="69.5" r="45.5"></circle>
                    <path d="M142.25,145.68 L62.89,145.68 L55.48,177.43 C55.48,177.43 51.13,192.13 56.54,198.59 C61.95,205.05 112.54,219.75 149.66,199.65 C152.898466,191.186929 153.270842,181.895081 150.72,173.2 C146.49,158.39 149.66,172.14 149.66,172.14 L142.25,145.68 Z" id="Shape" fill="#000000" opacity="0.1"></path>
                    <path d="M143.31,145.68 L63.95,145.68 L56.54,177.43 C56.54,177.43 52.19,192.13 57.6,198.59 C63.01,205.05 113.6,219.75 150.72,199.65 C153.958466,191.186929 154.330842,181.895081 151.78,173.2 C147.55,158.39 150.72,172.14 150.72,172.14 L143.31,145.68 Z" id="Shape" fill="#000000" opacity="0.1"></path>
                    <path d="M142.72,145.68 L63.36,145.68 L55.95,177.43 C55.95,177.43 51.6,192.13 57.01,198.59 C62.42,205.05 113.01,219.75 150.13,199.65 C153.368466,191.186929 153.740842,181.895081 151.19,173.2 C146.96,158.39 150.13,172.14 150.13,172.14 L142.72,145.68 Z" id="Shape" fill="#30AABC"></path>
                    <path d="M87.69,119.35 L119.44,119.35 L119.44,145.35 C119.44,153.799957 112.589957,160.65 104.14,160.65 L103,160.65 C94.550043,160.65 87.7,153.799957 87.7,145.35 L87.7,119.35 L87.69,119.35 Z" id="Shape" fill="#000000" opacity="0.1"></path>
                    <path d="M87.69,118.17 L119.44,118.17 L119.44,144.17 C119.44,152.619957 112.589957,159.47 104.14,159.47 L103,159.47 C94.550043,159.47 87.7,152.619957 87.7,144.17 L87.7,118.17 L87.69,118.17 Z" id="Shape" fill="#BE7C5E"></path>
                    <path d="M87.76,122.74 C97.992293,126.564463 109.25619,126.596392 119.51,122.83 L119.51,118.93 L87.76,118.93 L87.76,122.74 Z" id="Shape" fill="#000000" opacity="0.1"></path>
                    <circle id="Oval" fill="#BE7C5E" cx="103.68" cy="79.37" r="45.5"></circle>
                    <path d="M60.18,62.09 L146.95,62.09 C146.95,62.09 139.54,27.09 106.74,29.29 C73.94,31.49 60.18,62.09 60.18,62.09 Z" id="Shape" fill="#333333"></path>
                    <ellipse id="Oval" fill="#BE7C5E" cx="59.12" cy="77.43" rx="4.23" ry="7.94"></ellipse>
                    <ellipse id="Oval" fill="#BE7C5E" cx="148.01" cy="77.43" rx="4.23" ry="7.94"></ellipse>
                    <path d="M60.18,63.26 L146.95,63.26 C146.95,63.26 139.54,28.26 106.74,30.46 C73.94,32.66 60.18,63.26 60.18,63.26 Z" id="Shape" fill="#000000" opacity="0.1"></path>
                </g>
                <g id="Group-7" transform="translate(68.000000, 166.000000)">
                    <circle id="Oval" fill="#69F0AE" cx="34.74" cy="35.11" r="34.37"></circle>
                    <polygon id="Shape" fill="#FFFFFF" points="19.82 30.53 32.71 42.34 50.97 15.49 57.41 20.86 32.71 53.08 14.45 32.68"></polygon>
                </g>
            </g>
        </g>
    </g>
</svg>