<?xml version="1.0" encoding="UTF-8"?>
<svg width="875px" height="738px" viewBox="0 0 875 738" version="1.1" xmlns="http://www.w3.org/2000/svg" xmlns:xlink="http://www.w3.org/1999/xlink">
    <!-- Generator: Sketch 48.1 (47250) - http://www.bohemiancoding.com/sketch -->
    <title>order</title>
    <desc>Created with Sketch.</desc>
    <defs>
        <linearGradient x1="49.7271216%" y1="99.8757264%" x2="49.7895251%" y2="-0.115521949%" id="linearGradient-1">
            <stop stop-color="#808080" stop-opacity="0.25" offset="0%"></stop>
            <stop stop-color="#808080" stop-opacity="0.12" offset="54%"></stop>
            <stop stop-color="#808080" stop-opacity="0.1" offset="100%"></stop>
        </linearGradient>
        <linearGradient x1="49.8343505%" y1="99.8757264%" x2="49.8722323%" y2="-0.115521949%" id="linearGradient-2">
            <stop stop-color="#808080" stop-opacity="0.25" offset="0%"></stop>
            <stop stop-color="#808080" stop-opacity="0.12" offset="54%"></stop>
            <stop stop-color="#808080" stop-opacity="0.1" offset="100%"></stop>
        </linearGradient>
        <linearGradient x1="-0.523741434%" y1="50.0020309%" x2="99.9338477%" y2="50.0020309%" id="linearGradient-3">
            <stop stop-color="#FFFFFF" stop-opacity="0.09" offset="0%"></stop>
            <stop stop-color="#FFFFFF" stop-opacity="0.07" offset="55%"></stop>
            <stop stop-color="#FFFFFF" stop-opacity="0.02" offset="100%"></stop>
        </linearGradient>
        <linearGradient x1="83764%" y1="29546%" x2="83764%" y2="8319%" id="linearGradient-4">
            <stop stop-color="#808080" stop-opacity="0.25" offset="0%"></stop>
            <stop stop-color="#808080" stop-opacity="0.12" offset="54%"></stop>
            <stop stop-color="#808080" stop-opacity="0.1" offset="100%"></stop>
        </linearGradient>
        <linearGradient x1="30544%" y1="44278%" x2="30544%" y2="23050%" id="linearGradient-5">
            <stop stop-color="#808080" stop-opacity="0.25" offset="0%"></stop>
            <stop stop-color="#808080" stop-opacity="0.12" offset="54%"></stop>
            <stop stop-color="#808080" stop-opacity="0.1" offset="100%"></stop>
        </linearGradient>
        <linearGradient x1="-53755%" y1="76023%" x2="-53755%" y2="54795%" id="linearGradient-6">
            <stop stop-color="#808080" stop-opacity="0.25" offset="0%"></stop>
            <stop stop-color="#808080" stop-opacity="0.12" offset="54%"></stop>
            <stop stop-color="#808080" stop-opacity="0.1" offset="100%"></stop>
        </linearGradient>
        <linearGradient x1="13734%" y1="41618%" x2="13734%" y2="34315%" id="linearGradient-7">
            <stop stop-color="#808080" stop-opacity="0.25" offset="0%"></stop>
            <stop stop-color="#808080" stop-opacity="0.12" offset="54%"></stop>
            <stop stop-color="#808080" stop-opacity="0.1" offset="100%"></stop>
        </linearGradient>
        <linearGradient x1="67783%" y1="25953%" x2="67783%" y2="18650%" id="linearGradient-8">
            <stop stop-color="#808080" stop-opacity="0.25" offset="0%"></stop>
            <stop stop-color="#808080" stop-opacity="0.12" offset="54%"></stop>
            <stop stop-color="#808080" stop-opacity="0.1" offset="100%"></stop>
        </linearGradient>
        <linearGradient x1="42574%" y1="73363%" x2="42574%" y2="66060%" id="linearGradient-9">
            <stop stop-color="#808080" stop-opacity="0.25" offset="0%"></stop>
            <stop stop-color="#808080" stop-opacity="0.12" offset="54%"></stop>
            <stop stop-color="#808080" stop-opacity="0.1" offset="100%"></stop>
        </linearGradient>
    </defs>
    <g id="Page-1" stroke="none" stroke-width="1" fill="none" fill-rule="evenodd">
        <g id="order">
            <g id="Group" opacity="0.5" transform="translate(0.000000, 121.000000)" fill="url(#linearGradient-2)" fill-rule="nonzero">
                <path d="M0.74,552.02 L0,21.81 C0,10.764305 8.954305,1.81 20,1.81 L853.41,0.7 C864.455695,0.7 873.41,9.654305 873.41,20.7 L874.14,550.91 C874.14,556.21433 872.032863,561.301408 868.282136,565.052136 C864.531408,568.802863 859.44433,570.91 854.14,570.91 L20.73,572.02 C9.68821045,572.014479 0.73999862,563.061791 0.74,552.02 Z" id="Shape"></path>
            </g>
            <rect id="Rectangle-path" fill="url(#linearGradient-3)" fill-rule="nonzero" transform="translate(435.570137, 408.333847) rotate(-0.080000) translate(-435.570137, -408.333847) " x="64.9101367" y="162.133847" width="741.32" height="492.4"></rect>
            <rect id="Rectangle-path" fill="#FFFFFF" fill-rule="nonzero" transform="translate(438.798716, 407.314352) rotate(-0.080000) translate(-438.798716, -407.314352) " x="17.2187163" y="139.569352" width="843.16" height="535.49" rx="12.68"></rect>
            <rect id="Rectangle-path" fill="#30AABC" fill-rule="nonzero" opacity="0.2" transform="translate(441.525000, 407.600000) rotate(90.000000) translate(-441.525000, -407.600000) " x="210.305" y="54.005" width="462.44" height="707.19"></rect>
            <g id="Group" opacity="0.5" transform="translate(568.000000, 3.000000)" fill="url(#linearGradient-4)" fill-rule="nonzero">
                <path d="M212.52,106.81 C212.514686,56.3650465 176.902406,12.9372412 127.435379,3.05257651 C77.9683523,-6.83208819 28.4014476,19.5749313 9.01046059,66.1440518 C-10.3805264,112.713172 5.79628884,166.495319 47.66,194.64 L47.73,195.11 C51.1856456,198.424866 55.2642988,201.021609 59.73,202.75 L59.87,202.28 C64.87,206.53 85.68,213.33 109.66,213.28 L110.18,213.28 C125.36,213.28 141.84,210.6 156.34,202.76 C156.34,202.76 156.47,202.48 156.67,201.96 C160.349596,200.237066 163.726485,197.930651 166.67,195.13 C166.73,194.723333 166.786667,194.323333 166.84,193.93 C195.475264,174.176411 212.557419,141.597659 212.52,106.81 Z" id="Shape"></path>
            </g>
            <g id="Group" opacity="0.5" transform="translate(36.000000, 151.000000)" fill="url(#linearGradient-5)" fill-rule="nonzero">
                <path d="M212.32,106.13 C212.31789,55.6826939 176.705125,12.2512882 127.235835,2.36594519 C77.7665443,-7.51939784 28.1975756,18.8903232 8.80823362,65.4626768 C-10.5811084,112.03503 5.60113179,165.818774 47.47,193.96 L47.54,194.43 C50.9956456,197.744866 55.0742988,200.341609 59.54,202.07 L59.68,201.6 C64.68,205.85 85.49,212.65 109.47,212.6 L109.99,212.6 C125.17,212.6 141.65,209.92 156.15,202.08 C156.15,202.08 156.28,201.8 156.48,201.28 C160.159596,199.557066 163.536485,197.250651 166.48,194.45 C166.54,194.043333 166.596667,193.643333 166.65,193.25 C195.281468,173.494176 212.359686,140.915802 212.32,106.13 Z" id="Shape"></path>
            </g>
            <circle id="Oval" fill="#F5F5F5" fill-rule="nonzero" cx="142.5" cy="257.14" r="102.64"></circle>
            <path d="M98.06,297.27 C98.06,297.27 73.6,299.27 80.06,343.83 C83.4119912,347.045204 87.368295,349.563779 91.7,351.24 L105.46,304.68 L98.06,297.27 Z" id="Shape" fill="#30AABC" fill-rule="nonzero"></path>
            <path d="M177.47,297.27 C177.47,297.27 201.93,299.27 195.47,343.83 C192.118009,347.045204 188.161705,349.563779 183.83,351.24 L170.06,304.67 L177.47,297.27 Z" id="Shape" fill="#30AABC" fill-rule="nonzero"></path>
            <circle id="Oval" fill="#333333" fill-rule="nonzero" cx="138.43" cy="221.08" r="45.5"></circle>
            <path d="M177,297.27 L97.63,297.27 L90.22,329.02 C90.22,329.02 85.87,343.72 91.28,350.18 C96.69,356.64 147.28,371.34 184.4,351.24 C187.633988,342.782945 188.006334,333.49888 185.46,324.81 C181.23,310 184.4,323.75 184.4,323.75 L177,297.27 Z" id="Shape" fill="#4D8AF0" fill-rule="nonzero"></path>
            <path d="M178.06,297.27 L98.69,297.27 L91.28,329.02 C91.28,329.02 86.93,343.72 92.34,350.18 C97.75,356.64 148.34,371.34 185.46,351.24 C188.693988,342.782945 189.066334,333.49888 186.52,324.81 C182.29,310 185.46,323.75 185.46,323.75 L178.06,297.27 Z" id="Shape" fill="#4D8AF0" fill-rule="nonzero"></path>
            <path d="M177.47,297.27 L98.06,297.27 L90.65,329.02 C90.65,329.02 86.3,343.72 91.71,350.18 C97.12,356.64 147.71,371.34 184.83,351.24 C188.077149,342.787358 188.463549,333.503231 185.93,324.81 C181.7,310 184.87,323.75 184.87,323.75 L177.47,297.27 Z" id="Shape" fill="#30AABC" fill-rule="nonzero"></path>
            <path d="M122.44,270.93 L154.19,270.93 L154.19,296.93 C154.19,305.379957 147.339957,312.23 138.89,312.23 L137.74,312.23 C129.290043,312.23 122.44,305.379957 122.44,296.93 L122.44,270.93 Z" id="Shape" fill="#000000" fill-rule="nonzero" opacity="0.1"></path>
            <path d="M122.44,269.76 L154.19,269.76 L154.19,295.76 C154.19,304.209957 147.339957,311.06 138.89,311.06 L137.74,311.06 C129.290043,311.06 122.44,304.209957 122.44,295.76 L122.44,269.76 Z" id="Shape" fill="#FDB797" fill-rule="nonzero"></path>
            <path d="M122.5,274.33 C132.732293,278.154463 143.99619,278.186392 154.25,274.42 L154.25,270.52 L122.5,270.52 L122.5,274.33 Z" id="Shape" fill="#000000" fill-rule="nonzero" opacity="0.1"></path>
            <circle id="Oval" fill="#FDB797" fill-rule="nonzero" cx="138.43" cy="230.96" r="45.5"></circle>
            <path d="M94.93,214.81 L181.7,214.81 C181.7,214.81 174.29,179.81 141.49,182.01 C108.69,184.21 94.93,214.81 94.93,214.81 Z" id="Shape" fill="#000000" fill-rule="nonzero" opacity="0.1"></path>
            <path d="M94.93,213.67 L181.7,213.67 C181.7,213.67 174.29,178.67 141.49,180.87 C108.69,183.07 94.93,213.67 94.93,213.67 Z" id="Shape" fill="#333333" fill-rule="nonzero"></path>
            <ellipse id="Oval" fill="#FDB797" fill-rule="nonzero" cx="93.87" cy="229.02" rx="4.23" ry="7.94"></ellipse>
            <ellipse id="Oval" fill="#FDB797" fill-rule="nonzero" cx="182.75" cy="229.02" rx="4.23" ry="7.94"></ellipse>
            <path d="M101.67,190.46 C102.602897,187.000459 104.66115,183.950023 107.52,181.79 C109.74,180.25 112.39,179.51 114.93,178.61 C118.69481,177.278093 122.308232,175.551829 125.71,173.46 C129.57,171.08 133.19,168.22 137.44,166.65 C144.75,163.95 152.89,165.41 160.44,167.35 C162.322787,167.745506 164.136064,168.419586 165.82,169.35 C167.65212,170.61858 169.263548,172.179334 170.59,173.97 L182.59,188.42 C183.743802,189.699876 184.750116,191.105362 185.59,192.61 C186.310849,194.097154 186.770872,195.697087 186.95,197.34 C187.378156,199.997035 186.928805,202.721226 185.67,205.1 C183.67,208.56 179.47,210.3 175.47,210.46 C171.47,210.62 167.54,209.46 163.69,208.33 C151.29,204.7 138.69,201.33 125.87,199.81 C119.48846,199.023888 113.048912,198.816377 106.63,199.19 C104.63,199.32 101.95,200.25 100.73,198.19 C99.62,196.4 101.12,192.24 101.67,190.46 Z" id="Shape" fill="#333333" fill-rule="nonzero"></path>
            <g id="Group" opacity="0.5" transform="translate(316.000000, 468.000000)" fill="url(#linearGradient-6)" fill-rule="nonzero">
                <path d="M0.79,106.58 C0.792109886,56.1326939 36.4048748,12.7012882 85.8741653,2.81594519 C135.343456,-7.06939784 184.912424,19.3403232 204.301766,65.9126768 C223.691108,112.48503 207.508868,166.268774 165.64,194.41 L165.57,194.88 C162.114354,198.194866 158.035701,200.791609 153.57,202.52 L153.43,202.05 C148.43,206.3 127.62,213.1 103.64,213.05 L103.12,213.05 C87.94,213.05 71.46,210.37 56.96,202.53 C56.96,202.53 56.83,202.25 56.63,201.73 C52.9504038,200.007066 49.5735151,197.700651 46.63,194.9 C46.57,194.493333 46.5133333,194.093333 46.46,193.7 C17.8285319,173.944176 0.750313918,141.365802 0.79,106.58 Z" id="Shape"></path>
            </g>
            <circle id="Oval" fill="#F5F5F5" fill-rule="nonzero" cx="422.6" cy="574.59" r="102.64"></circle>
            <path d="M382.36,613.68 C382.36,613.68 357.9,615.68 364.36,660.24 C367.711991,663.455204 371.668295,665.973779 376,667.65 L389.76,621.09 L382.36,613.68 Z" id="Shape" fill="#BE7C5E" fill-rule="nonzero"></path>
            <path d="M461.72,613.68 C461.72,613.68 486.18,615.68 479.72,660.24 C476.362114,663.457427 472.398822,665.976123 468.06,667.65 L454.3,621.09 L461.72,613.68 Z" id="Shape" fill="#BE7C5E" fill-rule="nonzero"></path>
            <path d="M383.42,540.67 C383.42,540.67 381.54,546.15 378.87,552.49 C373.05,566.36 379.69,619.62 393.62,625.29 C409.25,631.66 429.8,635.74 451.15,627.95 C469.71,621.18 475.43,560.56 462.31,545.79 C460.77,544.06 459.16,542.34 457.48,540.66 L383.42,540.67 Z" id="Shape" fill="#333333" fill-rule="nonzero"></path>
            <circle id="Oval" fill="#333333" fill-rule="nonzero" cx="422.68" cy="537.5" r="45.5"></circle>
            <path d="M461.25,613.68 L381.89,613.68 L374.48,645.43 C374.48,645.43 370.13,660.13 375.54,666.59 C380.95,673.05 431.54,687.75 468.66,667.65 C471.898466,659.186929 472.270842,649.895081 469.72,641.2 C465.49,626.39 468.66,640.14 468.66,640.14 L461.25,613.68 Z" id="Shape" fill="#000000" fill-rule="nonzero" opacity="0.1"></path>
            <path d="M462.31,613.68 L382.95,613.68 L375.54,645.43 C375.54,645.43 371.19,660.13 376.6,666.59 C382.01,673.05 432.6,687.75 469.72,667.65 C472.958466,659.186929 473.330842,649.895081 470.78,641.2 C466.55,626.39 469.72,640.14 469.72,640.14 L462.31,613.68 Z" id="Shape" fill="#000000" fill-rule="nonzero" opacity="0.1"></path>
            <path d="M461.72,613.68 L382.36,613.68 L374.95,645.43 C374.95,645.43 370.6,660.13 376.01,666.59 C381.42,673.05 432.01,687.75 469.13,667.65 C472.368466,659.186929 472.740842,649.895081 470.19,641.2 C465.96,626.39 469.13,640.14 469.13,640.14 L461.72,613.68 Z" id="Shape" fill="#30AABC" fill-rule="nonzero"></path>
            <path d="M406.69,587.35 L438.44,587.35 L438.44,613.35 C438.44,621.799957 431.589957,628.65 423.14,628.65 L422,628.65 C413.550043,628.65 406.7,621.799957 406.7,613.35 L406.7,587.35 L406.69,587.35 Z" id="Shape" fill="#000000" fill-rule="nonzero" opacity="0.1"></path>
            <path d="M406.69,586.17 L438.44,586.17 L438.44,612.17 C438.44,620.619957 431.589957,627.47 423.14,627.47 L422,627.47 C413.550043,627.47 406.7,620.619957 406.7,612.17 L406.7,586.17 L406.69,586.17 Z" id="Shape" fill="#BE7C5E" fill-rule="nonzero"></path>
            <path d="M406.76,590.74 C416.992293,594.564463 428.25619,594.596392 438.51,590.83 L438.51,586.93 L406.76,586.93 L406.76,590.74 Z" id="Shape" fill="#000000" fill-rule="nonzero" opacity="0.1"></path>
            <circle id="Oval" fill="#BE7C5E" fill-rule="nonzero" cx="422.68" cy="547.37" r="45.5"></circle>
            <path d="M379.18,530.09 L465.95,530.09 C465.95,530.09 458.54,495.09 425.74,497.29 C392.94,499.49 379.18,530.09 379.18,530.09 Z" id="Shape" fill="#333333" fill-rule="nonzero"></path>
            <ellipse id="Oval" fill="#BE7C5E" fill-rule="nonzero" cx="378.12" cy="545.43" rx="4.23" ry="7.94"></ellipse>
            <ellipse id="Oval" fill="#BE7C5E" fill-rule="nonzero" cx="467.01" cy="545.43" rx="4.23" ry="7.94"></ellipse>
            <path d="M379.18,531.26 L465.95,531.26 C465.95,531.26 458.54,496.26 425.74,498.46 C392.94,500.66 379.18,531.26 379.18,531.26 Z" id="Shape" fill="#000000" fill-rule="nonzero" opacity="0.1"></path>
            <polyline id="Shape" stroke="#30AABC" stroke-width="2" stroke-dasharray="12" points="672.1 244.44 672.1 627.25 569.4 627.25"></polyline>
            <polyline id="Shape" stroke="#30AABC" stroke-width="2" stroke-dasharray="12" points="139.91 384.49 139.91 627.25 289.29 627.25"></polyline>
            <g id="Group" opacity="0.5" transform="translate(100.000000, 347.000000)" fill="url(#linearGradient-7)" fill-rule="nonzero">
                <circle id="Oval" cx="37.34" cy="36.66" r="36.52"></circle>
            </g>
            <g id="Group-2" transform="translate(562.000000, 0.000000)">
                <circle id="Oval" fill="#F5F5F5" fill-rule="nonzero" cx="113.55" cy="113.95" r="113.44"></circle>
                <path d="M113.87,227.73 C136.037739,227.766473 157.725803,221.276748 176.23,209.07 C172.05,186.23 156.14,184.92 156.14,184.92 L68.42,184.92 C68.42,184.92 53.42,186.15 48.72,207.17 C67.7928544,220.585868 90.5513842,227.767992 113.87,227.73 Z" id="Shape" fill="#30AABC" fill-rule="nonzero"></path>
                <path d="M95,157.06 L130.09,157.06 L130.09,185.13 C130.09,194.817075 122.237075,202.67 112.55,202.67 C107.89637,202.672653 103.432433,200.825866 100.140882,197.53619 C96.8493309,194.246514 94.9999992,189.78363 95,185.13 L95,157.06 Z" id="Shape" fill="#000000" fill-rule="nonzero" opacity="0.1"></path>
                <path d="M98.35,155.76 L126.74,155.76 C128.590154,155.76 130.09,157.259846 130.09,159.11 L130.09,183.83 C130.09,193.517075 122.237075,201.37 112.55,201.37 C107.89637,201.372653 103.432433,199.525866 100.140882,196.23619 C96.8493309,192.946514 94.9999992,188.48363 95,183.83 L95,159.11 C95,157.259846 96.4998461,155.76 98.35,155.76 Z" id="Shape" fill="#FDB797" fill-rule="nonzero"></path>
                <path d="M95.07,170.31 C106.378691,174.536642 118.827402,174.572118 130.16,170.41 L130.16,166.1 L95.07,166.1 L95.07,170.31 Z" id="Shape" fill="#000000" fill-rule="nonzero" opacity="0.1"></path>
                <circle id="Oval" fill="#FDB797" fill-rule="nonzero" cx="112.67" cy="122.37" r="50.29"></circle>
                <ellipse id="Oval" fill="#FDB797" fill-rule="nonzero" cx="63.42" cy="120.22" rx="4.68" ry="8.77"></ellipse>
                <ellipse id="Oval" fill="#FDB797" fill-rule="nonzero" cx="161.66" cy="120.22" rx="4.68" ry="8.77"></ellipse>
                <rect id="Rectangle-path" stroke="#333333" stroke-width="2" x="82.03" y="122.61" width="21.51" height="10.76" rx="4.35"></rect>
                <rect id="Rectangle-path" stroke="#333333" stroke-width="2" transform="translate(132.565000, 127.980000) rotate(180.000000) translate(-132.565000, -127.980000) " x="121.81" y="122.6" width="21.51" height="10.76" rx="4.35"></rect>
                <path d="M102.72,123.65 C102.72,123.65 109.54,119.95 122.22,123.65" id="Shape" stroke="#333333" stroke-width="2"></path>
                <path d="M147.44,85.92 L159.78,114.59 C159.78,114.59 174.87,95.57 147.44,85.92 Z" id="Shape" fill="#858585" fill-rule="nonzero"></path>
                <path d="M143.32,127.99 L161.74,111.54" id="Shape" stroke="#333333" stroke-width="2" stroke-linecap="round" stroke-linejoin="round"></path>
                <path d="M77.92,85.92 L65.58,114.59 C65.58,114.59 50.49,95.57 77.92,85.92 Z" id="Shape" fill="#858585" fill-rule="nonzero"></path>
                <path d="M82.03,127.99 L63.36,111.54" id="Shape" stroke="#333333" stroke-width="2" stroke-linecap="round" stroke-linejoin="round"></path>
            </g>
            <circle id="Oval" fill="#69F0AE" fill-rule="nonzero" cx="137.34" cy="383.66" r="34.37"></circle>
            <polygon id="Shape" fill="#FFFFFF" fill-rule="nonzero" points="122.42 379.08 135.31 390.89 153.56 364.04 160.01 369.41 135.31 401.63 117.05 381.23"></polygon>
            <g id="Group" opacity="0.5" transform="translate(641.000000, 190.000000)" fill="url(#linearGradient-8)" fill-rule="nonzero">
                <circle id="Oval" cx="36.83" cy="37.01" r="36.52"></circle>
            </g>
            <circle id="Oval" fill="#69F0AE" fill-rule="nonzero" cx="677.83" cy="227.01" r="34.37"></circle>
            <polygon id="Shape" fill="#FFFFFF" fill-rule="nonzero" points="662.91 222.43 675.8 234.24 694.06 207.39 700.5 212.76 675.8 244.98 657.54 224.57"></polygon>
            <g id="Group" opacity="0.5" transform="translate(389.000000, 664.000000)" fill="url(#linearGradient-9)" fill-rule="nonzero">
                <circle id="Oval" cx="36.74" cy="37.11" r="36.52"></circle>
            </g>
            <circle id="Oval" fill="#69F0AE" fill-rule="nonzero" cx="425.74" cy="701.11" r="34.37"></circle>
            <polygon id="Shape" fill="#FFFFFF" fill-rule="nonzero" points="410.82 696.53 423.71 708.34 441.97 681.49 448.41 686.86 423.71 719.08 405.45 698.68"></polygon>
        </g>
    </g>
</svg>